<svg  viewBox="0 0 85 44" fill="none" xmlns="http://www.w3.org/2000/svg">
<g filter="url(#filter0_d_17_155)">
<rect x="10" y="5" width="65" height="24" rx="7" fill="#333333"/>
</g>
<path fill-rule="evenodd" clip-rule="evenodd" d="M45.0868 27C45.7804 27 46.2201 27.7436 45.8858 28.3513L42.799 33.9637C42.4525 34.5936 41.5475 34.5936 41.201 33.9637L38.1142 28.3513C37.7799 27.7436 38.2196 27 38.9132 27H45.0868Z" fill="#333333"/>
<path d="M32.6748 21.11C32.1468 21.11 31.6481 21.0073 31.1788 20.802C30.7095 20.5967 30.2988 20.3143 29.9468 19.955C29.5948 19.5883 29.3161 19.1667 29.1108 18.69C28.9128 18.206 28.8138 17.689 28.8138 17.139C28.8138 16.589 28.9128 16.0757 29.1108 15.599C29.3161 15.1223 29.5948 14.7043 29.9468 14.345C30.3061 13.9783 30.7241 13.696 31.2008 13.498C31.6848 13.2927 32.2055 13.19 32.7628 13.19C33.3715 13.19 33.9361 13.3073 34.4568 13.542C34.9775 13.7767 35.4138 14.1103 35.7658 14.543L34.9078 15.401C34.6805 15.0783 34.3761 14.8327 33.9948 14.664C33.6135 14.488 33.2028 14.4 32.7628 14.4C32.2348 14.4 31.7691 14.5173 31.3658 14.752C30.9698 14.9793 30.6618 15.2983 30.4418 15.709C30.2218 16.1197 30.1118 16.5963 30.1118 17.139C30.1118 17.6817 30.2218 18.162 30.4418 18.58C30.6691 18.9907 30.9735 19.3133 31.3548 19.548C31.7361 19.7827 32.1688 19.9 32.6528 19.9C33.1661 19.9 33.6061 19.8083 33.9728 19.625C34.3468 19.4343 34.6328 19.1557 34.8308 18.789C35.0288 18.415 35.1278 17.9567 35.1278 17.414L35.9198 17.986H32.6308V16.831H36.4368V17.007C36.4368 17.9237 36.2718 18.6863 35.9418 19.295C35.6191 19.9037 35.1755 20.3583 34.6108 20.659C34.0461 20.9597 33.4008 21.11 32.6748 21.11ZM39.9509 21.11C39.4375 21.11 38.9719 20.989 38.5539 20.747C38.1359 20.4977 37.8022 20.164 37.5529 19.746C37.3109 19.328 37.1899 18.8623 37.1899 18.349C37.1899 17.8357 37.3109 17.3737 37.5529 16.963C37.8022 16.5523 38.1359 16.226 38.5539 15.984C38.9719 15.7347 39.4375 15.61 39.9509 15.61C40.4715 15.61 40.9409 15.731 41.3589 15.973C41.7769 16.215 42.1069 16.545 42.3489 16.963C42.5982 17.3737 42.7229 17.8357 42.7229 18.349C42.7229 18.8623 42.5982 19.328 42.3489 19.746C42.1069 20.164 41.7769 20.4977 41.3589 20.747C40.9409 20.989 40.4715 21.11 39.9509 21.11ZM39.9509 19.944C40.2515 19.944 40.5155 19.878 40.7429 19.746C40.9775 19.6067 41.1572 19.416 41.2819 19.174C41.4139 18.932 41.4799 18.657 41.4799 18.349C41.4799 18.041 41.4139 17.7697 41.2819 17.535C41.1499 17.3003 40.9702 17.117 40.7429 16.985C40.5155 16.8457 40.2515 16.776 39.9509 16.776C39.6575 16.776 39.3935 16.8457 39.1589 16.985C38.9315 17.117 38.7519 17.3003 38.6199 17.535C38.4952 17.7697 38.4329 18.041 38.4329 18.349C38.4329 18.657 38.4952 18.932 38.6199 19.174C38.7519 19.416 38.9315 19.6067 39.1589 19.746C39.3935 19.878 39.6575 19.944 39.9509 19.944ZM46.1491 21.11C45.6358 21.11 45.1701 20.989 44.7521 20.747C44.3341 20.4977 44.0004 20.164 43.7511 19.746C43.5091 19.328 43.3881 18.8623 43.3881 18.349C43.3881 17.8357 43.5091 17.3737 43.7511 16.963C44.0004 16.5523 44.3341 16.226 44.7521 15.984C45.1701 15.7347 45.6358 15.61 46.1491 15.61C46.6698 15.61 47.1391 15.731 47.5571 15.973C47.9751 16.215 48.3051 16.545 48.5471 16.963C48.7964 17.3737 48.9211 17.8357 48.9211 18.349C48.9211 18.8623 48.7964 19.328 48.5471 19.746C48.3051 20.164 47.9751 20.4977 47.5571 20.747C47.1391 20.989 46.6698 21.11 46.1491 21.11ZM46.1491 19.944C46.4498 19.944 46.7138 19.878 46.9411 19.746C47.1758 19.6067 47.3554 19.416 47.4801 19.174C47.6121 18.932 47.6781 18.657 47.6781 18.349C47.6781 18.041 47.6121 17.7697 47.4801 17.535C47.3481 17.3003 47.1684 17.117 46.9411 16.985C46.7138 16.8457 46.4498 16.776 46.1491 16.776C45.8558 16.776 45.5918 16.8457 45.3571 16.985C45.1298 17.117 44.9501 17.3003 44.8181 17.535C44.6934 17.7697 44.6311 18.041 44.6311 18.349C44.6311 18.657 44.6934 18.932 44.8181 19.174C44.9501 19.416 45.1298 19.6067 45.3571 19.746C45.5918 19.878 45.8558 19.944 46.1491 19.944ZM52.1383 21.11C51.6617 21.11 51.229 20.989 50.8403 20.747C50.459 20.505 50.1547 20.1787 49.9273 19.768C49.7073 19.35 49.5973 18.8843 49.5973 18.371C49.5973 17.8503 49.7073 17.3847 49.9273 16.974C50.1547 16.556 50.459 16.226 50.8403 15.984C51.229 15.7347 51.6617 15.61 52.1383 15.61C52.5417 15.61 52.8973 15.698 53.2053 15.874C53.5207 16.0427 53.77 16.2773 53.9533 16.578C54.1367 16.8787 54.2283 17.2197 54.2283 17.601V19.119C54.2283 19.5003 54.1367 19.8413 53.9533 20.142C53.7773 20.4427 53.5317 20.681 53.2163 20.857C52.901 21.0257 52.5417 21.11 52.1383 21.11ZM52.3363 19.966C52.637 19.966 52.8973 19.9 53.1173 19.768C53.3447 19.6287 53.5207 19.438 53.6453 19.196C53.77 18.954 53.8323 18.6753 53.8323 18.36C53.8323 18.0447 53.77 17.766 53.6453 17.524C53.5207 17.282 53.3447 17.095 53.1173 16.963C52.8973 16.8237 52.637 16.754 52.3363 16.754C52.043 16.754 51.7827 16.8237 51.5553 16.963C51.3353 17.095 51.1593 17.282 51.0273 17.524C50.9027 17.766 50.8403 18.0447 50.8403 18.36C50.8403 18.6753 50.9027 18.954 51.0273 19.196C51.1593 19.438 51.3353 19.6287 51.5553 19.768C51.7827 19.9 52.043 19.966 52.3363 19.966ZM54.9653 21H53.7553V19.581L53.9643 18.294L53.7553 17.018V13.08H54.9653V21Z" fill="white"/>
<defs>
<filter id="filter0_d_17_155" x="0" y="0" width="85" height="44" filterUnits="userSpaceOnUse" color-interpolation-filters="sRGB">
<feFlood flood-opacity="0" result="BackgroundImageFix"/>
<feColorMatrix in="SourceAlpha" type="matrix" values="0 0 0 0 0 0 0 0 0 0 0 0 0 0 0 0 0 0 127 0" result="hardAlpha"/>
<feOffset dy="5"/>
<feGaussianBlur stdDeviation="5"/>
<feComposite in2="hardAlpha" operator="out"/>
<feColorMatrix type="matrix" values="0 0 0 0 0 0 0 0 0 0 0 0 0 0 0 0 0 0 0.15 0"/>
<feBlend mode="normal" in2="BackgroundImageFix" result="effect1_dropShadow_17_155"/>
<feBlend mode="normal" in="SourceGraphic" in2="effect1_dropShadow_17_155" result="shape"/>
</filter>
</defs>
</svg>
