<svg width="127.5" height="66" viewBox="0 0 85 44" fill="none" xmlns="http://www.w3.org/2000/svg">
<g filter="url(#filter0_d_17_154)">
<rect x="10" y="5" width="65" height="24" rx="7" fill="#333333"/>
</g>
<path fill-rule="evenodd" clip-rule="evenodd" d="M45.0868 27C45.7804 27 46.2201 27.7436 45.8858 28.3513L42.799 33.9637C42.4525 34.5936 41.5475 34.5936 41.201 33.9637L38.1142 28.3513C37.7799 27.7436 38.2196 27 38.9132 27H45.0868Z" fill="#333333"/>
<path d="M22.4712 21.11C21.8626 21.11 21.3456 21 20.9202 20.78C20.4949 20.56 20.1136 20.2373 19.7762 19.812L20.6342 18.954C20.8469 19.262 21.0999 19.504 21.3932 19.68C21.6866 19.8487 22.0606 19.933 22.5152 19.933C22.9406 19.933 23.2779 19.845 23.5272 19.669C23.7839 19.493 23.9122 19.251 23.9122 18.943C23.9122 18.6863 23.8462 18.4773 23.7142 18.316C23.5822 18.1547 23.4062 18.0227 23.1862 17.92C22.9736 17.81 22.7352 17.7147 22.4712 17.634C22.2146 17.546 21.9542 17.4507 21.6902 17.348C21.4336 17.238 21.1952 17.1023 20.9752 16.941C20.7626 16.7797 20.5902 16.5707 20.4582 16.314C20.3262 16.0573 20.2602 15.731 20.2602 15.335C20.2602 14.8803 20.3702 14.4953 20.5902 14.18C20.8176 13.8573 21.1219 13.6117 21.5032 13.443C21.8846 13.2743 22.3099 13.19 22.7792 13.19C23.2852 13.19 23.7362 13.289 24.1322 13.487C24.5356 13.685 24.8619 13.938 25.1112 14.246L24.2532 15.104C24.0332 14.8547 23.8022 14.6713 23.5602 14.554C23.3256 14.4293 23.0542 14.367 22.7462 14.367C22.3649 14.367 22.0642 14.444 21.8442 14.598C21.6316 14.752 21.5252 14.9683 21.5252 15.247C21.5252 15.4817 21.5912 15.6723 21.7232 15.819C21.8552 15.9583 22.0276 16.0793 22.2402 16.182C22.4602 16.2773 22.6986 16.369 22.9552 16.457C23.2192 16.545 23.4796 16.644 23.7362 16.754C24.0002 16.864 24.2386 17.007 24.4512 17.183C24.6712 17.3517 24.8472 17.5717 24.9792 17.843C25.1112 18.1143 25.1772 18.4553 25.1772 18.866C25.1772 19.5553 24.9316 20.1017 24.4402 20.505C23.9562 20.9083 23.2999 21.11 22.4712 21.11ZM27.0765 21V13.52H28.2865V21H27.0765ZM25.8115 16.82V15.72H29.5515V16.82H25.8115ZM32.4914 21.11C32.0147 21.11 31.582 20.989 31.1934 20.747C30.812 20.505 30.5077 20.1787 30.2804 19.768C30.0604 19.35 29.9504 18.8843 29.9504 18.371C29.9504 17.8503 30.0604 17.3847 30.2804 16.974C30.5077 16.556 30.812 16.226 31.1934 15.984C31.582 15.7347 32.0147 15.61 32.4914 15.61C32.8947 15.61 33.2504 15.698 33.5584 15.874C33.8737 16.0427 34.123 16.2773 34.3064 16.578C34.4897 16.8787 34.5814 17.2197 34.5814 17.601V19.119C34.5814 19.5003 34.4897 19.8413 34.3064 20.142C34.1304 20.4427 33.8847 20.681 33.5694 20.857C33.254 21.0257 32.8947 21.11 32.4914 21.11ZM32.6894 19.966C33.1367 19.966 33.496 19.8157 33.7674 19.515C34.046 19.2143 34.1854 18.8293 34.1854 18.36C34.1854 18.0447 34.123 17.766 33.9984 17.524C33.8737 17.282 33.6977 17.095 33.4704 16.963C33.2504 16.8237 32.99 16.754 32.6894 16.754C32.396 16.754 32.1357 16.8237 31.9084 16.963C31.6884 17.095 31.5124 17.282 31.3804 17.524C31.2557 17.766 31.1934 18.0447 31.1934 18.36C31.1934 18.6753 31.2557 18.954 31.3804 19.196C31.5124 19.438 31.6884 19.6287 31.9084 19.768C32.1357 19.9 32.396 19.966 32.6894 19.966ZM34.1084 21V19.581L34.3174 18.294L34.1084 17.018V15.72H35.3184V21H34.1084ZM40.2802 21V17.953C40.2802 17.601 40.1666 17.3113 39.9392 17.084C39.7192 16.8567 39.4332 16.743 39.0812 16.743C38.8466 16.743 38.6376 16.7943 38.4542 16.897C38.2709 16.9997 38.1279 17.1427 38.0252 17.326C37.9226 17.5093 37.8712 17.7183 37.8712 17.953L37.3982 17.689C37.3982 17.2857 37.4862 16.93 37.6622 16.622C37.8382 16.3067 38.0802 16.061 38.3882 15.885C38.7036 15.7017 39.0556 15.61 39.4442 15.61C39.8402 15.61 40.1922 15.7127 40.5002 15.918C40.8082 16.116 41.0502 16.3763 41.2262 16.699C41.4022 17.0143 41.4902 17.3443 41.4902 17.689V21H40.2802ZM36.6612 21V15.72H37.8712V21H36.6612ZM44.9308 21.11C44.4542 21.11 44.0215 20.989 43.6328 20.747C43.2515 20.505 42.9472 20.1787 42.7198 19.768C42.4998 19.35 42.3898 18.8843 42.3898 18.371C42.3898 17.8503 42.4998 17.3847 42.7198 16.974C42.9472 16.556 43.2515 16.226 43.6328 15.984C44.0215 15.7347 44.4542 15.61 44.9308 15.61C45.3342 15.61 45.6898 15.698 45.9978 15.874C46.3132 16.0427 46.5625 16.2773 46.7458 16.578C46.9292 16.8787 47.0208 17.2197 47.0208 17.601V19.119C47.0208 19.5003 46.9292 19.8413 46.7458 20.142C46.5698 20.4427 46.3242 20.681 46.0088 20.857C45.6935 21.0257 45.3342 21.11 44.9308 21.11ZM45.1288 19.966C45.4295 19.966 45.6898 19.9 45.9098 19.768C46.1372 19.6287 46.3132 19.438 46.4378 19.196C46.5625 18.954 46.6248 18.6753 46.6248 18.36C46.6248 18.0447 46.5625 17.766 46.4378 17.524C46.3132 17.282 46.1372 17.095 45.9098 16.963C45.6898 16.8237 45.4295 16.754 45.1288 16.754C44.8355 16.754 44.5752 16.8237 44.3478 16.963C44.1278 17.095 43.9518 17.282 43.8198 17.524C43.6952 17.766 43.6328 18.0447 43.6328 18.36C43.6328 18.6753 43.6952 18.954 43.8198 19.196C43.9518 19.438 44.1278 19.6287 44.3478 19.768C44.5752 19.9 44.8355 19.966 45.1288 19.966ZM47.7578 21H46.5478V19.581L46.7568 18.294L46.5478 17.018V13.08H47.7578V21ZM51.3117 21.11C50.835 21.11 50.4024 20.989 50.0137 20.747C49.6324 20.505 49.328 20.1787 49.1007 19.768C48.8807 19.35 48.7707 18.8843 48.7707 18.371C48.7707 17.8503 48.8807 17.3847 49.1007 16.974C49.328 16.556 49.6324 16.226 50.0137 15.984C50.4024 15.7347 50.835 15.61 51.3117 15.61C51.715 15.61 52.0707 15.698 52.3787 15.874C52.694 16.0427 52.9434 16.2773 53.1267 16.578C53.31 16.8787 53.4017 17.2197 53.4017 17.601V19.119C53.4017 19.5003 53.31 19.8413 53.1267 20.142C52.9507 20.4427 52.705 20.681 52.3897 20.857C52.0744 21.0257 51.715 21.11 51.3117 21.11ZM51.5097 19.966C51.957 19.966 52.3164 19.8157 52.5877 19.515C52.8664 19.2143 53.0057 18.8293 53.0057 18.36C53.0057 18.0447 52.9434 17.766 52.8187 17.524C52.694 17.282 52.518 17.095 52.2907 16.963C52.0707 16.8237 51.8104 16.754 51.5097 16.754C51.2164 16.754 50.956 16.8237 50.7287 16.963C50.5087 17.095 50.3327 17.282 50.2007 17.524C50.076 17.766 50.0137 18.0447 50.0137 18.36C50.0137 18.6753 50.076 18.954 50.2007 19.196C50.3327 19.438 50.5087 19.6287 50.7287 19.768C50.956 19.9 51.2164 19.966 51.5097 19.966ZM52.9287 21V19.581L53.1377 18.294L52.9287 17.018V15.72H54.1387V21H52.9287ZM55.4815 21V15.72H56.6915V21H55.4815ZM56.6915 18.063L56.2735 17.854C56.2735 17.1867 56.4202 16.6477 56.7135 16.237C57.0142 15.819 57.4652 15.61 58.0665 15.61C58.3305 15.61 58.5689 15.6577 58.7815 15.753C58.9942 15.8483 59.1922 16.0023 59.3755 16.215L58.5835 17.029C58.4882 16.9263 58.3819 16.853 58.2645 16.809C58.1472 16.765 58.0115 16.743 57.8575 16.743C57.5202 16.743 57.2415 16.8493 57.0215 17.062C56.8015 17.2747 56.6915 17.6083 56.6915 18.063ZM62.0109 21.11C61.5342 21.11 61.1016 20.989 60.7129 20.747C60.3316 20.505 60.0272 20.1787 59.7999 19.768C59.5799 19.35 59.4699 18.8843 59.4699 18.371C59.4699 17.8503 59.5799 17.3847 59.7999 16.974C60.0272 16.556 60.3316 16.226 60.7129 15.984C61.1016 15.7347 61.5342 15.61 62.0109 15.61C62.4142 15.61 62.7699 15.698 63.0779 15.874C63.3932 16.0427 63.6426 16.2773 63.8259 16.578C64.0092 16.8787 64.1009 17.2197 64.1009 17.601V19.119C64.1009 19.5003 64.0092 19.8413 63.8259 20.142C63.6499 20.4427 63.4042 20.681 63.0889 20.857C62.7736 21.0257 62.4142 21.11 62.0109 21.11ZM62.2089 19.966C62.5096 19.966 62.7699 19.9 62.9899 19.768C63.2172 19.6287 63.3932 19.438 63.5179 19.196C63.6426 18.954 63.7049 18.6753 63.7049 18.36C63.7049 18.0447 63.6426 17.766 63.5179 17.524C63.3932 17.282 63.2172 17.095 62.9899 16.963C62.7699 16.8237 62.5096 16.754 62.2089 16.754C61.9156 16.754 61.6552 16.8237 61.4279 16.963C61.2079 17.095 61.0319 17.282 60.8999 17.524C60.7752 17.766 60.7129 18.0447 60.7129 18.36C60.7129 18.6753 60.7752 18.954 60.8999 19.196C61.0319 19.438 61.2079 19.6287 61.4279 19.768C61.6552 19.9 61.9156 19.966 62.2089 19.966ZM64.8379 21H63.6279V19.581L63.8369 18.294L63.6279 17.018V13.08H64.8379V21Z" fill="white"/>
<defs>
<filter id="filter0_d_17_154" x="0" y="0" width="85" height="44" filterUnits="userSpaceOnUse" color-interpolation-filters="sRGB">
<feFlood flood-opacity="0" result="BackgroundImageFix"/>
<feColorMatrix in="SourceAlpha" type="matrix" values="0 0 0 0 0 0 0 0 0 0 0 0 0 0 0 0 0 0 127 0" result="hardAlpha"/>
<feOffset dy="5"/>
<feGaussianBlur stdDeviation="5"/>
<feComposite in2="hardAlpha" operator="out"/>
<feColorMatrix type="matrix" values="0 0 0 0 0 0 0 0 0 0 0 0 0 0 0 0 0 0 0.15 0"/>
<feBlend mode="normal" in2="BackgroundImageFix" result="effect1_dropShadow_17_154"/>
<feBlend mode="normal" in="SourceGraphic" in2="effect1_dropShadow_17_154" result="shape"/>
</filter>
</defs>
</svg>
