<svg width="127.5" height="66" viewBox="0 0 85 44" fill="none" xmlns="http://www.w3.org/2000/svg">
<g filter="url(#filter0_d_17_154)">
<rect x="10" y="5" width="65" height="24" rx="7" fill="#333333"/>
</g>
<path fill-rule="evenodd" clip-rule="evenodd" d="M45.0868 27C45.7804 27 46.2201 27.7436 45.8858 28.3513L42.799 33.9637C42.4525 34.5936 41.5475 34.5936 41.201 33.9637L38.1142 28.3513C37.7799 27.7436 38.2196 27 38.9132 27H45.0868Z" fill="#333333"/>
<path d="M16.9478 21V13.3H18.2128V21H16.9478ZM21.8428 21V13.3H23.1078V21H21.8428ZM17.8168 17.59V16.435H22.1178V17.59H17.8168ZM26.8249 21.11C26.3482 21.11 25.9155 20.989 25.5269 20.747C25.1455 20.505 24.8412 20.1787 24.6139 19.768C24.3939 19.35 24.2839 18.8843 24.2839 18.371C24.2839 17.8503 24.3939 17.3847 24.6139 16.974C24.8412 16.556 25.1455 16.226 25.5269 15.984C25.9155 15.7347 26.3482 15.61 26.8249 15.61C27.2282 15.61 27.5839 15.698 27.8919 15.874C28.2072 16.0427 28.4565 16.2773 28.6399 16.578C28.8232 16.8787 28.9149 17.2197 28.9149 17.601V19.119C28.9149 19.5003 28.8232 19.8413 28.6399 20.142C28.4639 20.4427 28.2182 20.681 27.9029 20.857C27.5875 21.0257 27.2282 21.11 26.8249 21.11ZM27.0229 19.966C27.4702 19.966 27.8295 19.8157 28.1009 19.515C28.3795 19.2143 28.5189 18.8293 28.5189 18.36C28.5189 18.0447 28.4565 17.766 28.3319 17.524C28.2072 17.282 28.0312 17.095 27.8039 16.963C27.5839 16.8237 27.3235 16.754 27.0229 16.754C26.7295 16.754 26.4692 16.8237 26.2419 16.963C26.0219 17.095 25.8459 17.282 25.7139 17.524C25.5892 17.766 25.5269 18.0447 25.5269 18.36C25.5269 18.6753 25.5892 18.954 25.7139 19.196C25.8459 19.438 26.0219 19.6287 26.2419 19.768C26.4692 19.9 26.7295 19.966 27.0229 19.966ZM28.4419 21V19.581L28.6509 18.294L28.4419 17.018V15.72H29.6519V21H28.4419ZM30.5987 20.34L33.5467 16.38H34.9657L32.0177 20.34H30.5987ZM30.5987 21V20.34L31.6987 19.9H34.8997V21H30.5987ZM30.7967 16.82V15.72H34.9657V16.38L33.8657 16.82H30.7967ZM38.0827 21.11C37.606 21.11 37.1734 20.989 36.7847 20.747C36.4034 20.505 36.099 20.1787 35.8717 19.768C35.6517 19.35 35.5417 18.8843 35.5417 18.371C35.5417 17.8503 35.6517 17.3847 35.8717 16.974C36.099 16.556 36.4034 16.226 36.7847 15.984C37.1734 15.7347 37.606 15.61 38.0827 15.61C38.486 15.61 38.8417 15.698 39.1497 15.874C39.465 16.0427 39.7144 16.2773 39.8977 16.578C40.081 16.8787 40.1727 17.2197 40.1727 17.601V19.119C40.1727 19.5003 40.081 19.8413 39.8977 20.142C39.7217 20.4427 39.476 20.681 39.1607 20.857C38.8454 21.0257 38.486 21.11 38.0827 21.11ZM38.2807 19.966C38.728 19.966 39.0874 19.8157 39.3587 19.515C39.6374 19.2143 39.7767 18.8293 39.7767 18.36C39.7767 18.0447 39.7144 17.766 39.5897 17.524C39.465 17.282 39.289 17.095 39.0617 16.963C38.8417 16.8237 38.5814 16.754 38.2807 16.754C37.9874 16.754 37.727 16.8237 37.4997 16.963C37.2797 17.095 37.1037 17.282 36.9717 17.524C36.847 17.766 36.7847 18.0447 36.7847 18.36C36.7847 18.6753 36.847 18.954 36.9717 19.196C37.1037 19.438 37.2797 19.6287 37.4997 19.768C37.727 19.9 37.9874 19.966 38.2807 19.966ZM39.6997 21V19.581L39.9087 18.294L39.6997 17.018V15.72H40.9097V21H39.6997ZM42.2525 21V15.72H43.4625V21H42.2525ZM43.4625 18.063L43.0445 17.854C43.0445 17.1867 43.1912 16.6477 43.4845 16.237C43.7852 15.819 44.2362 15.61 44.8375 15.61C45.1015 15.61 45.3399 15.6577 45.5525 15.753C45.7652 15.8483 45.9632 16.0023 46.1465 16.215L45.3545 17.029C45.2592 16.9263 45.1529 16.853 45.0355 16.809C44.9182 16.765 44.7825 16.743 44.6285 16.743C44.2912 16.743 44.0125 16.8493 43.7925 17.062C43.5725 17.2747 43.4625 17.6083 43.4625 18.063ZM48.7819 21.11C48.3052 21.11 47.8726 20.989 47.4839 20.747C47.1026 20.505 46.7982 20.1787 46.5709 19.768C46.3509 19.35 46.2409 18.8843 46.2409 18.371C46.2409 17.8503 46.3509 17.3847 46.5709 16.974C46.7982 16.556 47.1026 16.226 47.4839 15.984C47.8726 15.7347 48.3052 15.61 48.7819 15.61C49.1852 15.61 49.5409 15.698 49.8489 15.874C50.1642 16.0427 50.4136 16.2773 50.5969 16.578C50.7802 16.8787 50.8719 17.2197 50.8719 17.601V19.119C50.8719 19.5003 50.7802 19.8413 50.5969 20.142C50.4209 20.4427 50.1752 20.681 49.8599 20.857C49.5446 21.0257 49.1852 21.11 48.7819 21.11ZM48.9799 19.966C49.2806 19.966 49.5409 19.9 49.7609 19.768C49.9882 19.6287 50.1642 19.438 50.2889 19.196C50.4136 18.954 50.4759 18.6753 50.4759 18.36C50.4759 18.0447 50.4136 17.766 50.2889 17.524C50.1642 17.282 49.9882 17.095 49.7609 16.963C49.5409 16.8237 49.2806 16.754 48.9799 16.754C48.6866 16.754 48.4262 16.8237 48.1989 16.963C47.9789 17.095 47.8029 17.282 47.6709 17.524C47.5462 17.766 47.4839 18.0447 47.4839 18.36C47.4839 18.6753 47.5462 18.954 47.6709 19.196C47.8029 19.438 47.9789 19.6287 48.1989 19.768C48.4262 19.9 48.6866 19.966 48.9799 19.966ZM51.6089 21H50.3989V19.581L50.6079 18.294L50.3989 17.018V13.08H51.6089V21ZM55.3718 21.11C54.8584 21.11 54.3928 20.989 53.9748 20.747C53.5568 20.4977 53.2231 20.164 52.9738 19.746C52.7318 19.328 52.6108 18.8623 52.6108 18.349C52.6108 17.8357 52.7318 17.3737 52.9738 16.963C53.2231 16.5523 53.5568 16.226 53.9748 15.984C54.3928 15.7347 54.8584 15.61 55.3718 15.61C55.8924 15.61 56.3618 15.731 56.7798 15.973C57.1978 16.215 57.5278 16.545 57.7698 16.963C58.0191 17.3737 58.1438 17.8357 58.1438 18.349C58.1438 18.8623 58.0191 19.328 57.7698 19.746C57.5278 20.164 57.1978 20.4977 56.7798 20.747C56.3618 20.989 55.8924 21.11 55.3718 21.11ZM55.3718 19.944C55.6724 19.944 55.9364 19.878 56.1638 19.746C56.3984 19.6067 56.5781 19.416 56.7028 19.174C56.8348 18.932 56.9008 18.657 56.9008 18.349C56.9008 18.041 56.8348 17.7697 56.7028 17.535C56.5708 17.3003 56.3911 17.117 56.1638 16.985C55.9364 16.8457 55.6724 16.776 55.3718 16.776C55.0784 16.776 54.8144 16.8457 54.5798 16.985C54.3524 17.117 54.1728 17.3003 54.0408 17.535C53.9161 17.7697 53.8538 18.041 53.8538 18.349C53.8538 18.657 53.9161 18.932 54.0408 19.174C54.1728 19.416 54.3524 19.6067 54.5798 19.746C54.8144 19.878 55.0784 19.944 55.3718 19.944ZM61.317 21.11C60.8697 21.11 60.47 21.011 60.118 20.813C59.7733 20.615 59.502 20.3437 59.304 19.999C59.1133 19.647 59.018 19.2437 59.018 18.789V15.72H60.228V18.734C60.228 18.9907 60.2683 19.2107 60.349 19.394C60.437 19.57 60.5617 19.7057 60.723 19.801C60.8917 19.8963 61.0897 19.944 61.317 19.944C61.669 19.944 61.9367 19.8413 62.12 19.636C62.3107 19.4233 62.406 19.1227 62.406 18.734V15.72H63.616V18.789C63.616 19.251 63.517 19.658 63.319 20.01C63.1283 20.3547 62.8607 20.626 62.516 20.824C62.1713 21.0147 61.7717 21.11 61.317 21.11ZM66.5596 21.11C66.2663 21.11 65.984 21.0733 65.7126 21C65.4413 20.9193 65.192 20.8093 64.9646 20.67C64.7373 20.5233 64.5393 20.3473 64.3706 20.142L65.1406 19.372C65.324 19.5847 65.533 19.746 65.7676 19.856C66.0096 19.9587 66.281 20.01 66.5816 20.01C66.853 20.01 67.0583 19.9697 67.1976 19.889C67.337 19.8083 67.4066 19.691 67.4066 19.537C67.4066 19.3757 67.3406 19.251 67.2086 19.163C67.0766 19.075 66.9043 19.0017 66.6916 18.943C66.4863 18.877 66.2663 18.811 66.0316 18.745C65.8043 18.679 65.5843 18.591 65.3716 18.481C65.1663 18.3637 64.9976 18.206 64.8656 18.008C64.7336 17.81 64.6676 17.5533 64.6676 17.238C64.6676 16.9007 64.7446 16.611 64.8986 16.369C65.06 16.127 65.2836 15.94 65.5696 15.808C65.863 15.676 66.2113 15.61 66.6146 15.61C67.04 15.61 67.414 15.687 67.7366 15.841C68.0666 15.9877 68.3416 16.2113 68.5616 16.512L67.7916 17.282C67.6376 17.0913 67.4616 16.9483 67.2636 16.853C67.0656 16.7577 66.8383 16.71 66.5816 16.71C66.3396 16.71 66.1526 16.7467 66.0206 16.82C65.8886 16.8933 65.8226 16.9997 65.8226 17.139C65.8226 17.2857 65.8886 17.3993 66.0206 17.48C66.1526 17.5607 66.3213 17.6303 66.5266 17.689C66.7393 17.7477 66.9593 17.8137 67.1866 17.887C67.4213 17.953 67.6413 18.0483 67.8466 18.173C68.0593 18.2903 68.2316 18.4517 68.3636 18.657C68.4956 18.855 68.5616 19.1153 68.5616 19.438C68.5616 19.9513 68.382 20.3583 68.0226 20.659C67.6633 20.9597 67.1756 21.11 66.5596 21.11Z" fill="white"/>
<defs>
<filter id="filter0_d_17_154" x="0" y="0" width="85" height="44" filterUnits="userSpaceOnUse" color-interpolation-filters="sRGB">
<feFlood flood-opacity="0" result="BackgroundImageFix"/>
<feColorMatrix in="SourceAlpha" type="matrix" values="0 0 0 0 0 0 0 0 0 0 0 0 0 0 0 0 0 0 127 0" result="hardAlpha"/>
<feOffset dy="5"/>
<feGaussianBlur stdDeviation="5"/>
<feComposite in2="hardAlpha" operator="out"/>
<feColorMatrix type="matrix" values="0 0 0 0 0 0 0 0 0 0 0 0 0 0 0 0 0 0 0.15 0"/>
<feBlend mode="normal" in2="BackgroundImageFix" result="effect1_dropShadow_17_154"/>
<feBlend mode="normal" in="SourceGraphic" in2="effect1_dropShadow_17_154" result="shape"/>
</filter>
</defs>
</svg>
