<svg width="381" height="46" viewBox="0 0 381 46" fill="none" xmlns="http://www.w3.org/2000/svg">
<path d="M62.274 16.21C61.21 16.21 60.223 16.021 59.313 15.643C58.417 15.251 57.633 14.712 56.961 14.026C56.289 13.326 55.771 12.521 55.407 11.611C55.043 10.687 54.861 9.7 54.861 8.65C54.861 7.6 55.043 6.62 55.407 5.71C55.771 4.786 56.289 3.981 56.961 3.295C57.633 2.609 58.417 2.07 59.313 1.678C60.223 1.286 61.21 1.09 62.274 1.09C63.464 1.09 64.493 1.286 65.361 1.678C66.229 2.07 66.999 2.602 67.671 3.274L66.033 4.912C65.599 4.436 65.067 4.065 64.437 3.799C63.821 3.533 63.1 3.4 62.274 3.4C61.546 3.4 60.881 3.526 60.279 3.778C59.677 4.03 59.152 4.394 58.704 4.87C58.27 5.332 57.934 5.885 57.696 6.529C57.458 7.173 57.339 7.88 57.339 8.65C57.339 9.42 57.458 10.127 57.696 10.771C57.934 11.415 58.27 11.975 58.704 12.451C59.152 12.913 59.677 13.27 60.279 13.522C60.881 13.774 61.546 13.9 62.274 13.9C63.17 13.9 63.926 13.767 64.542 13.501C65.172 13.221 65.704 12.843 66.138 12.367L67.776 14.005C67.104 14.691 66.313 15.23 65.403 15.622C64.493 16.014 63.45 16.21 62.274 16.21ZM73.9283 16.21C72.9483 16.21 72.0593 15.979 71.2613 15.517C70.4633 15.041 69.8263 14.404 69.3503 13.606C68.8883 12.808 68.6573 11.919 68.6573 10.939C68.6573 9.959 68.8883 9.077 69.3503 8.293C69.8263 7.509 70.4633 6.886 71.2613 6.424C72.0593 5.948 72.9483 5.71 73.9283 5.71C74.9223 5.71 75.8183 5.941 76.6163 6.403C77.4143 6.865 78.0443 7.495 78.5063 8.293C78.9823 9.077 79.2203 9.959 79.2203 10.939C79.2203 11.919 78.9823 12.808 78.5063 13.606C78.0443 14.404 77.4143 15.041 76.6163 15.517C75.8183 15.979 74.9223 16.21 73.9283 16.21ZM73.9283 13.984C74.5023 13.984 75.0063 13.858 75.4403 13.606C75.8883 13.34 76.2313 12.976 76.4693 12.514C76.7213 12.052 76.8473 11.527 76.8473 10.939C76.8473 10.351 76.7213 9.833 76.4693 9.385C76.2173 8.937 75.8743 8.587 75.4403 8.335C75.0063 8.069 74.5023 7.936 73.9283 7.936C73.3683 7.936 72.8643 8.069 72.4163 8.335C71.9823 8.587 71.6393 8.937 71.3873 9.385C71.1493 9.833 71.0303 10.351 71.0303 10.939C71.0303 11.527 71.1493 12.052 71.3873 12.514C71.6393 12.976 71.9823 13.34 72.4163 13.606C72.8643 13.858 73.3683 13.984 73.9283 13.984ZM85.2784 16.21C84.4244 16.21 83.6614 16.021 82.9894 15.643C82.3314 15.265 81.8134 14.747 81.4354 14.089C81.0714 13.417 80.8894 12.647 80.8894 11.779V5.92H83.1994V11.674C83.1994 12.164 83.2764 12.584 83.4304 12.934C83.5984 13.27 83.8364 13.529 84.1444 13.711C84.4664 13.893 84.8444 13.984 85.2784 13.984C85.9504 13.984 86.4614 13.788 86.8114 13.396C87.1754 12.99 87.3574 12.416 87.3574 11.674V5.92H89.6674V11.779C89.6674 12.661 89.4784 13.438 89.1004 14.11C88.7364 14.768 88.2254 15.286 87.5674 15.664C86.9094 16.028 86.1464 16.21 85.2784 16.21ZM91.99 16V5.92H94.3V16H91.99ZM94.3 10.393L93.502 9.994C93.502 8.72 93.782 7.691 94.342 6.907C94.916 6.109 95.777 5.71 96.925 5.71C97.429 5.71 97.884 5.801 98.29 5.983C98.696 6.165 99.074 6.459 99.424 6.865L97.912 8.419C97.73 8.223 97.527 8.083 97.303 7.999C97.079 7.915 96.82 7.873 96.526 7.873C95.882 7.873 95.35 8.076 94.93 8.482C94.51 8.888 94.3 9.525 94.3 10.393ZM103.613 16.21C103.053 16.21 102.514 16.14 101.996 16C101.478 15.846 101.002 15.636 100.568 15.37C100.134 15.09 99.7562 14.754 99.4342 14.362L100.904 12.892C101.254 13.298 101.653 13.606 102.101 13.816C102.563 14.012 103.081 14.11 103.655 14.11C104.173 14.11 104.565 14.033 104.831 13.879C105.097 13.725 105.23 13.501 105.23 13.207C105.23 12.899 105.104 12.661 104.852 12.493C104.6 12.325 104.271 12.185 103.865 12.073C103.473 11.947 103.053 11.821 102.605 11.695C102.171 11.569 101.751 11.401 101.345 11.191C100.953 10.967 100.631 10.666 100.379 10.288C100.127 9.91 100.001 9.42 100.001 8.818C100.001 8.174 100.148 7.621 100.442 7.159C100.75 6.697 101.177 6.34 101.723 6.088C102.283 5.836 102.948 5.71 103.718 5.71C104.53 5.71 105.244 5.857 105.86 6.151C106.49 6.431 107.015 6.858 107.435 7.432L105.965 8.902C105.671 8.538 105.335 8.265 104.957 8.083C104.579 7.901 104.145 7.81 103.655 7.81C103.193 7.81 102.836 7.88 102.584 8.02C102.332 8.16 102.206 8.363 102.206 8.629C102.206 8.909 102.332 9.126 102.584 9.28C102.836 9.434 103.158 9.567 103.55 9.679C103.956 9.791 104.376 9.917 104.81 10.057C105.258 10.183 105.678 10.365 106.07 10.603C106.476 10.827 106.805 11.135 107.057 11.527C107.309 11.905 107.435 12.402 107.435 13.018C107.435 13.998 107.092 14.775 106.406 15.349C105.72 15.923 104.789 16.21 103.613 16.21ZM114.023 16.21C113.015 16.21 112.105 15.986 111.293 15.538C110.495 15.076 109.858 14.446 109.382 13.648C108.92 12.85 108.689 11.954 108.689 10.96C108.689 9.966 108.92 9.077 109.382 8.293C109.844 7.495 110.467 6.865 111.251 6.403C112.049 5.941 112.931 5.71 113.897 5.71C114.835 5.71 115.661 5.927 116.375 6.361C117.103 6.795 117.67 7.39 118.076 8.146C118.496 8.902 118.706 9.763 118.706 10.729C118.706 10.897 118.692 11.072 118.664 11.254C118.65 11.422 118.622 11.611 118.58 11.821H110.306V9.931H117.383L116.522 10.687C116.494 10.071 116.375 9.553 116.165 9.133C115.955 8.713 115.654 8.391 115.262 8.167C114.884 7.943 114.415 7.831 113.855 7.831C113.267 7.831 112.756 7.957 112.322 8.209C111.888 8.461 111.552 8.818 111.314 9.28C111.076 9.728 110.957 10.267 110.957 10.897C110.957 11.527 111.083 12.08 111.335 12.556C111.587 13.032 111.944 13.403 112.406 13.669C112.868 13.921 113.4 14.047 114.002 14.047C114.52 14.047 114.996 13.956 115.43 13.774C115.878 13.592 116.256 13.326 116.564 12.976L118.034 14.467C117.544 15.041 116.949 15.475 116.249 15.769C115.549 16.063 114.807 16.21 114.023 16.21ZM125.076 16V1.3H127.491V16H125.076ZM137.269 16V10.183C137.269 9.511 137.052 8.958 136.618 8.524C136.198 8.09 135.652 7.873 134.98 7.873C134.532 7.873 134.133 7.971 133.783 8.167C133.433 8.363 133.16 8.636 132.964 8.986C132.768 9.336 132.67 9.735 132.67 10.183L131.767 9.679C131.767 8.909 131.935 8.23 132.271 7.642C132.607 7.04 133.069 6.571 133.657 6.235C134.259 5.885 134.931 5.71 135.673 5.71C136.429 5.71 137.101 5.906 137.689 6.298C138.277 6.676 138.739 7.173 139.075 7.789C139.411 8.391 139.579 9.021 139.579 9.679V16H137.269ZM130.36 16V5.92H132.67V16H130.36ZM143.189 16V4.597C143.189 3.827 143.357 3.148 143.693 2.56C144.043 1.972 144.519 1.51 145.121 1.174C145.737 0.838 146.444 0.67 147.242 0.67C147.858 0.67 148.383 0.774999 148.817 0.984999C149.251 1.195 149.657 1.496 150.035 1.888L148.544 3.379C148.376 3.211 148.194 3.078 147.998 2.98C147.802 2.882 147.55 2.833 147.242 2.833C146.682 2.833 146.248 2.987 145.94 3.295C145.646 3.589 145.499 4.016 145.499 4.576V16H143.189ZM140.774 8.02V5.92H148.544V8.02H140.774ZM154.38 16.21C153.4 16.21 152.511 15.979 151.713 15.517C150.915 15.041 150.278 14.404 149.802 13.606C149.34 12.808 149.109 11.919 149.109 10.939C149.109 9.959 149.34 9.077 149.802 8.293C150.278 7.509 150.915 6.886 151.713 6.424C152.511 5.948 153.4 5.71 154.38 5.71C155.374 5.71 156.27 5.941 157.068 6.403C157.866 6.865 158.496 7.495 158.958 8.293C159.434 9.077 159.672 9.959 159.672 10.939C159.672 11.919 159.434 12.808 158.958 13.606C158.496 14.404 157.866 15.041 157.068 15.517C156.27 15.979 155.374 16.21 154.38 16.21ZM154.38 13.984C154.954 13.984 155.458 13.858 155.892 13.606C156.34 13.34 156.683 12.976 156.921 12.514C157.173 12.052 157.299 11.527 157.299 10.939C157.299 10.351 157.173 9.833 156.921 9.385C156.669 8.937 156.326 8.587 155.892 8.335C155.458 8.069 154.954 7.936 154.38 7.936C153.82 7.936 153.316 8.069 152.868 8.335C152.434 8.587 152.091 8.937 151.839 9.385C151.601 9.833 151.482 10.351 151.482 10.939C151.482 11.527 151.601 12.052 151.839 12.514C152.091 12.976 152.434 13.34 152.868 13.606C153.316 13.858 153.82 13.984 154.38 13.984ZM161.594 16V5.92H163.904V16H161.594ZM163.904 10.393L163.106 9.994C163.106 8.72 163.386 7.691 163.946 6.907C164.52 6.109 165.381 5.71 166.529 5.71C167.033 5.71 167.488 5.801 167.894 5.983C168.3 6.165 168.678 6.459 169.028 6.865L167.516 8.419C167.334 8.223 167.131 8.083 166.907 7.999C166.683 7.915 166.424 7.873 166.13 7.873C165.486 7.873 164.954 8.076 164.534 8.482C164.114 8.888 163.904 9.525 163.904 10.393ZM170.145 16V5.92H172.455V16H170.145ZM176.844 16V9.994C176.844 9.322 176.634 8.804 176.214 8.44C175.794 8.062 175.276 7.873 174.66 7.873C174.24 7.873 173.862 7.957 173.526 8.125C173.204 8.293 172.945 8.538 172.749 8.86C172.553 9.168 172.455 9.546 172.455 9.994L171.552 9.49C171.552 8.72 171.72 8.055 172.056 7.495C172.392 6.935 172.847 6.501 173.421 6.193C173.995 5.871 174.639 5.71 175.353 5.71C176.067 5.71 176.711 5.864 177.285 6.172C177.859 6.48 178.314 6.914 178.65 7.474C178.986 8.034 179.154 8.706 179.154 9.49V16H176.844ZM183.543 16V9.994C183.543 9.322 183.333 8.804 182.913 8.44C182.493 8.062 181.975 7.873 181.359 7.873C180.953 7.873 180.582 7.957 180.246 8.125C179.91 8.293 179.644 8.538 179.448 8.86C179.252 9.168 179.154 9.546 179.154 9.994L177.852 9.49C177.922 8.72 178.146 8.055 178.524 7.495C178.902 6.935 179.385 6.501 179.973 6.193C180.575 5.871 181.233 5.71 181.947 5.71C182.675 5.71 183.333 5.864 183.921 6.172C184.509 6.48 184.978 6.914 185.328 7.474C185.678 8.034 185.853 8.706 185.853 9.49V16H183.543ZM192.454 16.21C191.544 16.21 190.718 15.979 189.976 15.517C189.248 15.055 188.667 14.432 188.233 13.648C187.813 12.85 187.603 11.961 187.603 10.981C187.603 9.987 187.813 9.098 188.233 8.314C188.667 7.516 189.248 6.886 189.976 6.424C190.718 5.948 191.544 5.71 192.454 5.71C193.224 5.71 193.903 5.878 194.491 6.214C195.093 6.536 195.569 6.984 195.919 7.558C196.269 8.132 196.444 8.783 196.444 9.511V12.409C196.444 13.137 196.269 13.788 195.919 14.362C195.583 14.936 195.114 15.391 194.512 15.727C193.91 16.049 193.224 16.21 192.454 16.21ZM192.832 14.026C193.686 14.026 194.372 13.739 194.89 13.165C195.422 12.591 195.688 11.856 195.688 10.96C195.688 10.358 195.569 9.826 195.331 9.364C195.093 8.902 194.757 8.545 194.323 8.293C193.903 8.027 193.406 7.894 192.832 7.894C192.272 7.894 191.775 8.027 191.341 8.293C190.921 8.545 190.585 8.902 190.333 9.364C190.095 9.826 189.976 10.358 189.976 10.96C189.976 11.562 190.095 12.094 190.333 12.556C190.585 13.018 190.921 13.382 191.341 13.648C191.775 13.9 192.272 14.026 192.832 14.026ZM195.541 16V13.291L195.94 10.834L195.541 8.398V5.92H197.851V16H195.541ZM201.948 16V1.72H204.258V16H201.948ZM199.533 8.02V5.92H206.673V8.02H199.533ZM208.372 16V5.92H210.682V16H208.372ZM209.527 4.072C209.135 4.072 208.806 3.939 208.54 3.673C208.288 3.407 208.162 3.078 208.162 2.686C208.162 2.294 208.288 1.965 208.54 1.699C208.806 1.433 209.135 1.3 209.527 1.3C209.933 1.3 210.262 1.433 210.514 1.699C210.766 1.965 210.892 2.294 210.892 2.686C210.892 3.078 210.766 3.407 210.514 3.673C210.262 3.939 209.933 4.072 209.527 4.072ZM217.893 16.21C216.913 16.21 216.024 15.979 215.226 15.517C214.428 15.041 213.791 14.404 213.315 13.606C212.853 12.808 212.622 11.919 212.622 10.939C212.622 9.959 212.853 9.077 213.315 8.293C213.791 7.509 214.428 6.886 215.226 6.424C216.024 5.948 216.913 5.71 217.893 5.71C218.887 5.71 219.783 5.941 220.581 6.403C221.379 6.865 222.009 7.495 222.471 8.293C222.947 9.077 223.185 9.959 223.185 10.939C223.185 11.919 222.947 12.808 222.471 13.606C222.009 14.404 221.379 15.041 220.581 15.517C219.783 15.979 218.887 16.21 217.893 16.21ZM217.893 13.984C218.467 13.984 218.971 13.858 219.405 13.606C219.853 13.34 220.196 12.976 220.434 12.514C220.686 12.052 220.812 11.527 220.812 10.939C220.812 10.351 220.686 9.833 220.434 9.385C220.182 8.937 219.839 8.587 219.405 8.335C218.971 8.069 218.467 7.936 217.893 7.936C217.333 7.936 216.829 8.069 216.381 8.335C215.947 8.587 215.604 8.937 215.352 9.385C215.114 9.833 214.995 10.351 214.995 10.939C214.995 11.527 215.114 12.052 215.352 12.514C215.604 12.976 215.947 13.34 216.381 13.606C216.829 13.858 217.333 13.984 217.893 13.984ZM232.015 16V10.183C232.015 9.511 231.798 8.958 231.364 8.524C230.944 8.09 230.398 7.873 229.726 7.873C229.278 7.873 228.879 7.971 228.529 8.167C228.179 8.363 227.906 8.636 227.71 8.986C227.514 9.336 227.416 9.735 227.416 10.183L226.513 9.679C226.513 8.909 226.681 8.23 227.017 7.642C227.353 7.04 227.815 6.571 228.403 6.235C229.005 5.885 229.677 5.71 230.419 5.71C231.175 5.71 231.847 5.906 232.435 6.298C233.023 6.676 233.485 7.173 233.821 7.789C234.157 8.391 234.325 9.021 234.325 9.679V16H232.015ZM225.106 16V5.92H227.416V16H225.106Z" fill="#5307B4"/>
<g clip-path="url(#clip0_3_2)">
<path d="M29.6 7.88396C28.8399 7.24978 27.9481 6.79282 26.9894 6.54628C26.0307 6.29974 25.0291 6.2698 24.0573 6.45863L21.7053 7.03463C20.4779 7.25956 19.3682 7.90775 18.5694 8.86639C17.7706 9.82504 17.3332 11.0334 17.3333 12.2813V32.904C16.4492 33.0333 15.5509 33.0333 14.6667 32.904V12.2813C14.6711 11.045 14.2438 9.84584 13.4585 8.8909C12.6732 7.93596 11.5793 7.2851 10.3653 7.05063L7.86667 6.44263C6.90554 6.26675 5.91751 6.3043 4.9725 6.5526C4.0275 6.8009 3.14862 7.25389 2.39809 7.8795C1.64756 8.50511 1.04371 9.28806 0.62931 10.1729C0.214904 11.0578 6.50833e-05 12.0229 0 13L0 27.3906C7.66078e-05 28.9517 0.547969 30.4632 1.54818 31.6618C2.54839 32.8603 3.93748 33.6699 5.47333 33.9493L13.8547 35.4733C15.2733 35.7311 16.7267 35.7311 18.1453 35.4733L26.5333 33.9493C28.068 33.6685 29.4555 32.8583 30.4544 31.6599C31.4533 30.4615 32.0002 28.9507 32 27.3906V13C32.0006 12.0232 31.7859 11.0584 31.371 10.1741C30.9562 9.28981 30.3515 8.50788 29.6 7.88396Z" fill="url(#paint0_linear_3_2)"/>
</g>
<path opacity="0.5" d="M55.066 43V33.978H56.288V43H55.066ZM55.898 39.035V37.917H60.604V39.035H55.898ZM55.898 35.096V33.978H60.825V35.096H55.898ZM62.2343 43V36.825H63.4043V43H62.2343ZM62.8193 35.59C62.6026 35.59 62.4249 35.5207 62.2863 35.382C62.1476 35.2347 62.0783 35.0527 62.0783 34.836C62.0783 34.628 62.1476 34.4547 62.2863 34.316C62.4249 34.1687 62.6026 34.095 62.8193 34.095C63.0359 34.095 63.2136 34.1687 63.3523 34.316C63.4909 34.4547 63.5603 34.628 63.5603 34.836C63.5603 35.0527 63.4909 35.2347 63.3523 35.382C63.2136 35.5207 63.0359 35.59 62.8193 35.59ZM69.4965 43V39.399C69.4965 38.931 69.3492 38.5453 69.0545 38.242C68.7598 37.9387 68.3785 37.787 67.9105 37.787C67.5985 37.787 67.3212 37.8563 67.0785 37.995C66.8358 38.1337 66.6452 38.3243 66.5065 38.567C66.3678 38.8097 66.2985 39.087 66.2985 39.399L65.8175 39.126C65.8175 38.658 65.9215 38.242 66.1295 37.878C66.3375 37.514 66.6278 37.228 67.0005 37.02C67.3732 36.8033 67.7935 36.695 68.2615 36.695C68.7295 36.695 69.1412 36.812 69.4965 37.046C69.8605 37.28 70.1465 37.5877 70.3545 37.969C70.5625 38.3417 70.6665 38.7403 70.6665 39.165V43H69.4965ZM65.1285 43V36.825H66.2985V43H65.1285ZM74.8636 43.13C74.2916 43.13 73.7802 42.9913 73.3296 42.714C72.8789 42.428 72.5192 42.0423 72.2506 41.557C71.9906 41.0717 71.8606 40.5257 71.8606 39.919C71.8606 39.3123 71.9906 38.7663 72.2506 38.281C72.5192 37.7957 72.8789 37.41 73.3296 37.124C73.7802 36.838 74.2916 36.695 74.8636 36.695C75.3229 36.695 75.7389 36.7947 76.1116 36.994C76.4842 37.1847 76.7832 37.4533 77.0086 37.8C77.2426 38.138 77.3726 38.5323 77.3986 38.983V40.842C77.3726 41.284 77.2469 41.6783 77.0216 42.025C76.7962 42.3717 76.4972 42.6447 76.1246 42.844C75.7519 43.0347 75.3316 43.13 74.8636 43.13ZM75.0586 42.025C75.4486 42.025 75.7866 41.934 76.0726 41.752C76.3672 41.57 76.5969 41.323 76.7616 41.011C76.9262 40.6903 77.0086 40.3263 77.0086 39.919C77.0086 39.4943 76.9219 39.126 76.7486 38.814C76.5839 38.502 76.3542 38.255 76.0596 38.073C75.7736 37.891 75.4356 37.8 75.0456 37.8C74.6556 37.8 74.3132 37.891 74.0186 38.073C73.7239 38.255 73.4899 38.5063 73.3166 38.827C73.1519 39.139 73.0696 39.4987 73.0696 39.906C73.0696 40.322 73.1519 40.6903 73.3166 41.011C73.4899 41.323 73.7239 41.57 74.0186 41.752C74.3219 41.934 74.6686 42.025 75.0586 42.025ZM78.1136 43H76.9306V41.336L77.1516 39.828L76.9306 38.333V33.718H78.1136V43ZM83.4701 43V34.238H84.6401V43H83.4701ZM81.9491 37.891V36.825H86.1611V37.891H81.9491ZM91.6752 43V39.399C91.6752 38.931 91.5279 38.5453 91.2332 38.242C90.9386 37.9387 90.5572 37.787 90.0892 37.787C89.7772 37.787 89.4999 37.8563 89.2572 37.995C89.0146 38.1337 88.8239 38.3243 88.6852 38.567C88.5466 38.8097 88.4772 39.087 88.4772 39.399L87.9962 39.126C87.9962 38.658 88.1002 38.242 88.3082 37.878C88.5162 37.514 88.8066 37.228 89.1792 37.02C89.5519 36.8033 89.9722 36.695 90.4402 36.695C90.9082 36.695 91.3199 36.799 91.6752 37.007C92.0392 37.215 92.3252 37.5053 92.5332 37.878C92.7412 38.2507 92.8452 38.6797 92.8452 39.165V43H91.6752ZM87.3072 43V33.718H88.4772V43H87.3072ZM97.2893 43.13C96.674 43.13 96.1193 42.9913 95.6253 42.714C95.1313 42.428 94.7413 42.0423 94.4553 41.557C94.1693 41.0717 94.0263 40.5213 94.0263 39.906C94.0263 39.2993 94.165 38.7533 94.4423 38.268C94.7283 37.7827 95.1096 37.4013 95.5863 37.124C96.0716 36.838 96.6133 36.695 97.2113 36.695C97.7833 36.695 98.286 36.825 98.7193 37.085C99.1613 37.345 99.5036 37.7047 99.7463 38.164C99.9976 38.6233 100.123 39.1433 100.123 39.724C100.123 39.8107 100.119 39.906 100.11 40.01C100.102 40.1053 100.084 40.218 100.058 40.348H94.8453V39.373H99.4343L99.0053 39.75C99.0053 39.334 98.9316 38.983 98.7843 38.697C98.637 38.4023 98.429 38.177 98.1603 38.021C97.8916 37.8563 97.5666 37.774 97.1853 37.774C96.7866 37.774 96.4356 37.8607 96.1323 38.034C95.829 38.2073 95.595 38.45 95.4303 38.762C95.2656 39.074 95.1833 39.4423 95.1833 39.867C95.1833 40.3003 95.27 40.6817 95.4433 41.011C95.6166 41.3317 95.8636 41.583 96.1843 41.765C96.505 41.9383 96.8733 42.025 97.2893 42.025C97.636 42.025 97.9523 41.9643 98.2383 41.843C98.533 41.7217 98.7843 41.5397 98.9923 41.297L99.7463 42.064C99.4516 42.4107 99.0876 42.675 98.6543 42.857C98.2296 43.039 97.7746 43.13 97.2893 43.13ZM106.586 43.13C106.083 43.13 105.628 43.0173 105.221 42.792C104.822 42.558 104.51 42.2373 104.285 41.83C104.06 41.4227 103.947 40.9503 103.947 40.413V36.825H105.117V40.361C105.117 40.699 105.173 40.9937 105.286 41.245C105.407 41.4877 105.581 41.674 105.806 41.804C106.031 41.934 106.296 41.999 106.599 41.999C107.058 41.999 107.418 41.856 107.678 41.57C107.938 41.2753 108.068 40.8723 108.068 40.361V36.825H109.238V40.413C109.238 40.9503 109.125 41.4227 108.9 41.83C108.675 42.2373 108.363 42.558 107.964 42.792C107.574 43.0173 107.115 43.13 106.586 43.13ZM114.056 43.13C113.588 43.13 113.164 43.0347 112.782 42.844C112.41 42.6447 112.111 42.3717 111.885 42.025C111.66 41.6783 111.534 41.284 111.508 40.842V38.983C111.534 38.5323 111.66 38.138 111.885 37.8C112.119 37.4533 112.423 37.1847 112.795 36.994C113.177 36.7947 113.597 36.695 114.056 36.695C114.62 36.695 115.127 36.838 115.577 37.124C116.037 37.41 116.396 37.7957 116.656 38.281C116.916 38.7663 117.046 39.3123 117.046 39.919C117.046 40.5257 116.916 41.0717 116.656 41.557C116.396 42.0423 116.037 42.428 115.577 42.714C115.127 42.9913 114.62 43.13 114.056 43.13ZM113.861 42.025C114.251 42.025 114.594 41.934 114.888 41.752C115.183 41.57 115.417 41.323 115.59 41.011C115.764 40.6903 115.85 40.322 115.85 39.906C115.85 39.4987 115.764 39.1347 115.59 38.814C115.417 38.4933 115.183 38.2463 114.888 38.073C114.594 37.891 114.256 37.8 113.874 37.8C113.484 37.8 113.142 37.891 112.847 38.073C112.553 38.2463 112.323 38.4933 112.158 38.814C111.994 39.1347 111.911 39.503 111.911 39.919C111.911 40.3263 111.989 40.6903 112.145 41.011C112.31 41.323 112.54 41.57 112.834 41.752C113.138 41.934 113.48 42.025 113.861 42.025ZM110.806 45.587V36.825H111.976V38.45L111.755 39.945L111.976 41.453V45.587H110.806ZM120.986 43.13C120.414 43.13 119.902 42.9913 119.452 42.714C119.001 42.428 118.641 42.0423 118.373 41.557C118.113 41.0717 117.983 40.5257 117.983 39.919C117.983 39.3123 118.113 38.7663 118.373 38.281C118.641 37.7957 119.001 37.41 119.452 37.124C119.902 36.838 120.414 36.695 120.986 36.695C121.445 36.695 121.861 36.7947 122.234 36.994C122.606 37.1847 122.905 37.4533 123.131 37.8C123.365 38.138 123.495 38.5323 123.521 38.983V40.842C123.495 41.284 123.369 41.6783 123.144 42.025C122.918 42.3717 122.619 42.6447 122.247 42.844C121.874 43.0347 121.454 43.13 120.986 43.13ZM121.181 42.025C121.571 42.025 121.909 41.934 122.195 41.752C122.489 41.57 122.719 41.323 122.884 41.011C123.048 40.6903 123.131 40.3263 123.131 39.919C123.131 39.4943 123.044 39.126 122.871 38.814C122.706 38.502 122.476 38.255 122.182 38.073C121.896 37.891 121.558 37.8 121.168 37.8C120.778 37.8 120.435 37.891 120.141 38.073C119.846 38.255 119.612 38.5063 119.439 38.827C119.274 39.139 119.192 39.4987 119.192 39.906C119.192 40.322 119.274 40.6903 119.439 41.011C119.612 41.323 119.846 41.57 120.141 41.752C120.444 41.934 120.791 42.025 121.181 42.025ZM124.236 43H123.053V41.336L123.274 39.828L123.053 38.333V33.718H124.236V43ZM128.565 43.13C128.002 43.13 127.49 42.9913 127.031 42.714C126.572 42.428 126.208 42.0423 125.939 41.557C125.679 41.0717 125.549 40.5257 125.549 39.919C125.549 39.3123 125.679 38.7663 125.939 38.281C126.208 37.7957 126.567 37.41 127.018 37.124C127.477 36.838 127.993 36.695 128.565 36.695C129.033 36.695 129.449 36.7947 129.813 36.994C130.186 37.1847 130.485 37.4533 130.71 37.8C130.935 38.138 131.061 38.5323 131.087 38.983V40.842C131.061 41.284 130.935 41.6783 130.71 42.025C130.493 42.3717 130.199 42.6447 129.826 42.844C129.462 43.0347 129.042 43.13 128.565 43.13ZM128.76 42.025C129.341 42.025 129.809 41.83 130.164 41.44C130.519 41.0413 130.697 40.5343 130.697 39.919C130.697 39.4943 130.615 39.126 130.45 38.814C130.294 38.4933 130.069 38.2463 129.774 38.073C129.479 37.891 129.137 37.8 128.747 37.8C128.357 37.8 128.01 37.891 127.707 38.073C127.412 38.255 127.178 38.5063 127.005 38.827C126.84 39.139 126.758 39.4987 126.758 39.906C126.758 40.322 126.84 40.6903 127.005 41.011C127.178 41.323 127.417 41.57 127.72 41.752C128.023 41.934 128.37 42.025 128.76 42.025ZM130.619 43V41.336L130.84 39.828L130.619 38.333V36.825H131.802V43H130.619ZM134.429 43V34.238H135.599V43H134.429ZM132.908 37.891V36.825H137.12V37.891H132.908ZM140.936 43.13C140.32 43.13 139.766 42.9913 139.272 42.714C138.778 42.428 138.388 42.0423 138.102 41.557C137.816 41.0717 137.673 40.5213 137.673 39.906C137.673 39.2993 137.811 38.7533 138.089 38.268C138.375 37.7827 138.756 37.4013 139.233 37.124C139.718 36.838 140.26 36.695 140.858 36.695C141.43 36.695 141.932 36.825 142.366 37.085C142.808 37.345 143.15 37.7047 143.393 38.164C143.644 38.6233 143.77 39.1433 143.77 39.724C143.77 39.8107 143.765 39.906 143.757 40.01C143.748 40.1053 143.731 40.218 143.705 40.348H138.492V39.373H143.081L142.652 39.75C142.652 39.334 142.578 38.983 142.431 38.697C142.283 38.4023 142.075 38.177 141.807 38.021C141.538 37.8563 141.213 37.774 140.832 37.774C140.433 37.774 140.082 37.8607 139.779 38.034C139.475 38.2073 139.241 38.45 139.077 38.762C138.912 39.074 138.83 39.4423 138.83 39.867C138.83 40.3003 138.916 40.6817 139.09 41.011C139.263 41.3317 139.51 41.583 139.831 41.765C140.151 41.9383 140.52 42.025 140.936 42.025C141.282 42.025 141.599 41.9643 141.885 41.843C142.179 41.7217 142.431 41.5397 142.639 41.297L143.393 42.064C143.098 42.4107 142.734 42.675 142.301 42.857C141.876 43.039 141.421 43.13 140.936 43.13ZM147.659 43.13C147.087 43.13 146.575 42.9913 146.125 42.714C145.674 42.428 145.314 42.0423 145.045 41.557C144.786 41.0717 144.656 40.5257 144.656 39.919C144.656 39.3123 144.786 38.7663 145.045 38.281C145.314 37.7957 145.674 37.41 146.125 37.124C146.575 36.838 147.087 36.695 147.659 36.695C148.118 36.695 148.534 36.7947 148.907 36.994C149.279 37.1847 149.578 37.4533 149.804 37.8C150.038 38.138 150.168 38.5323 150.194 38.983V40.842C150.168 41.284 150.042 41.6783 149.817 42.025C149.591 42.3717 149.292 42.6447 148.92 42.844C148.547 43.0347 148.127 43.13 147.659 43.13ZM147.854 42.025C148.244 42.025 148.582 41.934 148.868 41.752C149.162 41.57 149.392 41.323 149.557 41.011C149.721 40.6903 149.804 40.3263 149.804 39.919C149.804 39.4943 149.717 39.126 149.544 38.814C149.379 38.502 149.149 38.255 148.855 38.073C148.569 37.891 148.231 37.8 147.841 37.8C147.451 37.8 147.108 37.891 146.814 38.073C146.519 38.255 146.285 38.5063 146.112 38.827C145.947 39.139 145.865 39.4987 145.865 39.906C145.865 40.322 145.947 40.6903 146.112 41.011C146.285 41.323 146.519 41.57 146.814 41.752C147.117 41.934 147.464 42.025 147.854 42.025ZM150.909 43H149.726V41.336L149.947 39.828L149.726 38.333V33.718H150.909V43ZM155.316 43V33.718H156.486V43H155.316ZM158.211 43V36.825H159.381V43H158.211ZM158.796 35.59C158.579 35.59 158.402 35.5207 158.263 35.382C158.124 35.2347 158.055 35.0527 158.055 34.836C158.055 34.628 158.124 34.4547 158.263 34.316C158.402 34.1687 158.579 34.095 158.796 34.095C159.013 34.095 159.19 34.1687 159.329 34.316C159.468 34.4547 159.537 34.628 159.537 34.836C159.537 35.0527 159.468 35.2347 159.329 35.382C159.19 35.5207 159.013 35.59 158.796 35.59ZM163.068 43.13C162.721 43.13 162.392 43.0867 162.08 43C161.777 42.9047 161.495 42.7747 161.235 42.61C160.975 42.4367 160.75 42.233 160.559 41.999L161.313 41.245C161.538 41.5223 161.798 41.7303 162.093 41.869C162.388 41.999 162.717 42.064 163.081 42.064C163.445 42.064 163.727 42.0033 163.926 41.882C164.125 41.752 164.225 41.5743 164.225 41.349C164.225 41.1237 164.143 40.9503 163.978 40.829C163.822 40.699 163.618 40.595 163.367 40.517C163.116 40.4303 162.847 40.348 162.561 40.27C162.284 40.1833 162.019 40.075 161.768 39.945C161.517 39.815 161.309 39.6373 161.144 39.412C160.988 39.1867 160.91 38.8877 160.91 38.515C160.91 38.1423 161.001 37.8217 161.183 37.553C161.365 37.2757 161.616 37.0633 161.937 36.916C162.266 36.7687 162.661 36.695 163.12 36.695C163.605 36.695 164.034 36.7817 164.407 36.955C164.788 37.1197 165.1 37.371 165.343 37.709L164.589 38.463C164.416 38.2377 164.199 38.0643 163.939 37.943C163.688 37.8217 163.402 37.761 163.081 37.761C162.743 37.761 162.483 37.8217 162.301 37.943C162.128 38.0557 162.041 38.216 162.041 38.424C162.041 38.632 162.119 38.7923 162.275 38.905C162.431 39.0177 162.635 39.113 162.886 39.191C163.146 39.269 163.415 39.3513 163.692 39.438C163.969 39.516 164.234 39.6243 164.485 39.763C164.736 39.9017 164.94 40.088 165.096 40.322C165.261 40.556 165.343 40.8637 165.343 41.245C165.343 41.8257 165.135 42.285 164.719 42.623C164.312 42.961 163.761 43.13 163.068 43.13ZM167.602 43V34.238H168.772V43H167.602ZM166.081 37.891V36.825H170.293V37.891H166.081ZM176.964 43.13C176.357 43.13 175.811 42.987 175.326 42.701C174.841 42.415 174.455 42.0293 174.169 41.544C173.883 41.05 173.74 40.4997 173.74 39.893C173.74 39.295 173.883 38.7577 174.169 38.281C174.455 37.7957 174.841 37.41 175.326 37.124C175.811 36.838 176.357 36.695 176.964 36.695C177.562 36.695 178.104 36.838 178.589 37.124C179.083 37.4013 179.473 37.7827 179.759 38.268C180.045 38.7533 180.188 39.295 180.188 39.893C180.188 40.4997 180.045 41.05 179.759 41.544C179.473 42.0293 179.083 42.415 178.589 42.701C178.104 42.987 177.562 43.13 176.964 43.13ZM176.964 41.999C177.354 41.999 177.701 41.908 178.004 41.726C178.307 41.544 178.546 41.297 178.719 40.985C178.892 40.6643 178.979 40.3003 178.979 39.893C178.979 39.4943 178.888 39.139 178.706 38.827C178.533 38.515 178.294 38.2723 177.991 38.099C177.696 37.917 177.354 37.826 176.964 37.826C176.574 37.826 176.227 37.917 175.924 38.099C175.621 38.2723 175.382 38.515 175.209 38.827C175.036 39.139 174.949 39.4943 174.949 39.893C174.949 40.3003 175.036 40.6643 175.209 40.985C175.382 41.297 175.621 41.544 175.924 41.726C176.227 41.908 176.574 41.999 176.964 41.999ZM182.2 43V35.902C182.2 35.4427 182.3 35.044 182.499 34.706C182.698 34.3593 182.971 34.0863 183.318 33.887C183.673 33.6877 184.085 33.588 184.553 33.588C184.908 33.588 185.216 33.6487 185.476 33.77C185.736 33.8913 185.974 34.069 186.191 34.303L185.424 35.057C185.311 34.9357 185.186 34.8447 185.047 34.784C184.908 34.7147 184.739 34.68 184.54 34.68C184.167 34.68 183.877 34.7883 183.669 35.005C183.47 35.2217 183.37 35.5207 183.37 35.902V43H182.2ZM180.679 37.891V36.825H185.333V37.891H180.679ZM192.033 43.13C191.427 43.13 190.876 42.987 190.382 42.701C189.897 42.415 189.511 42.0293 189.225 41.544C188.948 41.05 188.809 40.504 188.809 39.906C188.809 39.2993 188.948 38.7533 189.225 38.268C189.511 37.7827 189.897 37.4013 190.382 37.124C190.876 36.838 191.427 36.695 192.033 36.695C192.51 36.695 192.952 36.786 193.359 36.968C193.767 37.1413 194.118 37.397 194.412 37.735L193.632 38.515C193.442 38.2897 193.208 38.1207 192.93 38.008C192.662 37.8867 192.363 37.826 192.033 37.826C191.643 37.826 191.297 37.917 190.993 38.099C190.69 38.2723 190.452 38.515 190.278 38.827C190.105 39.139 190.018 39.4987 190.018 39.906C190.018 40.3133 190.105 40.673 190.278 40.985C190.452 41.297 190.69 41.544 190.993 41.726C191.297 41.908 191.643 41.999 192.033 41.999C192.363 41.999 192.662 41.9427 192.93 41.83C193.208 41.7087 193.446 41.5353 193.645 41.31L194.412 42.09C194.126 42.4193 193.775 42.675 193.359 42.857C192.952 43.039 192.51 43.13 192.033 43.13ZM198.267 43.13C197.66 43.13 197.114 42.987 196.629 42.701C196.144 42.415 195.758 42.0293 195.472 41.544C195.186 41.05 195.043 40.4997 195.043 39.893C195.043 39.295 195.186 38.7577 195.472 38.281C195.758 37.7957 196.144 37.41 196.629 37.124C197.114 36.838 197.66 36.695 198.267 36.695C198.865 36.695 199.407 36.838 199.892 37.124C200.386 37.4013 200.776 37.7827 201.062 38.268C201.348 38.7533 201.491 39.295 201.491 39.893C201.491 40.4997 201.348 41.05 201.062 41.544C200.776 42.0293 200.386 42.415 199.892 42.701C199.407 42.987 198.865 43.13 198.267 43.13ZM198.267 41.999C198.657 41.999 199.004 41.908 199.307 41.726C199.61 41.544 199.849 41.297 200.022 40.985C200.195 40.6643 200.282 40.3003 200.282 39.893C200.282 39.4943 200.191 39.139 200.009 38.827C199.836 38.515 199.597 38.2723 199.294 38.099C198.999 37.917 198.657 37.826 198.267 37.826C197.877 37.826 197.53 37.917 197.227 38.099C196.924 38.2723 196.685 38.515 196.512 38.827C196.339 39.139 196.252 39.4943 196.252 39.893C196.252 40.3003 196.339 40.6643 196.512 40.985C196.685 41.297 196.924 41.544 197.227 41.726C197.53 41.908 197.877 41.999 198.267 41.999ZM205.292 43.13C204.79 43.13 204.335 43.0173 203.927 42.792C203.529 42.558 203.217 42.2373 202.991 41.83C202.766 41.4227 202.653 40.9503 202.653 40.413V36.825H203.823V40.361C203.823 40.699 203.88 40.9937 203.992 41.245C204.114 41.4877 204.287 41.674 204.512 41.804C204.738 41.934 205.002 41.999 205.305 41.999C205.765 41.999 206.124 41.856 206.384 41.57C206.644 41.2753 206.774 40.8723 206.774 40.361V36.825H207.944V40.413C207.944 40.9503 207.832 41.4227 207.606 41.83C207.381 42.2373 207.069 42.558 206.67 42.792C206.28 43.0173 205.821 43.13 205.292 43.13ZM209.512 43V36.825H210.682V43H209.512ZM210.682 39.477L210.24 39.282C210.24 38.4933 210.422 37.865 210.786 37.397C211.15 36.929 211.675 36.695 212.359 36.695C212.671 36.695 212.953 36.7513 213.204 36.864C213.456 36.968 213.69 37.1457 213.906 37.397L213.139 38.19C213.009 38.0513 212.866 37.9517 212.71 37.891C212.554 37.8303 212.372 37.8 212.164 37.8C211.731 37.8 211.376 37.9387 211.098 38.216C210.821 38.4933 210.682 38.9137 210.682 39.477ZM216.553 43.13C216.207 43.13 215.877 43.0867 215.565 43C215.262 42.9047 214.98 42.7747 214.72 42.61C214.46 42.4367 214.235 42.233 214.044 41.999L214.798 41.245C215.024 41.5223 215.284 41.7303 215.578 41.869C215.873 41.999 216.202 42.064 216.566 42.064C216.93 42.064 217.212 42.0033 217.411 41.882C217.611 41.752 217.71 41.5743 217.71 41.349C217.71 41.1237 217.628 40.9503 217.463 40.829C217.307 40.699 217.104 40.595 216.852 40.517C216.601 40.4303 216.332 40.348 216.046 40.27C215.769 40.1833 215.505 40.075 215.253 39.945C215.002 39.815 214.794 39.6373 214.629 39.412C214.473 39.1867 214.395 38.8877 214.395 38.515C214.395 38.1423 214.486 37.8217 214.668 37.553C214.85 37.2757 215.102 37.0633 215.422 36.916C215.752 36.7687 216.146 36.695 216.605 36.695C217.091 36.695 217.52 36.7817 217.892 36.955C218.274 37.1197 218.586 37.371 218.828 37.709L218.074 38.463C217.901 38.2377 217.684 38.0643 217.424 37.943C217.173 37.8217 216.887 37.761 216.566 37.761C216.228 37.761 215.968 37.8217 215.786 37.943C215.613 38.0557 215.526 38.216 215.526 38.424C215.526 38.632 215.604 38.7923 215.76 38.905C215.916 39.0177 216.12 39.113 216.371 39.191C216.631 39.269 216.9 39.3513 217.177 39.438C217.455 39.516 217.719 39.6243 217.97 39.763C218.222 39.9017 218.425 40.088 218.581 40.322C218.746 40.556 218.828 40.8637 218.828 41.245C218.828 41.8257 218.62 42.285 218.204 42.623C217.797 42.961 217.247 43.13 216.553 43.13ZM222.998 43.13C222.383 43.13 221.828 42.9913 221.334 42.714C220.84 42.428 220.45 42.0423 220.164 41.557C219.878 41.0717 219.735 40.5213 219.735 39.906C219.735 39.2993 219.874 38.7533 220.151 38.268C220.437 37.7827 220.819 37.4013 221.295 37.124C221.781 36.838 222.322 36.695 222.92 36.695C223.492 36.695 223.995 36.825 224.428 37.085C224.87 37.345 225.213 37.7047 225.455 38.164C225.707 38.6233 225.832 39.1433 225.832 39.724C225.832 39.8107 225.828 39.906 225.819 40.01C225.811 40.1053 225.793 40.218 225.767 40.348H220.554V39.373H225.143L224.714 39.75C224.714 39.334 224.641 38.983 224.493 38.697C224.346 38.4023 224.138 38.177 223.869 38.021C223.601 37.8563 223.276 37.774 222.894 37.774C222.496 37.774 222.145 37.8607 221.841 38.034C221.538 38.2073 221.304 38.45 221.139 38.762C220.975 39.074 220.892 39.4423 220.892 39.867C220.892 40.3003 220.979 40.6817 221.152 41.011C221.326 41.3317 221.573 41.583 221.893 41.765C222.214 41.9383 222.582 42.025 222.998 42.025C223.345 42.025 223.661 41.9643 223.947 41.843C224.242 41.7217 224.493 41.5397 224.701 41.297L225.455 42.064C225.161 42.4107 224.797 42.675 224.363 42.857C223.939 43.039 223.484 43.13 222.998 43.13ZM229.071 43.13C228.724 43.13 228.395 43.0867 228.083 43C227.78 42.9047 227.498 42.7747 227.238 42.61C226.978 42.4367 226.753 42.233 226.562 41.999L227.316 41.245C227.541 41.5223 227.801 41.7303 228.096 41.869C228.391 41.999 228.72 42.064 229.084 42.064C229.448 42.064 229.73 42.0033 229.929 41.882C230.128 41.752 230.228 41.5743 230.228 41.349C230.228 41.1237 230.146 40.9503 229.981 40.829C229.825 40.699 229.621 40.595 229.37 40.517C229.119 40.4303 228.85 40.348 228.564 40.27C228.287 40.1833 228.022 40.075 227.771 39.945C227.52 39.815 227.312 39.6373 227.147 39.412C226.991 39.1867 226.913 38.8877 226.913 38.515C226.913 38.1423 227.004 37.8217 227.186 37.553C227.368 37.2757 227.619 37.0633 227.94 36.916C228.269 36.7687 228.664 36.695 229.123 36.695C229.608 36.695 230.037 36.7817 230.41 36.955C230.791 37.1197 231.103 37.371 231.346 37.709L230.592 38.463C230.419 38.2377 230.202 38.0643 229.942 37.943C229.691 37.8217 229.405 37.761 229.084 37.761C228.746 37.761 228.486 37.8217 228.304 37.943C228.131 38.0557 228.044 38.216 228.044 38.424C228.044 38.632 228.122 38.7923 228.278 38.905C228.434 39.0177 228.638 39.113 228.889 39.191C229.149 39.269 229.418 39.3513 229.695 39.438C229.972 39.516 230.237 39.6243 230.488 39.763C230.739 39.9017 230.943 40.088 231.099 40.322C231.264 40.556 231.346 40.8637 231.346 41.245C231.346 41.8257 231.138 42.285 230.722 42.623C230.315 42.961 229.764 43.13 229.071 43.13ZM237.986 43.13C237.423 43.13 236.911 42.9913 236.452 42.714C235.993 42.428 235.629 42.0423 235.36 41.557C235.1 41.0717 234.97 40.5257 234.97 39.919C234.97 39.3123 235.1 38.7663 235.36 38.281C235.629 37.7957 235.988 37.41 236.439 37.124C236.898 36.838 237.414 36.695 237.986 36.695C238.454 36.695 238.87 36.7947 239.234 36.994C239.607 37.1847 239.906 37.4533 240.131 37.8C240.356 38.138 240.482 38.5323 240.508 38.983V40.842C240.482 41.284 240.356 41.6783 240.131 42.025C239.914 42.3717 239.62 42.6447 239.247 42.844C238.883 43.0347 238.463 43.13 237.986 43.13ZM238.181 42.025C238.762 42.025 239.23 41.83 239.585 41.44C239.94 41.0413 240.118 40.5343 240.118 39.919C240.118 39.4943 240.036 39.126 239.871 38.814C239.715 38.4933 239.49 38.2463 239.195 38.073C238.9 37.891 238.558 37.8 238.168 37.8C237.778 37.8 237.431 37.891 237.128 38.073C236.833 38.255 236.599 38.5063 236.426 38.827C236.261 39.139 236.179 39.4987 236.179 39.906C236.179 40.322 236.261 40.6903 236.426 41.011C236.599 41.323 236.838 41.57 237.141 41.752C237.444 41.934 237.791 42.025 238.181 42.025ZM240.04 43V41.336L240.261 39.828L240.04 38.333V36.825H241.223V43H240.04ZM245.045 43L242.211 36.825H243.511L245.786 42.038H245.032L247.32 36.825H248.568L245.734 43H245.045ZM251.951 43.13C251.387 43.13 250.876 42.9913 250.417 42.714C249.957 42.428 249.593 42.0423 249.325 41.557C249.065 41.0717 248.935 40.5257 248.935 39.919C248.935 39.3123 249.065 38.7663 249.325 38.281C249.593 37.7957 249.953 37.41 250.404 37.124C250.863 36.838 251.379 36.695 251.951 36.695C252.419 36.695 252.835 36.7947 253.199 36.994C253.571 37.1847 253.87 37.4533 254.096 37.8C254.321 38.138 254.447 38.5323 254.473 38.983V40.842C254.447 41.284 254.321 41.6783 254.096 42.025C253.879 42.3717 253.584 42.6447 253.212 42.844C252.848 43.0347 252.427 43.13 251.951 43.13ZM252.146 42.025C252.726 42.025 253.194 41.83 253.55 41.44C253.905 41.0413 254.083 40.5343 254.083 39.919C254.083 39.4943 254 39.126 253.836 38.814C253.68 38.4933 253.454 38.2463 253.16 38.073C252.865 37.891 252.523 37.8 252.133 37.8C251.743 37.8 251.396 37.891 251.093 38.073C250.798 38.255 250.564 38.5063 250.391 38.827C250.226 39.139 250.144 39.4987 250.144 39.906C250.144 40.322 250.226 40.6903 250.391 41.011C250.564 41.323 250.802 41.57 251.106 41.752C251.409 41.934 251.756 42.025 252.146 42.025ZM254.005 43V41.336L254.226 39.828L254.005 38.333V36.825H255.188V43H254.005ZM256.904 43V36.825H258.074V43H256.904ZM257.489 35.59C257.273 35.59 257.095 35.5207 256.956 35.382C256.818 35.2347 256.748 35.0527 256.748 34.836C256.748 34.628 256.818 34.4547 256.956 34.316C257.095 34.1687 257.273 34.095 257.489 34.095C257.706 34.095 257.884 34.1687 258.022 34.316C258.161 34.4547 258.23 34.628 258.23 34.836C258.23 35.0527 258.161 35.2347 258.022 35.382C257.884 35.5207 257.706 35.59 257.489 35.59ZM259.798 43V33.718H260.968V43H259.798ZM265.306 43.13C264.743 43.13 264.232 42.9913 263.772 42.714C263.313 42.428 262.949 42.0423 262.68 41.557C262.42 41.0717 262.29 40.5257 262.29 39.919C262.29 39.3123 262.42 38.7663 262.68 38.281C262.949 37.7957 263.309 37.41 263.759 37.124C264.219 36.838 264.734 36.695 265.306 36.695C265.774 36.695 266.19 36.7947 266.554 36.994C266.927 37.1847 267.226 37.4533 267.451 37.8C267.677 38.138 267.802 38.5323 267.828 38.983V40.842C267.802 41.284 267.677 41.6783 267.451 42.025C267.235 42.3717 266.94 42.6447 266.567 42.844C266.203 43.0347 265.783 43.13 265.306 43.13ZM265.501 42.025C266.082 42.025 266.55 41.83 266.905 41.44C267.261 41.0413 267.438 40.5343 267.438 39.919C267.438 39.4943 267.356 39.126 267.191 38.814C267.035 38.4933 266.81 38.2463 266.515 38.073C266.221 37.891 265.878 37.8 265.488 37.8C265.098 37.8 264.752 37.891 264.448 38.073C264.154 38.255 263.92 38.5063 263.746 38.827C263.582 39.139 263.499 39.4987 263.499 39.906C263.499 40.322 263.582 40.6903 263.746 41.011C263.92 41.323 264.158 41.57 264.461 41.752C264.765 41.934 265.111 42.025 265.501 42.025ZM267.36 43V41.336L267.581 39.828L267.36 38.333V36.825H268.543V43H267.36ZM273.497 43.13C273.029 43.13 272.604 43.0347 272.223 42.844C271.85 42.6447 271.551 42.3717 271.326 42.025C271.1 41.6783 270.975 41.284 270.949 40.842V38.983C270.975 38.5323 271.1 38.138 271.326 37.8C271.56 37.4533 271.863 37.1847 272.236 36.994C272.617 36.7947 273.037 36.695 273.497 36.695C274.06 36.695 274.567 36.838 275.018 37.124C275.477 37.41 275.837 37.7957 276.097 38.281C276.357 38.7663 276.487 39.3123 276.487 39.919C276.487 40.5257 276.357 41.0717 276.097 41.557C275.837 42.0423 275.477 42.428 275.018 42.714C274.567 42.9913 274.06 43.13 273.497 43.13ZM273.302 42.025C273.692 42.025 274.034 41.934 274.329 41.752C274.623 41.57 274.857 41.323 275.031 41.011C275.204 40.6903 275.291 40.322 275.291 39.906C275.291 39.4987 275.204 39.1347 275.031 38.814C274.857 38.4933 274.623 38.2463 274.329 38.073C274.034 37.891 273.696 37.8 273.315 37.8C272.925 37.8 272.582 37.891 272.288 38.073C271.993 38.2463 271.763 38.4933 271.599 38.814C271.434 39.1347 271.352 39.503 271.352 39.919C271.352 40.3263 271.43 40.6903 271.586 41.011C271.75 41.323 271.98 41.57 272.275 41.752C272.578 41.934 272.92 42.025 273.302 42.025ZM270.247 43V33.718H271.417V38.333L271.196 39.828L271.417 41.336V43H270.247ZM277.813 43V33.718H278.983V43H277.813ZM283.555 43.13C282.94 43.13 282.385 42.9913 281.891 42.714C281.397 42.428 281.007 42.0423 280.721 41.557C280.435 41.0717 280.292 40.5213 280.292 39.906C280.292 39.2993 280.431 38.7533 280.708 38.268C280.994 37.7827 281.375 37.4013 281.852 37.124C282.337 36.838 282.879 36.695 283.477 36.695C284.049 36.695 284.552 36.825 284.985 37.085C285.427 37.345 285.769 37.7047 286.012 38.164C286.263 38.6233 286.389 39.1433 286.389 39.724C286.389 39.8107 286.385 39.906 286.376 40.01C286.367 40.1053 286.35 40.218 286.324 40.348H281.111V39.373H285.7L285.271 39.75C285.271 39.334 285.197 38.983 285.05 38.697C284.903 38.4023 284.695 38.177 284.426 38.021C284.157 37.8563 283.832 37.774 283.451 37.774C283.052 37.774 282.701 37.8607 282.398 38.034C282.095 38.2073 281.861 38.45 281.696 38.762C281.531 39.074 281.449 39.4423 281.449 39.867C281.449 40.3003 281.536 40.6817 281.709 41.011C281.882 41.3317 282.129 41.583 282.45 41.765C282.771 41.9383 283.139 42.025 283.555 42.025C283.902 42.025 284.218 41.9643 284.504 41.843C284.799 41.7217 285.05 41.5397 285.258 41.297L286.012 42.064C285.717 42.4107 285.353 42.675 284.92 42.857C284.495 43.039 284.04 43.13 283.555 43.13ZM290.382 43V36.825H291.552V43H290.382ZM290.967 35.59C290.75 35.59 290.572 35.5207 290.434 35.382C290.295 35.2347 290.226 35.0527 290.226 34.836C290.226 34.628 290.295 34.4547 290.434 34.316C290.572 34.1687 290.75 34.095 290.967 34.095C291.183 34.095 291.361 34.1687 291.5 34.316C291.638 34.4547 291.708 34.628 291.708 34.836C291.708 35.0527 291.638 35.2347 291.5 35.382C291.361 35.5207 291.183 35.59 290.967 35.59ZM297.644 43V39.399C297.644 38.931 297.497 38.5453 297.202 38.242C296.907 37.9387 296.526 37.787 296.058 37.787C295.746 37.787 295.469 37.8563 295.226 37.995C294.983 38.1337 294.793 38.3243 294.654 38.567C294.515 38.8097 294.446 39.087 294.446 39.399L293.965 39.126C293.965 38.658 294.069 38.242 294.277 37.878C294.485 37.514 294.775 37.228 295.148 37.02C295.521 36.8033 295.941 36.695 296.409 36.695C296.877 36.695 297.289 36.812 297.644 37.046C298.008 37.28 298.294 37.5877 298.502 37.969C298.71 38.3417 298.814 38.7403 298.814 39.165V43H297.644ZM293.276 43V36.825H294.446V43H293.276ZM304.051 43V34.238H305.221V43H304.051ZM302.53 37.891V36.825H306.742V37.891H302.53ZM312.256 43V39.399C312.256 38.931 312.109 38.5453 311.814 38.242C311.52 37.9387 311.138 37.787 310.67 37.787C310.358 37.787 310.081 37.8563 309.838 37.995C309.596 38.1337 309.405 38.3243 309.266 38.567C309.128 38.8097 309.058 39.087 309.058 39.399L308.577 39.126C308.577 38.658 308.681 38.242 308.889 37.878C309.097 37.514 309.388 37.228 309.76 37.02C310.133 36.8033 310.553 36.695 311.021 36.695C311.489 36.695 311.901 36.799 312.256 37.007C312.62 37.215 312.906 37.5053 313.114 37.878C313.322 38.2507 313.426 38.6797 313.426 39.165V43H312.256ZM307.888 43V33.718H309.058V43H307.888ZM315.023 43V36.825H316.193V43H315.023ZM315.608 35.59C315.392 35.59 315.214 35.5207 315.075 35.382C314.937 35.2347 314.867 35.0527 314.867 34.836C314.867 34.628 314.937 34.4547 315.075 34.316C315.214 34.1687 315.392 34.095 315.608 34.095C315.825 34.095 316.003 34.1687 316.141 34.316C316.28 34.4547 316.349 34.628 316.349 34.836C316.349 35.0527 316.28 35.2347 316.141 35.382C316.003 35.5207 315.825 35.59 315.608 35.59ZM319.881 43.13C319.534 43.13 319.205 43.0867 318.893 43C318.589 42.9047 318.308 42.7747 318.048 42.61C317.788 42.4367 317.562 42.233 317.372 41.999L318.126 41.245C318.351 41.5223 318.611 41.7303 318.906 41.869C319.2 41.999 319.53 42.064 319.894 42.064C320.258 42.064 320.539 42.0033 320.739 41.882C320.938 41.752 321.038 41.5743 321.038 41.349C321.038 41.1237 320.955 40.9503 320.791 40.829C320.635 40.699 320.431 40.595 320.18 40.517C319.928 40.4303 319.66 40.348 319.374 40.27C319.096 40.1833 318.832 40.075 318.581 39.945C318.329 39.815 318.121 39.6373 317.957 39.412C317.801 39.1867 317.723 38.8877 317.723 38.515C317.723 38.1423 317.814 37.8217 317.996 37.553C318.178 37.2757 318.429 37.0633 318.75 36.916C319.079 36.7687 319.473 36.695 319.933 36.695C320.418 36.695 320.847 36.7817 321.22 36.955C321.601 37.1197 321.913 37.371 322.156 37.709L321.402 38.463C321.228 38.2377 321.012 38.0643 320.752 37.943C320.5 37.8217 320.214 37.761 319.894 37.761C319.556 37.761 319.296 37.8217 319.114 37.943C318.94 38.0557 318.854 38.216 318.854 38.424C318.854 38.632 318.932 38.7923 319.088 38.905C319.244 39.0177 319.447 39.113 319.699 39.191C319.959 39.269 320.227 39.3513 320.505 39.438C320.782 39.516 321.046 39.6243 321.298 39.763C321.549 39.9017 321.753 40.088 321.909 40.322C322.073 40.556 322.156 40.8637 322.156 41.245C322.156 41.8257 321.948 42.285 321.532 42.623C321.124 42.961 320.574 43.13 319.881 43.13ZM328.653 43.13C328.15 43.13 327.695 43.0173 327.288 42.792C326.889 42.558 326.577 42.2373 326.352 41.83C326.126 41.4227 326.014 40.9503 326.014 40.413V36.825H327.184V40.361C327.184 40.699 327.24 40.9937 327.353 41.245C327.474 41.4877 327.647 41.674 327.873 41.804C328.098 41.934 328.362 41.999 328.666 41.999C329.125 41.999 329.485 41.856 329.745 41.57C330.005 41.2753 330.135 40.8723 330.135 40.361V36.825H331.305V40.413C331.305 40.9503 331.192 41.4227 330.967 41.83C330.741 42.2373 330.429 42.558 330.031 42.792C329.641 43.0173 329.181 43.13 328.653 43.13ZM337.241 43V39.399C337.241 38.931 337.093 38.5453 336.799 38.242C336.504 37.9387 336.123 37.787 335.655 37.787C335.343 37.787 335.065 37.8563 334.823 37.995C334.58 38.1337 334.389 38.3243 334.251 38.567C334.112 38.8097 334.043 39.087 334.043 39.399L333.562 39.126C333.562 38.658 333.666 38.242 333.874 37.878C334.082 37.514 334.372 37.228 334.745 37.02C335.117 36.8033 335.538 36.695 336.006 36.695C336.474 36.695 336.885 36.812 337.241 37.046C337.605 37.28 337.891 37.5877 338.099 37.969C338.307 38.3417 338.411 38.7403 338.411 39.165V43H337.241ZM332.873 43V36.825H334.043V43H332.873ZM340.008 43V36.825H341.178V43H340.008ZM340.593 35.59C340.376 35.59 340.198 35.5207 340.06 35.382C339.921 35.2347 339.852 35.0527 339.852 34.836C339.852 34.628 339.921 34.4547 340.06 34.316C340.198 34.1687 340.376 34.095 340.593 34.095C340.809 34.095 340.987 34.1687 341.126 34.316C341.264 34.4547 341.334 34.628 341.334 34.836C341.334 35.0527 341.264 35.2347 341.126 35.382C340.987 35.5207 340.809 35.59 340.593 35.59ZM345.021 43L342.187 36.825H343.487L345.762 42.038H345.008L347.296 36.825H348.544L345.71 43H345.021ZM352.16 43.13C351.545 43.13 350.99 42.9913 350.496 42.714C350.002 42.428 349.612 42.0423 349.326 41.557C349.04 41.0717 348.897 40.5213 348.897 39.906C348.897 39.2993 349.036 38.7533 349.313 38.268C349.599 37.7827 349.981 37.4013 350.457 37.124C350.943 36.838 351.484 36.695 352.082 36.695C352.654 36.695 353.157 36.825 353.59 37.085C354.032 37.345 354.375 37.7047 354.617 38.164C354.869 38.6233 354.994 39.1433 354.994 39.724C354.994 39.8107 354.99 39.906 354.981 40.01C354.973 40.1053 354.955 40.218 354.929 40.348H349.716V39.373H354.305L353.876 39.75C353.876 39.334 353.803 38.983 353.655 38.697C353.508 38.4023 353.3 38.177 353.031 38.021C352.763 37.8563 352.438 37.774 352.056 37.774C351.658 37.774 351.307 37.8607 351.003 38.034C350.7 38.2073 350.466 38.45 350.301 38.762C350.137 39.074 350.054 39.4423 350.054 39.867C350.054 40.3003 350.141 40.6817 350.314 41.011C350.488 41.3317 350.735 41.583 351.055 41.765C351.376 41.9383 351.744 42.025 352.16 42.025C352.507 42.025 352.823 41.9643 353.109 41.843C353.404 41.7217 353.655 41.5397 353.863 41.297L354.617 42.064C354.323 42.4107 353.959 42.675 353.525 42.857C353.101 43.039 352.646 43.13 352.16 43.13ZM356.27 43V36.825H357.44V43H356.27ZM357.44 39.477L356.998 39.282C356.998 38.4933 357.18 37.865 357.544 37.397C357.908 36.929 358.432 36.695 359.117 36.695C359.429 36.695 359.711 36.7513 359.962 36.864C360.213 36.968 360.447 37.1457 360.664 37.397L359.897 38.19C359.767 38.0513 359.624 37.9517 359.468 37.891C359.312 37.8303 359.13 37.8 358.922 37.8C358.489 37.8 358.133 37.9387 357.856 38.216C357.579 38.4933 357.44 38.9137 357.44 39.477ZM363.311 43.13C362.965 43.13 362.635 43.0867 362.323 43C362.02 42.9047 361.738 42.7747 361.478 42.61C361.218 42.4367 360.993 42.233 360.802 41.999L361.556 41.245C361.782 41.5223 362.042 41.7303 362.336 41.869C362.631 41.999 362.96 42.064 363.324 42.064C363.688 42.064 363.97 42.0033 364.169 41.882C364.369 41.752 364.468 41.5743 364.468 41.349C364.468 41.1237 364.386 40.9503 364.221 40.829C364.065 40.699 363.862 40.595 363.61 40.517C363.359 40.4303 363.09 40.348 362.804 40.27C362.527 40.1833 362.263 40.075 362.011 39.945C361.76 39.815 361.552 39.6373 361.387 39.412C361.231 39.1867 361.153 38.8877 361.153 38.515C361.153 38.1423 361.244 37.8217 361.426 37.553C361.608 37.2757 361.86 37.0633 362.18 36.916C362.51 36.7687 362.904 36.695 363.363 36.695C363.849 36.695 364.278 36.7817 364.65 36.955C365.032 37.1197 365.344 37.371 365.586 37.709L364.832 38.463C364.659 38.2377 364.442 38.0643 364.182 37.943C363.931 37.8217 363.645 37.761 363.324 37.761C362.986 37.761 362.726 37.8217 362.544 37.943C362.371 38.0557 362.284 38.216 362.284 38.424C362.284 38.632 362.362 38.7923 362.518 38.905C362.674 39.0177 362.878 39.113 363.129 39.191C363.389 39.269 363.658 39.3513 363.935 39.438C364.213 39.516 364.477 39.6243 364.728 39.763C364.98 39.9017 365.183 40.088 365.339 40.322C365.504 40.556 365.586 40.8637 365.586 41.245C365.586 41.8257 365.378 42.285 364.962 42.623C364.555 42.961 364.005 43.13 363.311 43.13ZM366.909 43V36.825H368.079V43H366.909ZM367.494 35.59C367.277 35.59 367.1 35.5207 366.961 35.382C366.822 35.2347 366.753 35.0527 366.753 34.836C366.753 34.628 366.822 34.4547 366.961 34.316C367.1 34.1687 367.277 34.095 367.494 34.095C367.711 34.095 367.888 34.1687 368.027 34.316C368.166 34.4547 368.235 34.628 368.235 34.836C368.235 35.0527 368.166 35.2347 368.027 35.382C367.888 35.5207 367.711 35.59 367.494 35.59ZM370.752 43V34.238H371.922V43H370.752ZM369.231 37.891V36.825H373.443V37.891H369.231ZM376.617 43.052L373.939 36.825H375.239L377.228 41.7H376.812L378.905 36.825H380.205L377.319 43.052H376.617ZM374.849 45.587L376.669 41.856L377.319 43.052L376.149 45.587H374.849Z" fill="black"/>
<defs>
<linearGradient id="paint0_linear_3_2" x1="16" y1="6.33374" x2="41" y2="44" gradientUnits="userSpaceOnUse">
<stop offset="0.125" stop-color="#5307B4"/>
<stop offset="1" stop-color="#5F9FFF"/>
</linearGradient>
<clipPath id="clip0_3_2">
<rect width="32" height="32" fill="white" transform="translate(0 5)"/>
</clipPath>
</defs>
</svg>
