<svg width="45" height="45" viewBox="0 0 45 45" fill="none" xmlns="http://www.w3.org/2000/svg">
<path d="M22.5 12.6562C17.0728 12.6562 12.6562 17.0728 12.6562 22.5C12.6562 27.9272 17.0728 32.3438 22.5 32.3438C27.9272 32.3438 32.3438 27.9272 32.3438 22.5C32.3438 17.0728 27.9272 12.6562 22.5 12.6562ZM22.5 29.5312C18.6163 29.5312 15.4688 26.3837 15.4688 22.5C15.4688 18.6163 18.6163 15.4688 22.5 15.4688C26.3837 15.4688 29.5312 18.6163 29.5312 22.5C29.5312 26.3837 26.3837 29.5312 22.5 29.5312ZM22.5 9.84375C23.2763 9.84375 23.9062 9.21384 23.9062 8.4375V5.625C23.9062 4.84866 23.2763 4.21875 22.5 4.21875C21.7237 4.21875 21.0938 4.84866 21.0938 5.625V8.4375C21.0938 9.21384 21.7237 9.84375 22.5 9.84375ZM22.5 35.1562C21.7237 35.1562 21.0938 35.7862 21.0938 36.5625V39.375C21.0938 40.1513 21.7237 40.7812 22.5 40.7812C23.2763 40.7812 23.9062 40.1513 23.9062 39.375V36.5625C23.9062 35.7862 23.2763 35.1562 22.5 35.1562ZM33.4369 13.5498L35.4255 11.5613C35.9748 11.012 35.9748 10.1221 35.4255 9.57278C34.8761 9.02347 33.9862 9.02347 33.4369 9.57278L31.4484 11.5613C30.8991 12.1106 30.8991 13.0005 31.4484 13.5498C31.9977 14.0992 32.8876 14.0992 33.4369 13.5498ZM11.5631 31.4503L9.57454 33.4388C9.02522 33.988 9.02522 34.8779 9.57454 35.4272C10.1239 35.9765 11.0137 35.9765 11.5631 35.4272L13.5516 33.4388C14.1009 32.8876 14.1009 31.9995 13.5516 31.4503C13.0024 30.9009 12.1124 30.899 11.5631 31.4503ZM9.84375 22.5C9.84375 21.7237 9.21384 21.0938 8.4375 21.0938H5.625C4.84866 21.0938 4.21875 21.7237 4.21875 22.5C4.21875 23.2763 4.84866 23.9062 5.625 23.9062H8.4375C9.21384 23.9062 9.84375 23.2763 9.84375 22.5ZM39.375 21.0938H36.5625C35.7862 21.0938 35.1562 21.7237 35.1562 22.5C35.1562 23.2763 35.7862 23.9062 36.5625 23.9062H39.375C40.1513 23.9062 40.7812 23.2763 40.7812 22.5C40.7812 21.7237 40.1513 21.0938 39.375 21.0938ZM11.5612 13.5498C12.1106 14.0992 13.0005 14.0992 13.5497 13.5498C14.0992 13.0005 14.0992 12.1106 13.5497 11.5613L11.5612 9.57278C11.0119 9.02347 10.1221 9.02347 9.5727 9.57278C9.02338 10.1221 9.02338 11.012 9.5727 11.5613L11.5612 13.5498ZM33.4388 31.4483C32.8876 30.899 31.9995 30.899 31.4503 31.4483C30.9009 31.9976 30.8991 32.8875 31.4503 33.4368L33.4388 35.4254C33.988 35.9747 34.8779 35.9747 35.4272 35.4254C35.9765 34.8761 35.9765 33.9862 35.4272 33.4368L33.4388 31.4483Z" fill="#DAEE01"/>
</svg>
