<svg width="135" height="29" viewBox="0 0 135 29" fill="none" xmlns="http://www.w3.org/2000/svg">
<g clip-path="url(#clip0_3_2)">
<path d="M8.45833 0H4.83333C2.16396 0 0 2.16396 0 4.83333V8.45833C0 11.1277 2.16396 13.2917 4.83333 13.2917H8.45833C11.1277 13.2917 13.2917 11.1277 13.2917 8.45833V4.83333C13.2917 2.16396 11.1277 0 8.45833 0Z" fill="#6218C0"/>
<path d="M24.1666 0H20.5416C17.8722 0 15.7083 2.16396 15.7083 4.83334V8.45834C15.7083 11.1277 17.8722 13.2917 20.5416 13.2917H24.1666C26.8359 13.2917 28.9999 11.1277 28.9999 8.45834V4.83334C28.9999 2.16396 26.8359 0 24.1666 0Z" fill="#6218C0"/>
<path d="M8.45833 15.7083H4.83333C2.16396 15.7083 0 17.8722 0 20.5416V24.1666C0 26.836 2.16396 28.9999 4.83333 28.9999H8.45833C11.1277 28.9999 13.2917 26.836 13.2917 24.1666V20.5416C13.2917 17.8722 11.1277 15.7083 8.45833 15.7083Z" fill="#6218C0"/>
<path d="M24.1666 15.7083H20.5416C17.8722 15.7083 15.7083 17.8722 15.7083 20.5416V24.1666C15.7083 26.836 17.8722 28.9999 20.5416 28.9999H24.1666C26.8359 28.9999 28.9999 26.836 28.9999 24.1666V20.5416C28.9999 17.8722 26.8359 15.7083 24.1666 15.7083Z" fill="#6218C0"/>
</g>
<path d="M53.358 23.21C52.308 23.21 51.328 23.014 50.418 22.622C49.508 22.23 48.71 21.691 48.024 21.005C47.338 20.305 46.799 19.5 46.407 18.59C46.029 17.666 45.84 16.679 45.84 15.629C45.84 14.579 46.029 13.599 46.407 12.689C46.799 11.779 47.331 10.981 48.003 10.295C48.689 9.595 49.48 9.056 50.376 8.678C51.286 8.286 52.266 8.09 53.316 8.09C54.366 8.09 55.339 8.286 56.235 8.678C57.145 9.056 57.943 9.595 58.629 10.295C59.315 10.981 59.847 11.786 60.225 12.71C60.617 13.62 60.813 14.6 60.813 15.65C60.813 16.7 60.617 17.687 60.225 18.611C59.847 19.521 59.315 20.319 58.629 21.005C57.957 21.691 57.166 22.23 56.256 22.622C55.36 23.014 54.394 23.21 53.358 23.21ZM53.316 20.9C54.31 20.9 55.178 20.676 55.92 20.228C56.676 19.78 57.264 19.164 57.684 18.38C58.118 17.582 58.335 16.665 58.335 15.629C58.335 14.859 58.209 14.159 57.957 13.529C57.719 12.885 57.376 12.332 56.928 11.87C56.48 11.394 55.948 11.03 55.332 10.778C54.73 10.526 54.058 10.4 53.316 10.4C52.336 10.4 51.468 10.624 50.712 11.072C49.97 11.506 49.382 12.115 48.948 12.899C48.528 13.683 48.318 14.593 48.318 15.629C48.318 16.399 48.437 17.113 48.675 17.771C48.927 18.415 49.27 18.968 49.704 19.43C50.152 19.892 50.684 20.256 51.3 20.522C51.916 20.774 52.588 20.9 53.316 20.9ZM66.3559 23L61.7569 12.92H64.3189L67.8259 21.131H66.3139L69.8419 12.92H72.2989L67.6999 23H66.3559ZM77.9933 23.21C76.9853 23.21 76.0753 22.986 75.2633 22.538C74.4653 22.076 73.8283 21.446 73.3523 20.648C72.8903 19.85 72.6593 18.954 72.6593 17.96C72.6593 16.966 72.8903 16.077 73.3523 15.293C73.8143 14.495 74.4373 13.865 75.2213 13.403C76.0193 12.941 76.9013 12.71 77.8673 12.71C78.8053 12.71 79.6313 12.927 80.3453 13.361C81.0733 13.795 81.6403 14.39 82.0463 15.146C82.4663 15.902 82.6763 16.763 82.6763 17.729C82.6763 17.897 82.6623 18.072 82.6343 18.254C82.6203 18.422 82.5923 18.611 82.5503 18.821H74.2763V16.931H81.3533L80.4923 17.687C80.4643 17.071 80.3453 16.553 80.1353 16.133C79.9253 15.713 79.6243 15.391 79.2323 15.167C78.8543 14.943 78.3853 14.831 77.8253 14.831C77.2373 14.831 76.7263 14.957 76.2923 15.209C75.8583 15.461 75.5223 15.818 75.2843 16.28C75.0463 16.728 74.9273 17.267 74.9273 17.897C74.9273 18.527 75.0533 19.08 75.3053 19.556C75.5573 20.032 75.9143 20.403 76.3763 20.669C76.8383 20.921 77.3703 21.047 77.9723 21.047C78.4903 21.047 78.9663 20.956 79.4003 20.774C79.8483 20.592 80.2263 20.326 80.5343 19.976L82.0043 21.467C81.5143 22.041 80.9193 22.475 80.2193 22.769C79.5193 23.063 78.7773 23.21 77.9933 23.21ZM84.5281 23V12.92H86.8381V23H84.5281ZM86.8381 17.393L86.0401 16.994C86.0401 15.72 86.3201 14.691 86.8801 13.907C87.4541 13.109 88.3151 12.71 89.4631 12.71C89.9671 12.71 90.4221 12.801 90.8281 12.983C91.2341 13.165 91.6121 13.459 91.9621 13.865L90.4501 15.419C90.2681 15.223 90.0651 15.083 89.8411 14.999C89.6171 14.915 89.3581 14.873 89.0641 14.873C88.4201 14.873 87.8881 15.076 87.4681 15.482C87.0481 15.888 86.8381 16.525 86.8381 17.393ZM96.3383 23L91.7393 12.92H94.3013L97.8083 21.131H96.2963L99.8243 12.92H102.281L97.6823 23H96.3383ZM103.662 23V12.92H105.972V23H103.662ZM104.817 11.072C104.425 11.072 104.096 10.939 103.83 10.673C103.578 10.407 103.452 10.078 103.452 9.686C103.452 9.294 103.578 8.965 103.83 8.699C104.096 8.433 104.425 8.3 104.817 8.3C105.223 8.3 105.552 8.433 105.804 8.699C106.056 8.965 106.182 9.294 106.182 9.686C106.182 10.078 106.056 10.407 105.804 10.673C105.552 10.939 105.223 11.072 104.817 11.072ZM113.246 23.21C112.238 23.21 111.328 22.986 110.516 22.538C109.718 22.076 109.081 21.446 108.605 20.648C108.143 19.85 107.912 18.954 107.912 17.96C107.912 16.966 108.143 16.077 108.605 15.293C109.067 14.495 109.69 13.865 110.474 13.403C111.272 12.941 112.154 12.71 113.12 12.71C114.058 12.71 114.884 12.927 115.598 13.361C116.326 13.795 116.893 14.39 117.299 15.146C117.719 15.902 117.929 16.763 117.929 17.729C117.929 17.897 117.915 18.072 117.887 18.254C117.873 18.422 117.845 18.611 117.803 18.821H109.529V16.931H116.606L115.745 17.687C115.717 17.071 115.598 16.553 115.388 16.133C115.178 15.713 114.877 15.391 114.485 15.167C114.107 14.943 113.638 14.831 113.078 14.831C112.49 14.831 111.979 14.957 111.545 15.209C111.111 15.461 110.775 15.818 110.537 16.28C110.299 16.728 110.18 17.267 110.18 17.897C110.18 18.527 110.306 19.08 110.558 19.556C110.81 20.032 111.167 20.403 111.629 20.669C112.091 20.921 112.623 21.047 113.225 21.047C113.743 21.047 114.219 20.956 114.653 20.774C115.101 20.592 115.479 20.326 115.787 19.976L117.257 21.467C116.767 22.041 116.172 22.475 115.472 22.769C114.772 23.063 114.03 23.21 113.246 23.21ZM122.598 23L118.545 12.92H120.939L123.669 20.249L122.955 20.27L125.622 12.92H126.966L129.633 20.27L128.919 20.249L131.649 12.92H134.043L129.99 23H128.646L125.916 16.028H126.672L123.942 23H122.598Z" fill="#5307B4"/>
<defs>
<clipPath id="clip0_3_2">
<rect width="29" height="29" fill="white"/>
</clipPath>
</defs>
</svg>
