<svg width="42" height="42" viewBox="0 0 42 42" fill="none" xmlns="http://www.w3.org/2000/svg">
<path d="M20.5633 5.0001C20.5281 4.99961 20.4928 5.00091 20.4578 5.00401C20.2025 5.03404 19.9675 5.15789 19.7984 5.3515C19.6294 5.54512 19.5384 5.79467 19.543 6.05166V10.1914C19.5343 10.3326 19.5546 10.474 19.6027 10.607C19.6507 10.7399 19.7255 10.8617 19.8223 10.9647C19.9192 11.0677 20.0361 11.1498 20.1659 11.2059C20.2957 11.262 20.4356 11.2909 20.577 11.2909C20.7184 11.2909 20.8583 11.262 20.9881 11.2059C21.1179 11.1498 21.2348 11.0677 21.3316 10.9647C21.4285 10.8617 21.5033 10.7399 21.5513 10.607C21.5993 10.474 21.6196 10.3326 21.611 10.1914V6.05166C21.613 5.91332 21.5874 5.77596 21.5356 5.64768C21.4837 5.51941 21.4067 5.40283 21.309 5.30481C21.2114 5.2068 21.0951 5.12934 20.967 5.077C20.8389 5.02467 20.7017 4.99852 20.5633 5.0001ZM10.3253 9.24541C10.29 9.24622 10.2548 9.24883 10.2197 9.25323C10.0247 9.27481 9.83981 9.35133 9.68657 9.4739C9.53333 9.59647 9.41806 9.76004 9.35417 9.94557C9.29027 10.1311 9.28039 10.331 9.32567 10.5219C9.37095 10.7128 9.46952 10.887 9.60992 11.0241L12.534 13.9481C12.6257 14.0597 12.7399 14.1509 12.869 14.2158C12.9981 14.2806 13.1394 14.3178 13.2838 14.3248C13.4281 14.3318 13.5723 14.3085 13.7071 14.2565C13.8419 14.2044 13.9644 14.1248 14.0665 14.0226C14.1687 13.9204 14.2484 13.798 14.3005 13.6632C14.3525 13.5283 14.3758 13.3841 14.3687 13.2398C14.3617 13.0955 14.3246 12.9542 14.2597 12.825C14.1948 12.6959 14.1037 12.5818 13.9921 12.49L11.0641 9.56596C10.9681 9.46544 10.8529 9.38526 10.7253 9.33019C10.5977 9.27512 10.4643 9.24629 10.3253 9.24541ZM30.7974 9.25323C30.5287 9.2612 30.2735 9.37334 30.0859 9.56596L27.1619 12.49C27.0503 12.5818 26.9591 12.6959 26.8943 12.825C26.8294 12.9542 26.7922 13.0955 26.7852 13.2398C26.7782 13.3841 26.8015 13.5283 26.8535 13.6632C26.9056 13.798 26.9852 13.9204 27.0874 14.0226C27.1896 14.1248 27.312 14.2044 27.4468 14.2565C27.5817 14.3085 27.7259 14.3318 27.8702 14.3248C28.0146 14.3178 28.1558 14.2806 28.285 14.2158C28.4141 14.1509 28.5282 14.0597 28.62 13.9481L31.544 11.0241C31.6907 10.8785 31.7904 10.6924 31.8304 10.4897C31.8704 10.287 31.8489 10.0769 31.7686 9.88655C31.6884 9.69617 31.553 9.53414 31.3799 9.42128C31.2069 9.30843 31.004 9.2499 30.7974 9.25323ZM20.575 12.2594C18.3816 12.2604 16.2782 13.1322 14.7272 14.6832C13.1762 16.2342 12.3043 18.3376 12.3033 20.5311C12.3033 22.7252 13.1747 24.8296 14.7258 26.3814C16.2769 27.9333 18.3809 28.8057 20.575 28.8067C21.6618 28.8067 22.7379 28.5926 23.742 28.1767C24.746 27.7609 25.6583 27.1513 26.4268 26.3828C27.1952 25.6144 27.8048 24.7021 28.2207 23.698C28.6366 22.694 28.8507 21.6178 28.8507 20.5311C28.8496 18.3369 27.9773 16.233 26.4254 14.6818C24.8735 13.1307 22.7692 12.2594 20.575 12.2594ZM6.09952 19.4991C5.9584 19.4904 5.81698 19.5107 5.684 19.5587C5.55101 19.6067 5.42926 19.6815 5.32626 19.7784C5.22325 19.8752 5.14117 19.9922 5.08506 20.1219C5.02895 20.2517 5 20.3916 5 20.533C5 20.6744 5.02895 20.8143 5.08506 20.9441C5.14117 21.0739 5.22325 21.1908 5.32626 21.2877C5.42926 21.3845 5.55101 21.4593 5.684 21.5073C5.81698 21.5554 5.9584 21.5757 6.09952 21.567H10.2393C10.514 21.567 10.7775 21.4578 10.9718 21.2636C11.1661 21.0693 11.2752 20.8058 11.2752 20.5311C11.2752 20.2563 11.1661 19.9928 10.9718 19.7986C10.7775 19.6043 10.514 19.4951 10.2393 19.4951H6.09562L6.09952 19.4991ZM30.9225 19.4991C30.7814 19.4904 30.64 19.5107 30.507 19.5587C30.374 19.6067 30.2522 19.6815 30.1492 19.7784C30.0462 19.8752 29.9641 19.9922 29.908 20.1219C29.8519 20.2517 29.823 20.3916 29.823 20.533C29.823 20.6744 29.8519 20.8143 29.908 20.9441C29.9641 21.0739 30.0462 21.1908 30.1492 21.2877C30.2522 21.3845 30.374 21.4593 30.507 21.5073C30.64 21.5554 30.7814 21.5757 30.9225 21.567H35.0584C35.3331 21.567 35.5966 21.4578 35.7909 21.2636C35.9851 21.0693 36.0943 20.8058 36.0943 20.5311C36.0943 20.2563 35.9851 19.9928 35.7909 19.7986C35.5966 19.6043 35.3331 19.4951 35.0584 19.4951H30.9225V19.4991ZM27.8734 26.7974C27.8381 26.7982 27.8029 26.8008 27.7678 26.8052C27.5728 26.8268 27.3879 26.9033 27.2347 27.0259C27.0814 27.1485 26.9661 27.312 26.9022 27.4976C26.8384 27.6831 26.8285 27.883 26.8737 28.0739C26.919 28.2648 27.0176 28.439 27.158 28.576L30.082 31.5001C30.1738 31.6117 30.288 31.7029 30.4171 31.7677C30.5462 31.8326 30.6875 31.8697 30.8318 31.8768C30.9762 31.8838 31.1204 31.8605 31.2552 31.8085C31.39 31.7564 31.5124 31.6768 31.6146 31.5746C31.7168 31.4724 31.7965 31.35 31.8485 31.2151C31.9006 31.0803 31.9238 30.9361 31.9168 30.7918C31.9098 30.6474 31.8727 30.5062 31.8078 30.377C31.7429 30.2479 31.6518 30.1338 31.5401 30.042L28.6161 27.1179C28.5201 27.0174 28.4049 26.9372 28.2773 26.8822C28.1497 26.8271 28.0123 26.7983 27.8734 26.7974ZM13.2376 26.8052C12.9702 26.8142 12.7167 26.9262 12.53 27.1179L9.60601 30.042C9.4944 30.1338 9.40323 30.2479 9.33836 30.377C9.27348 30.5062 9.23634 30.6474 9.22933 30.7918C9.22231 30.9361 9.24557 31.0803 9.29762 31.2151C9.34966 31.35 9.42934 31.4724 9.53152 31.5746C9.63371 31.6768 9.75614 31.7564 9.89095 31.8085C10.0258 31.8605 10.17 31.8838 10.3143 31.8768C10.4587 31.8697 10.5999 31.8326 10.7291 31.7677C10.8582 31.7029 10.9723 31.6117 11.0641 31.5001L13.9881 28.576C14.135 28.4302 14.2348 28.2438 14.2747 28.0407C14.3147 27.8376 14.2928 27.6272 14.2121 27.4367C14.1313 27.2461 13.9953 27.0841 13.8216 26.9716C13.6479 26.859 13.4445 26.8011 13.2376 26.8052ZM20.5555 29.827C20.2821 29.8321 20.0218 29.9451 19.8314 30.1414C19.641 30.3376 19.536 30.6012 19.5391 30.8746V35.0105C19.5304 35.1516 19.5507 35.293 19.5988 35.426C19.6468 35.559 19.7216 35.6807 19.8184 35.7837C19.9153 35.8867 20.0322 35.9688 20.162 36.0249C20.2918 36.0811 20.4317 36.11 20.5731 36.11C20.7145 36.11 20.8544 36.0811 20.9842 36.0249C21.1139 35.9688 21.2309 35.8867 21.3277 35.7837C21.4246 35.6807 21.4993 35.559 21.5474 35.426C21.5954 35.293 21.6157 35.1516 21.607 35.0105V30.8785C21.6086 30.7398 21.5824 30.6023 21.5298 30.4739C21.4772 30.3456 21.3994 30.2291 21.301 30.1314C21.2025 30.0337 21.0855 29.9567 20.9568 29.9051C20.828 29.8535 20.6902 29.8283 20.5516 29.8309L20.5555 29.827Z" fill="url(#paint0_linear_17_317)"/>
<defs>
<linearGradient id="paint0_linear_17_317" x1="13.2746" y1="10.1717" x2="20.5471" y2="36.11" gradientUnits="userSpaceOnUse">
<stop stop-color="#FFAE55"/>
<stop offset="0.875" stop-color="#C37237"/>
</linearGradient>
</defs>
</svg>
