<svg width="16" height="17" viewBox="0 0 16 17" fill="none" xmlns="http://www.w3.org/2000/svg">
<path d="M15.3336 11.0023C15.1568 11.0023 14.9872 11.0726 14.8622 11.1978C14.7371 11.3229 14.6669 11.4926 14.6669 11.6696V13.0041C14.6669 13.5349 14.4562 14.0441 14.0811 14.4195C13.7061 14.7949 13.1974 15.0058 12.667 15.0058H11.3336C11.1568 15.0058 10.9873 15.0761 10.8622 15.2012C10.7372 15.3263 10.667 15.4961 10.667 15.673C10.667 15.85 10.7372 16.0197 10.8622 16.1448C10.9873 16.27 11.1568 16.3403 11.3336 16.3403H12.667C13.5507 16.3392 14.3979 15.9874 15.0228 15.3619C15.6476 14.7365 15.9992 13.8885 16.0002 13.0041V11.6696C16.0002 11.4926 15.93 11.3229 15.805 11.1978C15.6799 11.0726 15.5104 11.0023 15.3336 11.0023Z" fill="#B1860B"/>
<path d="M0.666655 5.66389C0.843462 5.66389 1.01303 5.59359 1.13805 5.46846C1.26307 5.34333 1.33331 5.17361 1.33331 4.99665V3.66216C1.33331 3.13126 1.54402 2.62211 1.91909 2.24671C2.29415 1.87132 2.80285 1.66042 3.33327 1.66042H4.66658C4.84339 1.66042 5.01296 1.59012 5.13798 1.46499C5.263 1.33985 5.33324 1.17014 5.33324 0.993173C5.33324 0.816209 5.263 0.646492 5.13798 0.521359C5.01296 0.396227 4.84339 0.325928 4.66658 0.325928H3.33327C2.44956 0.326987 1.60234 0.678822 0.977462 1.30426C0.352582 1.92969 0.00105855 2.77766 0 3.66216L0 4.99665C0 5.17361 0.0702366 5.34333 0.195259 5.46846C0.320281 5.59359 0.489847 5.66389 0.666655 5.66389Z" fill="#B1860B"/>
<path d="M4.66658 15.0058H3.33327C2.80285 15.0058 2.29415 14.7949 1.91909 14.4195C1.54402 14.0441 1.33331 13.5349 1.33331 13.0041V11.6696C1.33331 11.4926 1.26307 11.3229 1.13805 11.1978C1.01303 11.0726 0.843462 11.0023 0.666655 11.0023C0.489847 11.0023 0.320281 11.0726 0.195259 11.1978C0.0702366 11.3229 0 11.4926 0 11.6696L0 13.0041C0.00105855 13.8885 0.352582 14.7365 0.977462 15.3619C1.60234 15.9874 2.44956 16.3392 3.33327 16.3403H4.66658C4.84339 16.3403 5.01296 16.27 5.13798 16.1448C5.263 16.0197 5.33324 15.85 5.33324 15.673C5.33324 15.4961 5.263 15.3263 5.13798 15.2012C5.01296 15.0761 4.84339 15.0058 4.66658 15.0058Z" fill="#B1860B"/>
<path d="M12.667 0.325928H11.3336C11.1568 0.325928 10.9873 0.396227 10.8622 0.521359C10.7372 0.646492 10.667 0.816209 10.667 0.993173C10.667 1.17014 10.7372 1.33985 10.8622 1.46499C10.9873 1.59012 11.1568 1.66042 11.3336 1.66042H12.667C13.1974 1.66042 13.7061 1.87132 14.0811 2.24671C14.4562 2.62211 14.6669 3.13126 14.6669 3.66216V4.99665C14.6669 5.17361 14.7371 5.34333 14.8622 5.46846C14.9872 5.59359 15.1568 5.66389 15.3336 5.66389C15.5104 5.66389 15.6799 5.59359 15.805 5.46846C15.93 5.34333 16.0002 5.17361 16.0002 4.99665V3.66216C15.9992 2.77766 15.6476 1.92969 15.0228 1.30426C14.3979 0.678822 13.5507 0.326987 12.667 0.325928V0.325928Z" fill="#B1860B"/>
<path d="M7.99865 7.66548C8.52606 7.66548 9.04162 7.50895 9.48014 7.21568C9.91867 6.92241 10.2605 6.50557 10.4623 6.01787C10.6641 5.53018 10.7169 4.99354 10.614 4.47581C10.5111 3.95807 10.2572 3.48251 9.88423 3.10924C9.5113 2.73598 9.03615 2.48178 8.51888 2.3788C8.00161 2.27582 7.46544 2.32867 6.97818 2.53068C6.49092 2.73269 6.07445 3.07478 5.78144 3.51369C5.48843 3.9526 5.33203 4.46862 5.33203 4.9965C5.33203 5.70436 5.61298 6.38322 6.11307 6.88376C6.61315 7.38429 7.29142 7.66548 7.99865 7.66548ZM7.99865 3.66201C8.26235 3.66201 8.52013 3.74027 8.7394 3.88691C8.95866 4.03355 9.12955 4.24196 9.23047 4.48581C9.33138 4.72966 9.35779 4.99798 9.30634 5.25685C9.25489 5.51571 9.12791 5.75349 8.94144 5.94013C8.75497 6.12676 8.5174 6.25386 8.25876 6.30535C8.00013 6.35684 7.73204 6.33041 7.48841 6.22941C7.24478 6.1284 7.03655 5.95736 6.89004 5.7379C6.74354 5.51845 6.66534 5.26044 6.66534 4.9965C6.66534 4.64257 6.80581 4.30314 7.05586 4.05287C7.3059 3.80261 7.64503 3.66201 7.99865 3.66201Z" fill="#B1860B"/>
<path d="M11.9985 13.6712C12.1754 13.6712 12.3449 13.6009 12.4699 13.4758C12.595 13.3506 12.6652 13.1809 12.6652 13.004C12.6641 11.9425 12.2424 10.9248 11.4925 10.1742C10.7426 9.42368 9.72579 9.00155 8.66527 9.00049H7.33196C6.27144 9.00155 5.25466 9.42368 4.50475 10.1742C3.75485 10.9248 3.33309 11.9425 3.33203 13.004C3.33203 13.1809 3.40227 13.3506 3.52729 13.4758C3.65231 13.6009 3.82188 13.6712 3.99869 13.6712C4.17549 13.6712 4.34506 13.6009 4.47008 13.4758C4.5951 13.3506 4.66534 13.1809 4.66534 13.004C4.66534 12.2961 4.94629 11.6172 5.44638 11.1167C5.94646 10.6162 6.62473 10.335 7.33196 10.335H8.66527C9.3725 10.335 10.0508 10.6162 10.5509 11.1167C11.0509 11.6172 11.3319 12.2961 11.3319 13.004C11.3319 13.1809 11.4021 13.3506 11.5271 13.4758C11.6522 13.6009 11.8217 13.6712 11.9985 13.6712Z" fill="#B1860B"/>
</svg>
