<svg width="32" height="32" viewBox="0 0 32 32" fill="none" xmlns="http://www.w3.org/2000/svg">
<circle cx="16" cy="16" r="16" fill="white"/>
<g clip-path="url(#clip0_0_1)">
<path d="M18.9375 18.2083C18.5616 18.2088 18.1943 18.321 17.8823 18.5306C17.5703 18.7403 17.3276 19.038 17.1852 19.3859C16.737 19.2602 16.263 19.2602 15.8148 19.3859C15.6419 18.9667 15.3242 18.6235 14.9195 18.4188C14.5148 18.2141 14.0501 18.1615 13.6099 18.2706C13.1698 18.3797 12.7834 18.6432 12.5211 19.0132C12.2589 19.3831 12.1382 19.835 12.1811 20.2864C12.2239 20.7379 12.4275 21.159 12.7547 21.473C13.0818 21.787 13.5109 21.9731 13.9637 21.9974C14.4166 22.0218 14.8631 21.8826 15.222 21.6055C15.5809 21.3283 15.8284 20.9314 15.9193 20.4871C16.1059 20.4198 16.3018 20.3819 16.5 20.375C16.6982 20.3819 16.8941 20.4197 17.0807 20.4871C17.1531 20.8383 17.3236 21.1617 17.5724 21.4199C17.8213 21.678 18.1382 21.8603 18.4865 21.9456C18.8347 22.0309 19.2 22.0157 19.54 21.9017C19.88 21.7877 20.1806 21.5797 20.4071 21.3017C20.6336 21.0238 20.7766 20.6873 20.8196 20.3313C20.8626 19.9753 20.8037 19.6145 20.6498 19.2906C20.496 18.9668 20.2534 18.6932 19.9503 18.5016C19.6472 18.31 19.2961 18.2083 18.9375 18.2083ZM14.0625 20.9167C13.9018 20.9167 13.7447 20.869 13.6111 20.7797C13.4775 20.6905 13.3733 20.5636 13.3118 20.4151C13.2504 20.2666 13.2343 20.1033 13.2656 19.9457C13.297 19.788 13.3743 19.6433 13.488 19.5296C13.6016 19.416 13.7464 19.3386 13.904 19.3073C14.0616 19.2759 14.225 19.292 14.3734 19.3535C14.5219 19.415 14.6488 19.5192 14.7381 19.6528C14.8273 19.7864 14.875 19.9435 14.875 20.1042C14.875 20.3197 14.7894 20.5263 14.637 20.6787C14.4847 20.8311 14.278 20.9167 14.0625 20.9167ZM18.9375 20.9167C18.7768 20.9167 18.6197 20.869 18.4861 20.7797C18.3525 20.6905 18.2483 20.5636 18.1868 20.4151C18.1254 20.2666 18.1093 20.1033 18.1406 19.9457C18.172 19.788 18.2493 19.6433 18.363 19.5296C18.4766 19.416 18.6214 19.3386 18.779 19.3073C18.9366 19.2759 19.1 19.292 19.2484 19.3535C19.3969 19.415 19.5238 19.5192 19.6131 19.6528C19.7023 19.7864 19.75 19.9435 19.75 20.1042C19.75 20.3197 19.6644 20.5263 19.512 20.6787C19.3597 20.8311 19.153 20.9167 18.9375 20.9167ZM20.8198 13.699C20.6757 9.3315 18.2875 9.01408 18.1819 9.00325C18.163 9.00109 18.144 9 18.125 9C17.6552 9.01866 17.2008 9.17251 16.8163 9.44308C16.7237 9.50789 16.6133 9.54265 16.5003 9.54265C16.3872 9.54265 16.2769 9.50789 16.1842 9.44308C15.7995 9.17255 15.3449 9.01871 14.875 9C14.8569 9.0001 14.8388 9.00119 14.8208 9.00325C14.7157 9.01408 12.3292 9.3315 12.1829 13.699C11.4587 13.9411 10 14.5483 10 15.5C10 17.4988 13.3551 17.6667 16.5 17.6667C19.6449 17.6667 23 17.4988 23 15.5C23 14.5483 21.5413 13.9411 20.8198 13.699ZM14.9048 10.086C15.1411 10.1115 15.3674 10.1957 15.5629 10.3309C15.8379 10.5226 16.1651 10.6254 16.5003 10.6254C16.8355 10.6254 17.1626 10.5226 17.4376 10.3309C17.6318 10.1966 17.8563 10.1125 18.0909 10.086C18.3319 10.1435 19.6666 10.6082 19.7462 13.8008C18.727 14.2566 17.6153 14.4675 16.5 14.4167C15.3848 14.4675 14.2731 14.2567 13.2538 13.8013C13.334 10.5817 14.6898 10.1375 14.9048 10.086ZM16.5 16.5833C12.0231 16.5833 11.0833 15.994 11.0768 15.5444C11.5052 15.1234 12.0411 14.8284 12.626 14.6918C13.8276 15.2862 15.161 15.5643 16.5 15.5C17.839 15.5643 19.1724 15.2862 20.374 14.6918C20.9452 14.8346 21.4741 15.1117 21.9167 15.5C21.9167 15.994 20.9769 16.5833 16.5 16.5833Z" fill="#374957"/>
</g>
<defs>
<clipPath id="clip0_0_1">
<rect width="13" height="13" fill="white" transform="translate(10 9)"/>
</clipPath>
</defs>
</svg>
