<svg width="177" height="20" viewBox="0 0 177 20" fill="none" xmlns="http://www.w3.org/2000/svg">
<path d="M35.216 16V4.8H37.056V16H35.216ZM36.48 16V14.32H42.752V16H36.48ZM36.48 11.088V9.472H42.208V11.088H36.48ZM36.48 6.48V4.8H42.672V6.48H36.48ZM44.4135 16V8.32H46.1735V16H44.4135ZM49.5175 16V11.424C49.5175 10.912 49.3575 10.5173 49.0375 10.24C48.7175 9.952 48.3228 9.808 47.8535 9.808C47.5335 9.808 47.2455 9.872 46.9895 10C46.7442 10.128 46.5468 10.3147 46.3975 10.56C46.2482 10.7947 46.1735 11.0827 46.1735 11.424L45.4855 11.04C45.4855 10.4533 45.6135 9.94667 45.8695 9.52C46.1255 9.09333 46.4722 8.76267 46.9095 8.528C47.3468 8.28267 47.8375 8.16 48.3815 8.16C48.9255 8.16 49.4162 8.27733 49.8535 8.512C50.2908 8.74667 50.6375 9.07733 50.8935 9.504C51.1495 9.93067 51.2775 10.4427 51.2775 11.04V16H49.5175ZM54.6215 16V11.424C54.6215 10.912 54.4615 10.5173 54.1415 10.24C53.8215 9.952 53.4268 9.808 52.9575 9.808C52.6482 9.808 52.3655 9.872 52.1095 10C51.8535 10.128 51.6508 10.3147 51.5015 10.56C51.3522 10.7947 51.2775 11.0827 51.2775 11.424L50.2855 11.04C50.3388 10.4533 50.5095 9.94667 50.7975 9.52C51.0855 9.09333 51.4535 8.76267 51.9015 8.528C52.3602 8.28267 52.8615 8.16 53.4055 8.16C53.9602 8.16 54.4615 8.27733 54.9095 8.512C55.3575 8.74667 55.7148 9.07733 55.9815 9.504C56.2482 9.93067 56.3815 10.4427 56.3815 11.04V16H54.6215ZM62.3068 16.16C61.7201 16.16 61.1974 16.0373 60.7388 15.792C60.2801 15.536 59.9174 15.1893 59.6508 14.752C59.3948 14.3147 59.2668 13.8187 59.2668 13.264V11.056C59.2668 10.5013 59.4001 10.0053 59.6668 9.568C59.9334 9.13067 60.2961 8.78933 60.7548 8.544C61.2134 8.288 61.7308 8.16 62.3068 8.16C63.0001 8.16 63.6241 8.34133 64.1788 8.704C64.7441 9.056 65.1868 9.536 65.5068 10.144C65.8374 10.7413 66.0028 11.4187 66.0028 12.176C66.0028 12.9227 65.8374 13.6 65.5068 14.208C65.1868 14.8053 64.7441 15.28 64.1788 15.632C63.6241 15.984 63.0001 16.16 62.3068 16.16ZM62.0188 14.496C62.4454 14.496 62.8188 14.4 63.1388 14.208C63.4694 14.0053 63.7254 13.728 63.9068 13.376C64.0988 13.024 64.1948 12.6187 64.1948 12.16C64.1948 11.7013 64.0988 11.296 63.9068 10.944C63.7254 10.592 63.4694 10.32 63.1388 10.128C62.8188 9.92533 62.4454 9.824 62.0188 9.824C61.5921 9.824 61.2134 9.92533 60.8828 10.128C60.5521 10.32 60.2961 10.592 60.1148 10.944C59.9334 11.296 59.8428 11.7013 59.8428 12.16C59.8428 12.6187 59.9334 13.024 60.1148 13.376C60.2961 13.728 60.5521 14.0053 60.8828 14.208C61.2134 14.4 61.5921 14.496 62.0188 14.496ZM58.1948 19.2V8.32H59.9548V10.384L59.6508 12.256L59.9548 14.112V19.2H58.1948ZM67.476 16V4.48H69.236V16H67.476ZM74.7148 16.16C73.9681 16.16 73.2908 15.984 72.6828 15.632C72.0748 15.2693 71.5894 14.784 71.2268 14.176C70.8748 13.568 70.6988 12.8907 70.6988 12.144C70.6988 11.3973 70.8748 10.7253 71.2268 10.128C71.5894 9.53067 72.0748 9.056 72.6828 8.704C73.2908 8.34133 73.9681 8.16 74.7148 8.16C75.4721 8.16 76.1548 8.336 76.7628 8.688C77.3708 9.04 77.8508 9.52 78.2028 10.128C78.5654 10.7253 78.7468 11.3973 78.7468 12.144C78.7468 12.8907 78.5654 13.568 78.2028 14.176C77.8508 14.784 77.3708 15.2693 76.7628 15.632C76.1548 15.984 75.4721 16.16 74.7148 16.16ZM74.7148 14.464C75.1521 14.464 75.5361 14.368 75.8668 14.176C76.2081 13.9733 76.4694 13.696 76.6508 13.344C76.8428 12.992 76.9388 12.592 76.9388 12.144C76.9388 11.696 76.8428 11.3013 76.6508 10.96C76.4588 10.6187 76.1974 10.352 75.8668 10.16C75.5361 9.95733 75.1521 9.856 74.7148 9.856C74.2881 9.856 73.9041 9.95733 73.5628 10.16C73.2321 10.352 72.9708 10.6187 72.7788 10.96C72.5974 11.3013 72.5068 11.696 72.5068 12.144C72.5068 12.592 72.5974 12.992 72.7788 13.344C72.9708 13.696 73.2321 13.9733 73.5628 14.176C73.9041 14.368 74.2881 14.464 74.7148 14.464ZM82.4248 16.08L79.1448 8.32H81.0807L83.3208 14.016H82.7608L85.1288 8.32H87.0808L83.5128 16.08H82.4248ZM80.1368 19.2L82.5208 14.288L83.5128 16.08L82.0888 19.2H80.1368ZM88.0385 16V8.32H89.7985V16H88.0385ZM93.1425 16V11.424C93.1425 10.912 92.9825 10.5173 92.6625 10.24C92.3425 9.952 91.9478 9.808 91.4785 9.808C91.1585 9.808 90.8705 9.872 90.6145 10C90.3692 10.128 90.1718 10.3147 90.0225 10.56C89.8732 10.7947 89.7985 11.0827 89.7985 11.424L89.1105 11.04C89.1105 10.4533 89.2385 9.94667 89.4945 9.52C89.7505 9.09333 90.0972 8.76267 90.5345 8.528C90.9718 8.28267 91.4625 8.16 92.0065 8.16C92.5505 8.16 93.0412 8.27733 93.4785 8.512C93.9158 8.74667 94.2625 9.07733 94.5185 9.504C94.7745 9.93067 94.9025 10.4427 94.9025 11.04V16H93.1425ZM98.2465 16V11.424C98.2465 10.912 98.0865 10.5173 97.7665 10.24C97.4465 9.952 97.0518 9.808 96.5825 9.808C96.2732 9.808 95.9905 9.872 95.7345 10C95.4785 10.128 95.2758 10.3147 95.1265 10.56C94.9772 10.7947 94.9025 11.0827 94.9025 11.424L93.9105 11.04C93.9638 10.4533 94.1345 9.94667 94.4225 9.52C94.7105 9.09333 95.0785 8.76267 95.5265 8.528C95.9852 8.28267 96.4865 8.16 97.0305 8.16C97.5852 8.16 98.0865 8.27733 98.5345 8.512C98.9825 8.74667 99.3398 9.07733 99.6065 9.504C99.8732 9.93067 100.007 10.4427 100.007 11.04V16H98.2465ZM105.388 16.16C104.62 16.16 103.926 15.9893 103.308 15.648C102.7 15.296 102.214 14.816 101.852 14.208C101.5 13.6 101.324 12.9173 101.324 12.16C101.324 11.4027 101.5 10.7253 101.852 10.128C102.204 9.52 102.678 9.04 103.276 8.688C103.884 8.336 104.556 8.16 105.292 8.16C106.006 8.16 106.636 8.32533 107.18 8.656C107.734 8.98667 108.166 9.44 108.476 10.016C108.796 10.592 108.956 11.248 108.956 11.984C108.956 12.112 108.945 12.2453 108.924 12.384C108.913 12.512 108.892 12.656 108.86 12.816H102.556V11.376H107.948L107.292 11.952C107.27 11.4827 107.18 11.088 107.02 10.768C106.86 10.448 106.63 10.2027 106.332 10.032C106.044 9.86133 105.686 9.776 105.26 9.776C104.812 9.776 104.422 9.872 104.092 10.064C103.761 10.256 103.505 10.528 103.324 10.88C103.142 11.2213 103.052 11.632 103.052 12.112C103.052 12.592 103.148 13.0133 103.34 13.376C103.532 13.7387 103.804 14.0213 104.156 14.224C104.508 14.416 104.913 14.512 105.372 14.512C105.766 14.512 106.129 14.4427 106.46 14.304C106.801 14.1653 107.089 13.9627 107.324 13.696L108.444 14.832C108.07 15.2693 107.617 15.6 107.084 15.824C106.55 16.048 105.985 16.16 105.388 16.16ZM115.631 16V11.568C115.631 11.056 115.465 10.6347 115.135 10.304C114.815 9.97333 114.399 9.808 113.887 9.808C113.545 9.808 113.241 9.88267 112.975 10.032C112.708 10.1813 112.5 10.3893 112.351 10.656C112.201 10.9227 112.127 11.2267 112.127 11.568L111.439 11.184C111.439 10.5973 111.567 10.08 111.823 9.632C112.079 9.17333 112.431 8.816 112.879 8.56C113.337 8.29333 113.849 8.16 114.415 8.16C114.991 8.16 115.503 8.30933 115.951 8.608C116.399 8.896 116.751 9.27467 117.007 9.744C117.263 10.2027 117.391 10.6827 117.391 11.184V16H115.631ZM110.367 16V8.32H112.127V16H110.367ZM120.253 16V5.12H122.013V16H120.253ZM118.413 9.92V8.32H123.853V9.92H118.413ZM129.839 16V14.32H132.783C133.551 14.32 134.223 14.1547 134.799 13.824C135.386 13.4933 135.839 13.0347 136.159 12.448C136.49 11.8507 136.655 11.1627 136.655 10.384C136.655 9.616 136.49 8.93867 136.159 8.352C135.829 7.76533 135.37 7.30667 134.783 6.976C134.207 6.64533 133.541 6.48 132.783 6.48H129.839V4.8H132.831C133.642 4.8 134.394 4.944 135.087 5.232C135.781 5.50933 136.383 5.904 136.895 6.416C137.418 6.91733 137.823 7.50933 138.111 8.192C138.399 8.864 138.543 9.6 138.543 10.4C138.543 11.1893 138.399 11.9253 138.111 12.608C137.823 13.2907 137.423 13.888 136.911 14.4C136.399 14.9013 135.797 15.296 135.103 15.584C134.41 15.8613 133.663 16 132.863 16H129.839ZM128.575 16V4.8H130.415V16H128.575ZM143.747 16.16C142.979 16.16 142.286 15.9893 141.667 15.648C141.059 15.296 140.574 14.816 140.211 14.208C139.859 13.6 139.683 12.9173 139.683 12.16C139.683 11.4027 139.859 10.7253 140.211 10.128C140.563 9.52 141.038 9.04 141.635 8.688C142.243 8.336 142.915 8.16 143.651 8.16C144.366 8.16 144.995 8.32533 145.539 8.656C146.094 8.98667 146.526 9.44 146.835 10.016C147.155 10.592 147.315 11.248 147.315 11.984C147.315 12.112 147.304 12.2453 147.283 12.384C147.272 12.512 147.251 12.656 147.219 12.816H140.915V11.376H146.307L145.651 11.952C145.63 11.4827 145.539 11.088 145.379 10.768C145.219 10.448 144.99 10.2027 144.691 10.032C144.403 9.86133 144.046 9.776 143.619 9.776C143.171 9.776 142.782 9.872 142.451 10.064C142.12 10.256 141.864 10.528 141.683 10.88C141.502 11.2213 141.411 11.632 141.411 12.112C141.411 12.592 141.507 13.0133 141.699 13.376C141.891 13.7387 142.163 14.0213 142.515 14.224C142.867 14.416 143.272 14.512 143.731 14.512C144.126 14.512 144.488 14.4427 144.819 14.304C145.16 14.1653 145.448 13.9627 145.683 13.696L146.803 14.832C146.43 15.2693 145.976 15.6 145.443 15.824C144.91 16.048 144.344 16.16 143.747 16.16ZM149.691 16V5.12H151.451V16H149.691ZM147.851 9.92V8.32H153.291V9.92H147.851ZM157.567 16.16C156.874 16.16 156.244 15.984 155.679 15.632C155.124 15.28 154.682 14.8053 154.351 14.208C154.031 13.6 153.871 12.9227 153.871 12.176C153.871 11.4187 154.031 10.7413 154.351 10.144C154.682 9.536 155.124 9.056 155.679 8.704C156.244 8.34133 156.874 8.16 157.567 8.16C158.154 8.16 158.671 8.288 159.119 8.544C159.578 8.78933 159.94 9.13067 160.207 9.568C160.474 10.0053 160.607 10.5013 160.607 11.056V13.264C160.607 13.8187 160.474 14.3147 160.207 14.752C159.951 15.1893 159.594 15.536 159.135 15.792C158.676 16.0373 158.154 16.16 157.567 16.16ZM157.855 14.496C158.506 14.496 159.028 14.2773 159.423 13.84C159.828 13.4027 160.031 12.8427 160.031 12.16C160.031 11.7013 159.94 11.296 159.759 10.944C159.578 10.592 159.322 10.32 158.991 10.128C158.671 9.92533 158.292 9.824 157.855 9.824C157.428 9.824 157.05 9.92533 156.719 10.128C156.399 10.32 156.143 10.592 155.951 10.944C155.77 11.296 155.679 11.7013 155.679 12.16C155.679 12.6187 155.77 13.024 155.951 13.376C156.143 13.728 156.399 14.0053 156.719 14.208C157.05 14.4 157.428 14.496 157.855 14.496ZM159.919 16V13.936L160.223 12.064L159.919 10.208V8.32H161.679V16H159.919ZM163.648 16V8.32H165.408V16H163.648ZM164.528 6.912C164.23 6.912 163.979 6.81067 163.776 6.608C163.584 6.40533 163.488 6.15467 163.488 5.856C163.488 5.55733 163.584 5.30667 163.776 5.104C163.979 4.90133 164.23 4.8 164.528 4.8C164.838 4.8 165.088 4.90133 165.28 5.104C165.472 5.30667 165.568 5.55733 165.568 5.856C165.568 6.15467 165.472 6.40533 165.28 6.608C165.088 6.81067 164.838 6.912 164.528 6.912ZM167.382 16V4.48H169.142V16H167.382ZM173.613 16.16C173.186 16.16 172.776 16.1067 172.381 16C171.986 15.8827 171.624 15.7227 171.293 15.52C170.962 15.3067 170.674 15.0507 170.429 14.752L171.549 13.632C171.816 13.9413 172.12 14.176 172.461 14.336C172.813 14.4853 173.208 14.56 173.645 14.56C174.04 14.56 174.338 14.5013 174.541 14.384C174.744 14.2667 174.845 14.096 174.845 13.872C174.845 13.6373 174.749 13.456 174.557 13.328C174.365 13.2 174.114 13.0933 173.805 13.008C173.506 12.912 173.186 12.816 172.845 12.72C172.514 12.624 172.194 12.496 171.885 12.336C171.586 12.1653 171.341 11.936 171.149 11.648C170.957 11.36 170.861 10.9867 170.861 10.528C170.861 10.0373 170.973 9.616 171.197 9.264C171.432 8.912 171.757 8.64 172.173 8.448C172.6 8.256 173.106 8.16 173.693 8.16C174.312 8.16 174.856 8.272 175.325 8.496C175.805 8.70933 176.205 9.03467 176.525 9.472L175.405 10.592C175.181 10.3147 174.925 10.1067 174.637 9.968C174.349 9.82933 174.018 9.76 173.645 9.76C173.293 9.76 173.021 9.81333 172.829 9.92C172.637 10.0267 172.541 10.1813 172.541 10.384C172.541 10.5973 172.637 10.7627 172.829 10.88C173.021 10.9973 173.266 11.0987 173.565 11.184C173.874 11.2693 174.194 11.3653 174.525 11.472C174.866 11.568 175.186 11.7067 175.485 11.888C175.794 12.0587 176.045 12.2933 176.237 12.592C176.429 12.88 176.525 13.2587 176.525 13.728C176.525 14.4747 176.264 15.0667 175.741 15.504C175.218 15.9413 174.509 16.16 173.613 16.16Z" fill="black"/>
<path fill-rule="evenodd" clip-rule="evenodd" d="M6.25 4.375C6.25 2.99429 7.36929 1.875 8.75 1.875H11.25C12.6307 1.875 13.75 2.99429 13.75 4.375V4.54581C14.5271 4.61695 15.2978 4.70997 16.0617 4.82426C17.2734 5.00557 18.125 6.05969 18.125 7.25474V9.78241C18.125 10.7917 17.5136 11.7427 16.5114 12.0759C14.4638 12.7567 12.2743 13.125 10 13.125C7.72572 13.125 5.53618 12.7567 3.48856 12.0759C2.48637 11.7427 1.875 10.7917 1.875 9.78239V7.25474C1.875 6.05969 2.72659 5.00557 3.9383 4.82427C4.70217 4.70997 5.47295 4.61695 6.25 4.54581V4.375ZM12.5 4.375V4.45069C11.673 4.40047 10.8395 4.375 10 4.375C9.16054 4.375 8.32696 4.40047 7.5 4.45069V4.375C7.5 3.68464 8.05964 3.125 8.75 3.125H11.25C11.9404 3.125 12.5 3.68464 12.5 4.375ZM10 11.25C10.3452 11.25 10.625 10.9702 10.625 10.625C10.625 10.2798 10.3452 10 10 10C9.65482 10 9.375 10.2798 9.375 10.625C9.375 10.9702 9.65482 11.25 10 11.25Z" fill="#5307B4"/>
<path d="M2.5 15.3333V13.0033C2.68586 13.1052 2.88414 13.1922 3.09419 13.262C5.26739 13.9846 7.59001 14.375 10 14.375C12.41 14.375 14.7326 13.9846 16.9058 13.2621C17.1159 13.1922 17.3141 13.1052 17.5 13.0033V15.3333C17.5 16.5432 16.6273 17.6062 15.3974 17.7695C13.6313 18.004 11.8296 18.125 10 18.125C8.17039 18.125 6.36872 18.004 4.60261 17.7695C3.3727 17.6062 2.5 16.5432 2.5 15.3333Z" fill="#5307B4"/>
</svg>
