<svg width="132" height="30" viewBox="0 0 132 30" fill="none" xmlns="http://www.w3.org/2000/svg">
<path d="M38.72 16.52L34.352 9.8H36.48L39.888 15.16H38.896L42.304 9.8H44.4L40 16.52H38.72ZM38.464 21V15.368H40.304V21H38.464ZM46.9503 21.16C46.1823 21.16 45.4889 20.9893 44.8703 20.648C44.2623 20.296 43.7769 19.816 43.4143 19.208C43.0623 18.6 42.8863 17.9173 42.8863 17.16C42.8863 16.4027 43.0623 15.7253 43.4143 15.128C43.7663 14.52 44.2409 14.04 44.8383 13.688C45.4463 13.336 46.1183 13.16 46.8543 13.16C47.5689 13.16 48.1983 13.3253 48.7423 13.656C49.2969 13.9867 49.7289 14.44 50.0383 15.016C50.3583 15.592 50.5183 16.248 50.5183 16.984C50.5183 17.112 50.5076 17.2453 50.4862 17.384C50.4756 17.512 50.4543 17.656 50.4223 17.816H44.1183V16.376H49.5103L48.8543 16.952C48.8329 16.4827 48.7423 16.088 48.5823 15.768C48.4223 15.448 48.1929 15.2027 47.8943 15.032C47.6063 14.8613 47.2489 14.776 46.8223 14.776C46.3743 14.776 45.9849 14.872 45.6543 15.064C45.3236 15.256 45.0676 15.528 44.8863 15.88C44.7049 16.2213 44.6143 16.632 44.6143 17.112C44.6143 17.592 44.7103 18.0133 44.9023 18.376C45.0943 18.7387 45.3663 19.0213 45.7183 19.224C46.0703 19.416 46.4756 19.512 46.9343 19.512C47.3289 19.512 47.6916 19.4427 48.0223 19.304C48.3636 19.1653 48.6516 18.9627 48.8863 18.696L50.0063 19.832C49.6329 20.2693 49.1796 20.6 48.6463 20.824C48.1129 21.048 47.5476 21.16 46.9503 21.16ZM55.1451 21.16C54.4518 21.16 53.8225 20.984 53.2571 20.632C52.7025 20.28 52.2598 19.8053 51.9291 19.208C51.6091 18.6 51.4491 17.9227 51.4491 17.176C51.4491 16.4187 51.6091 15.7413 51.9291 15.144C52.2598 14.536 52.7025 14.056 53.2571 13.704C53.8225 13.3413 54.4518 13.16 55.1451 13.16C55.7318 13.16 56.2491 13.288 56.6971 13.544C57.1558 13.7893 57.5185 14.1307 57.7851 14.568C58.0518 15.0053 58.1851 15.5013 58.1851 16.056V18.264C58.1851 18.8187 58.0518 19.3147 57.7851 19.752C57.5291 20.1893 57.1718 20.536 56.7131 20.792C56.2545 21.0373 55.7318 21.16 55.1451 21.16ZM55.4331 19.496C56.0838 19.496 56.6065 19.2773 57.0011 18.84C57.4065 18.4027 57.6091 17.8427 57.6091 17.16C57.6091 16.7013 57.5185 16.296 57.3371 15.944C57.1558 15.592 56.8998 15.32 56.5691 15.128C56.2491 14.9253 55.8705 14.824 55.4331 14.824C55.0065 14.824 54.6278 14.9253 54.2971 15.128C53.9771 15.32 53.7211 15.592 53.5291 15.944C53.3478 16.296 53.2571 16.7013 53.2571 17.16C53.2571 17.6187 53.3478 18.024 53.5291 18.376C53.7211 18.728 53.9771 19.0053 54.2971 19.208C54.6278 19.4 55.0065 19.496 55.4331 19.496ZM57.4971 21V18.936L57.8011 17.064L57.4971 15.208V13.32H59.2571V21H57.4971ZM61.2104 21V13.32H62.9704V21H61.2104ZM62.9704 16.728L62.3624 16.424C62.3624 15.4533 62.5757 14.6693 63.0024 14.072C63.4397 13.464 64.0957 13.16 64.9704 13.16C65.3544 13.16 65.701 13.2293 66.0104 13.368C66.3197 13.5067 66.6077 13.7307 66.8744 14.04L65.7224 15.224C65.5837 15.0747 65.429 14.968 65.2584 14.904C65.0877 14.84 64.8904 14.808 64.6664 14.808C64.1757 14.808 63.7704 14.9627 63.4504 15.272C63.1304 15.5813 62.9704 16.0667 62.9704 16.728ZM67.726 21V9.48H69.486V21H67.726ZM73.9248 21.08L70.6448 13.32H72.5807L74.8208 19.016H74.2608L76.6288 13.32H78.5808L75.0128 21.08H73.9248ZM71.6368 24.2L74.0208 19.288L75.0128 21.08L73.5888 24.2H71.6368ZM84.4331 21V19.32H87.3771C88.1451 19.32 88.8171 19.1547 89.3931 18.824C89.9798 18.4933 90.4331 18.0347 90.7531 17.448C91.0838 16.8507 91.2491 16.1627 91.2491 15.384C91.2491 14.616 91.0838 13.9387 90.7531 13.352C90.4225 12.7653 89.9638 12.3067 89.3771 11.976C88.8011 11.6453 88.1345 11.48 87.3771 11.48H84.4331V9.8H87.4251C88.2358 9.8 88.9878 9.944 89.6811 10.232C90.3745 10.5093 90.9771 10.904 91.4891 11.416C92.0118 11.9173 92.4171 12.5093 92.7051 13.192C92.9931 13.864 93.1371 14.6 93.1371 15.4C93.1371 16.1893 92.9931 16.9253 92.7051 17.608C92.4171 18.2907 92.0171 18.888 91.5051 19.4C90.9931 19.9013 90.3905 20.296 89.6971 20.584C89.0038 20.8613 88.2571 21 87.4571 21H84.4331ZM83.1691 21V9.8H85.0091V21H83.1691ZM98.3409 21.16C97.5729 21.16 96.8795 20.9893 96.2609 20.648C95.6529 20.296 95.1675 19.816 94.8049 19.208C94.4529 18.6 94.2769 17.9173 94.2769 17.16C94.2769 16.4027 94.4529 15.7253 94.8049 15.128C95.1569 14.52 95.6315 14.04 96.2289 13.688C96.8369 13.336 97.5089 13.16 98.2449 13.16C98.9595 13.16 99.5889 13.3253 100.133 13.656C100.688 13.9867 101.12 14.44 101.429 15.016C101.749 15.592 101.909 16.248 101.909 16.984C101.909 17.112 101.898 17.2453 101.877 17.384C101.866 17.512 101.845 17.656 101.813 17.816H95.5089V16.376H100.901L100.245 16.952C100.224 16.4827 100.133 16.088 99.9729 15.768C99.8129 15.448 99.5835 15.2027 99.2849 15.032C98.9969 14.8613 98.6395 14.776 98.2129 14.776C97.7649 14.776 97.3755 14.872 97.0449 15.064C96.7142 15.256 96.4582 15.528 96.2769 15.88C96.0955 16.2213 96.0049 16.632 96.0049 17.112C96.0049 17.592 96.1009 18.0133 96.2929 18.376C96.4849 18.7387 96.7569 19.0213 97.1089 19.224C97.4609 19.416 97.8662 19.512 98.3249 19.512C98.7195 19.512 99.0822 19.4427 99.4129 19.304C99.7542 19.1653 100.042 18.9627 100.277 18.696L101.397 19.832C101.024 20.2693 100.57 20.6 100.037 20.824C99.5035 21.048 98.9382 21.16 98.3409 21.16ZM104.285 21V10.12H106.045V21H104.285ZM102.445 14.92V13.32H107.885V14.92H102.445ZM112.161 21.16C111.467 21.16 110.838 20.984 110.273 20.632C109.718 20.28 109.275 19.8053 108.945 19.208C108.625 18.6 108.465 17.9227 108.465 17.176C108.465 16.4187 108.625 15.7413 108.945 15.144C109.275 14.536 109.718 14.056 110.273 13.704C110.838 13.3413 111.467 13.16 112.161 13.16C112.747 13.16 113.265 13.288 113.713 13.544C114.171 13.7893 114.534 14.1307 114.801 14.568C115.067 15.0053 115.201 15.5013 115.201 16.056V18.264C115.201 18.8187 115.067 19.3147 114.801 19.752C114.545 20.1893 114.187 20.536 113.729 20.792C113.27 21.0373 112.747 21.16 112.161 21.16ZM112.449 19.496C113.099 19.496 113.622 19.2773 114.017 18.84C114.422 18.4027 114.625 17.8427 114.625 17.16C114.625 16.7013 114.534 16.296 114.353 15.944C114.171 15.592 113.915 15.32 113.585 15.128C113.265 14.9253 112.886 14.824 112.449 14.824C112.022 14.824 111.643 14.9253 111.313 15.128C110.993 15.32 110.737 15.592 110.545 15.944C110.363 16.296 110.273 16.7013 110.273 17.16C110.273 17.6187 110.363 18.024 110.545 18.376C110.737 18.728 110.993 19.0053 111.313 19.208C111.643 19.4 112.022 19.496 112.449 19.496ZM114.513 21V18.936L114.817 17.064L114.513 15.208V13.32H116.273V21H114.513ZM118.242 21V13.32H120.002V21H118.242ZM119.122 11.912C118.823 11.912 118.573 11.8107 118.37 11.608C118.178 11.4053 118.082 11.1547 118.082 10.856C118.082 10.5573 118.178 10.3067 118.37 10.104C118.573 9.90133 118.823 9.8 119.122 9.8C119.431 9.8 119.682 9.90133 119.874 10.104C120.066 10.3067 120.162 10.5573 120.162 10.856C120.162 11.1547 120.066 11.4053 119.874 11.608C119.682 11.8107 119.431 11.912 119.122 11.912ZM121.976 21V9.48H123.736V21H121.976ZM128.207 21.16C127.78 21.16 127.369 21.1067 126.975 21C126.58 20.8827 126.217 20.7227 125.887 20.52C125.556 20.3067 125.268 20.0507 125.023 19.752L126.143 18.632C126.409 18.9413 126.713 19.176 127.055 19.336C127.407 19.4853 127.801 19.56 128.239 19.56C128.633 19.56 128.932 19.5013 129.135 19.384C129.337 19.2667 129.439 19.096 129.439 18.872C129.439 18.6373 129.343 18.456 129.151 18.328C128.959 18.2 128.708 18.0933 128.399 18.008C128.1 17.912 127.78 17.816 127.439 17.72C127.108 17.624 126.788 17.496 126.479 17.336C126.18 17.1653 125.935 16.936 125.743 16.648C125.551 16.36 125.455 15.9867 125.455 15.528C125.455 15.0373 125.567 14.616 125.791 14.264C126.025 13.912 126.351 13.64 126.767 13.448C127.193 13.256 127.7 13.16 128.287 13.16C128.905 13.16 129.449 13.272 129.919 13.496C130.399 13.7093 130.799 14.0347 131.119 14.472L129.999 15.592C129.775 15.3147 129.519 15.1067 129.231 14.968C128.943 14.8293 128.612 14.76 128.239 14.76C127.887 14.76 127.615 14.8133 127.423 14.92C127.231 15.0267 127.135 15.1813 127.135 15.384C127.135 15.5973 127.231 15.7627 127.423 15.88C127.615 15.9973 127.86 16.0987 128.159 16.184C128.468 16.2693 128.788 16.3653 129.119 16.472C129.46 16.568 129.78 16.7067 130.079 16.888C130.388 17.0587 130.639 17.2933 130.831 17.592C131.023 17.88 131.119 18.2587 131.119 18.728C131.119 19.4747 130.857 20.0667 130.335 20.504C129.812 20.9413 129.103 21.16 128.207 21.16Z" fill="black"/>
<g clip-path="url(#clip0_3_2)">
<path d="M0 21.6251C0.00138938 22.785 0.462772 23.897 1.28294 24.7172C2.10311 25.5374 3.2151 25.9987 4.375 26.0001H16.625C17.7849 25.9987 18.8969 25.5374 19.7171 24.7172C20.5372 23.897 20.9986 22.785 21 21.6251V13.7501H0V21.6251ZM14.875 17.6876C15.1346 17.6876 15.3883 17.7646 15.6042 17.9088C15.82 18.053 15.9883 18.258 16.0876 18.4979C16.1869 18.7377 16.2129 19.0016 16.1623 19.2562C16.1116 19.5108 15.9866 19.7446 15.8031 19.9282C15.6195 20.1118 15.3857 20.2368 15.1311 20.2874C14.8765 20.338 14.6126 20.3121 14.3727 20.2127C14.1329 20.1134 13.9279 19.9451 13.7837 19.7293C13.6395 19.5135 13.5625 19.2597 13.5625 19.0001C13.5625 18.652 13.7008 18.3182 13.9469 18.072C14.1931 17.8259 14.5269 17.6876 14.875 17.6876ZM10.5 17.6876C10.7596 17.6876 11.0133 17.7646 11.2292 17.9088C11.445 18.053 11.6133 18.258 11.7126 18.4979C11.8119 18.7377 11.8379 19.0016 11.7873 19.2562C11.7366 19.5108 11.6116 19.7446 11.4281 19.9282C11.2445 20.1118 11.0107 20.2368 10.7561 20.2874C10.5015 20.338 10.2376 20.3121 9.99773 20.2127C9.7579 20.1134 9.55292 19.9451 9.4087 19.7293C9.26448 19.5135 9.1875 19.2597 9.1875 19.0001C9.1875 18.652 9.32578 18.3182 9.57192 18.072C9.81806 17.8259 10.1519 17.6876 10.5 17.6876ZM6.125 17.6876C6.38459 17.6876 6.63835 17.7646 6.85419 17.9088C7.07003 18.053 7.23825 18.258 7.33759 18.4979C7.43693 18.7377 7.46292 19.0016 7.41228 19.2562C7.36164 19.5108 7.23663 19.7446 7.05308 19.9282C6.86952 20.1118 6.63566 20.2368 6.38106 20.2874C6.12646 20.338 5.86256 20.3121 5.62273 20.2127C5.3829 20.1134 5.17792 19.9451 5.0337 19.7293C4.88948 19.5135 4.8125 19.2597 4.8125 19.0001C4.8125 18.652 4.95078 18.3182 5.19692 18.072C5.44306 17.8259 5.7769 17.6876 6.125 17.6876Z" fill="#5307B4"/>
<path d="M16.625 6.75H15.75V5.875C15.75 5.64294 15.6578 5.42038 15.4937 5.25628C15.3296 5.09219 15.1071 5 14.875 5C14.6429 5 14.4204 5.09219 14.2563 5.25628C14.0922 5.42038 14 5.64294 14 5.875V6.75H7V5.875C7 5.64294 6.90781 5.42038 6.74372 5.25628C6.57962 5.09219 6.35706 5 6.125 5C5.89294 5 5.67038 5.09219 5.50628 5.25628C5.34219 5.42038 5.25 5.64294 5.25 5.875V6.75H4.375C3.2151 6.75139 2.10311 7.21277 1.28294 8.03294C0.462772 8.85311 0.00138938 9.9651 0 11.125L0 12H21V11.125C20.9986 9.9651 20.5372 8.85311 19.7171 8.03294C18.8969 7.21277 17.7849 6.75139 16.625 6.75Z" fill="#5307B4"/>
</g>
<defs>
<clipPath id="clip0_3_2">
<rect width="21" height="21" fill="white" transform="translate(0 5)"/>
</clipPath>
</defs>
</svg>
