<svg width="158" height="21" viewBox="0 0 158 21" fill="none" xmlns="http://www.w3.org/2000/svg">
<path d="M40.304 16.16C39.4933 16.16 38.7413 16.016 38.048 15.728C37.3653 15.4293 36.768 15.0187 36.256 14.496C35.744 13.9627 35.3493 13.3493 35.072 12.656C34.7947 11.952 34.656 11.2 34.656 10.4C34.656 9.6 34.7947 8.85333 35.072 8.16C35.3493 7.456 35.744 6.84267 36.256 6.32C36.768 5.79733 37.3653 5.38667 38.048 5.088C38.7413 4.78933 39.4933 4.64 40.304 4.64C41.2107 4.64 41.9947 4.78933 42.656 5.088C43.3173 5.38667 43.904 5.792 44.416 6.304L43.168 7.552C42.8373 7.18933 42.432 6.90667 41.952 6.704C41.4827 6.50133 40.9333 6.4 40.304 6.4C39.7493 6.4 39.2427 6.496 38.784 6.688C38.3253 6.88 37.9253 7.15733 37.584 7.52C37.2533 7.872 36.9973 8.29333 36.816 8.784C36.6347 9.27467 36.544 9.81333 36.544 10.4C36.544 10.9867 36.6347 11.5253 36.816 12.016C36.9973 12.5067 37.2533 12.9333 37.584 13.296C37.9253 13.648 38.3253 13.92 38.784 14.112C39.2427 14.304 39.7493 14.4 40.304 14.4C40.9867 14.4 41.5627 14.2987 42.032 14.096C42.512 13.8827 42.9173 13.5947 43.248 13.232L44.496 14.48C43.984 15.0027 43.3813 15.4133 42.688 15.712C41.9947 16.0107 41.2 16.16 40.304 16.16ZM49.1835 16.16C48.4368 16.16 47.7595 15.984 47.1515 15.632C46.5435 15.2693 46.0582 14.784 45.6955 14.176C45.3435 13.568 45.1675 12.8907 45.1675 12.144C45.1675 11.3973 45.3435 10.7253 45.6955 10.128C46.0582 9.53067 46.5435 9.056 47.1515 8.704C47.7595 8.34133 48.4368 8.16 49.1835 8.16C49.9408 8.16 50.6235 8.336 51.2315 8.688C51.8395 9.04 52.3195 9.52 52.6715 10.128C53.0342 10.7253 53.2155 11.3973 53.2155 12.144C53.2155 12.8907 53.0342 13.568 52.6715 14.176C52.3195 14.784 51.8395 15.2693 51.2315 15.632C50.6235 15.984 49.9408 16.16 49.1835 16.16ZM49.1835 14.464C49.6208 14.464 50.0048 14.368 50.3355 14.176C50.6768 13.9733 50.9382 13.696 51.1195 13.344C51.3115 12.992 51.4075 12.592 51.4075 12.144C51.4075 11.696 51.3115 11.3013 51.1195 10.96C50.9275 10.6187 50.6662 10.352 50.3355 10.16C50.0048 9.95733 49.6208 9.856 49.1835 9.856C48.7568 9.856 48.3728 9.95733 48.0315 10.16C47.7008 10.352 47.4395 10.6187 47.2475 10.96C47.0662 11.3013 46.9755 11.696 46.9755 12.144C46.9755 12.592 47.0662 12.992 47.2475 13.344C47.4395 13.696 47.7008 13.9733 48.0315 14.176C48.3728 14.368 48.7568 14.464 49.1835 14.464ZM57.8311 16.16C57.1805 16.16 56.5991 16.016 56.0871 15.728C55.5858 15.44 55.1911 15.0453 54.9031 14.544C54.6258 14.032 54.4871 13.4453 54.4871 12.784V8.32H56.2471V12.704C56.2471 13.0773 56.3058 13.3973 56.4231 13.664C56.5511 13.92 56.7325 14.1173 56.9671 14.256C57.2125 14.3947 57.5005 14.464 57.8311 14.464C58.3431 14.464 58.7325 14.3147 58.9991 14.016C59.2765 13.7067 59.4151 13.2693 59.4151 12.704V8.32H61.1751V12.784C61.1751 13.456 61.0311 14.048 60.7431 14.56C60.4658 15.0613 60.0765 15.456 59.5751 15.744C59.0738 16.0213 58.4925 16.16 57.8311 16.16ZM62.9448 16V8.32H64.7048V16H62.9448ZM64.7048 11.728L64.0968 11.424C64.0968 10.4533 64.3101 9.66933 64.7368 9.072C65.1741 8.464 65.8301 8.16 66.7048 8.16C67.0888 8.16 67.4354 8.22933 67.7448 8.368C68.0541 8.50667 68.3421 8.73067 68.6088 9.04L67.4568 10.224C67.3181 10.0747 67.1634 9.968 66.9928 9.904C66.8221 9.84 66.6248 9.808 66.4008 9.808C65.9101 9.808 65.5048 9.96267 65.1848 10.272C64.8648 10.5813 64.7048 11.0667 64.7048 11.728ZM71.8005 16.16C71.3738 16.16 70.9632 16.1067 70.5685 16C70.1738 15.8827 69.8112 15.7227 69.4805 15.52C69.1498 15.3067 68.8618 15.0507 68.6165 14.752L69.7365 13.632C70.0032 13.9413 70.3072 14.176 70.6485 14.336C71.0005 14.4853 71.3952 14.56 71.8325 14.56C72.2272 14.56 72.5258 14.5013 72.7285 14.384C72.9312 14.2667 73.0325 14.096 73.0325 13.872C73.0325 13.6373 72.9365 13.456 72.7445 13.328C72.5525 13.2 72.3018 13.0933 71.9925 13.008C71.6938 12.912 71.3738 12.816 71.0325 12.72C70.7018 12.624 70.3818 12.496 70.0725 12.336C69.7738 12.1653 69.5285 11.936 69.3365 11.648C69.1445 11.36 69.0485 10.9867 69.0485 10.528C69.0485 10.0373 69.1605 9.616 69.3845 9.264C69.6192 8.912 69.9445 8.64 70.3605 8.448C70.7872 8.256 71.2938 8.16 71.8805 8.16C72.4992 8.16 73.0432 8.272 73.5125 8.496C73.9925 8.70933 74.3925 9.03467 74.7125 9.472L73.5925 10.592C73.3685 10.3147 73.1125 10.1067 72.8245 9.968C72.5365 9.82933 72.2058 9.76 71.8325 9.76C71.4805 9.76 71.2085 9.81333 71.0165 9.92C70.8245 10.0267 70.7285 10.1813 70.7285 10.384C70.7285 10.5973 70.8245 10.7627 71.0165 10.88C71.2085 10.9973 71.4538 11.0987 71.7525 11.184C72.0618 11.2693 72.3818 11.3653 72.7125 11.472C73.0538 11.568 73.3738 11.7067 73.6725 11.888C73.9818 12.0587 74.2325 12.2933 74.4245 12.592C74.6165 12.88 74.7125 13.2587 74.7125 13.728C74.7125 14.4747 74.4512 15.0667 73.9285 15.504C73.4058 15.9413 72.6965 16.16 71.8005 16.16ZM79.7315 16.16C78.9635 16.16 78.2702 15.9893 77.6515 15.648C77.0435 15.296 76.5582 14.816 76.1955 14.208C75.8435 13.6 75.6675 12.9173 75.6675 12.16C75.6675 11.4027 75.8435 10.7253 76.1955 10.128C76.5475 9.52 77.0222 9.04 77.6195 8.688C78.2275 8.336 78.8995 8.16 79.6355 8.16C80.3502 8.16 80.9795 8.32533 81.5235 8.656C82.0782 8.98667 82.5102 9.44 82.8195 10.016C83.1395 10.592 83.2995 11.248 83.2995 11.984C83.2995 12.112 83.2888 12.2453 83.2675 12.384C83.2568 12.512 83.2355 12.656 83.2035 12.816H76.8995V11.376H82.2915L81.6355 11.952C81.6142 11.4827 81.5235 11.088 81.3635 10.768C81.2035 10.448 80.9742 10.2027 80.6755 10.032C80.3875 9.86133 80.0302 9.776 79.6035 9.776C79.1555 9.776 78.7662 9.872 78.4355 10.064C78.1048 10.256 77.8488 10.528 77.6675 10.88C77.4862 11.2213 77.3955 11.632 77.3955 12.112C77.3955 12.592 77.4915 13.0133 77.6835 13.376C77.8755 13.7387 78.1475 14.0213 78.4995 14.224C78.8515 14.416 79.2568 14.512 79.7155 14.512C80.1102 14.512 80.4728 14.4427 80.8035 14.304C81.1448 14.1653 81.4328 13.9627 81.6675 13.696L82.7875 14.832C82.4142 15.2693 81.9608 15.6 81.4275 15.824C80.8942 16.048 80.3288 16.16 79.7315 16.16ZM88.1535 16V4.8H89.9935V16H88.1535ZM95.2735 16V4.8H97.1135V16H95.2735ZM89.4175 11.04V9.36H95.6735V11.04H89.4175ZM99.3201 16V8.32H101.08V16H99.3201ZM100.2 6.912C99.9015 6.912 99.6508 6.81067 99.4481 6.608C99.2561 6.40533 99.1601 6.15467 99.1601 5.856C99.1601 5.55733 99.2561 5.30667 99.4481 5.104C99.6508 4.90133 99.9015 4.8 100.2 4.8C100.509 4.8 100.76 4.90133 100.952 5.104C101.144 5.30667 101.24 5.55733 101.24 5.856C101.24 6.15467 101.144 6.40533 100.952 6.608C100.76 6.81067 100.509 6.912 100.2 6.912ZM106.254 19.36C105.443 19.36 104.734 19.2107 104.126 18.912C103.518 18.624 103.027 18.2133 102.654 17.68L103.806 16.528C104.115 16.912 104.467 17.2 104.862 17.392C105.257 17.584 105.731 17.68 106.286 17.68C106.979 17.68 107.529 17.4987 107.934 17.136C108.339 16.784 108.542 16.2987 108.542 15.68V13.792L108.846 12.096L108.542 10.384V8.32H110.302V15.68C110.302 16.416 110.131 17.056 109.79 17.6C109.449 18.1547 108.974 18.5867 108.366 18.896C107.758 19.2053 107.054 19.36 106.254 19.36ZM106.174 15.84C105.491 15.84 104.873 15.6747 104.318 15.344C103.774 15.0027 103.342 14.5387 103.022 13.952C102.713 13.3653 102.558 12.7093 102.558 11.984C102.558 11.2587 102.713 10.608 103.022 10.032C103.342 9.456 103.774 9.00267 104.318 8.672C104.873 8.33067 105.491 8.16 106.174 8.16C106.782 8.16 107.315 8.28267 107.774 8.528C108.233 8.77333 108.59 9.11467 108.846 9.552C109.102 9.97867 109.23 10.48 109.23 11.056V12.944C109.23 13.5093 109.097 14.0107 108.83 14.448C108.574 14.8853 108.217 15.2267 107.758 15.472C107.299 15.7173 106.771 15.84 106.174 15.84ZM106.526 14.176C106.953 14.176 107.326 14.0853 107.646 13.904C107.966 13.7227 108.211 13.472 108.382 13.152C108.563 12.8213 108.654 12.4373 108.654 12C108.654 11.5627 108.563 11.184 108.382 10.864C108.211 10.5333 107.966 10.2773 107.646 10.096C107.326 9.91467 106.953 9.824 106.526 9.824C106.099 9.824 105.721 9.91467 105.39 10.096C105.07 10.2773 104.819 10.5333 104.638 10.864C104.457 11.184 104.366 11.5627 104.366 12C104.366 12.4267 104.457 12.8053 104.638 13.136C104.819 13.4667 105.07 13.7227 105.39 13.904C105.721 14.0853 106.099 14.176 106.526 14.176ZM117.521 16V11.568C117.521 11.056 117.356 10.6347 117.025 10.304C116.705 9.97333 116.289 9.808 115.777 9.808C115.436 9.808 115.132 9.88267 114.865 10.032C114.599 10.1813 114.391 10.3893 114.241 10.656C114.092 10.9227 114.017 11.2267 114.017 11.568L113.329 11.184C113.329 10.5973 113.457 10.08 113.713 9.632C113.969 9.17333 114.321 8.816 114.769 8.56C115.228 8.29333 115.74 8.16 116.305 8.16C116.881 8.16 117.393 8.288 117.841 8.544C118.289 8.8 118.641 9.15733 118.897 9.616C119.153 10.064 119.281 10.5867 119.281 11.184V16H117.521ZM112.257 16V4.48H114.017V16H112.257ZM121.07 16V4.48H122.83V16H121.07ZM124.805 16V8.32H126.565V16H124.805ZM125.685 6.912C125.386 6.912 125.135 6.81067 124.933 6.608C124.741 6.40533 124.645 6.15467 124.645 5.856C124.645 5.55733 124.741 5.30667 124.933 5.104C125.135 4.90133 125.386 4.8 125.685 4.8C125.994 4.8 126.245 4.90133 126.437 5.104C126.629 5.30667 126.725 5.55733 126.725 5.856C126.725 6.15467 126.629 6.40533 126.437 6.608C126.245 6.81067 125.994 6.912 125.685 6.912ZM131.739 19.36C130.928 19.36 130.219 19.2107 129.611 18.912C129.003 18.624 128.512 18.2133 128.139 17.68L129.291 16.528C129.6 16.912 129.952 17.2 130.347 17.392C130.741 17.584 131.216 17.68 131.771 17.68C132.464 17.68 133.013 17.4987 133.419 17.136C133.824 16.784 134.027 16.2987 134.027 15.68V13.792L134.331 12.096L134.027 10.384V8.32H135.786V15.68C135.786 16.416 135.616 17.056 135.275 17.6C134.933 18.1547 134.459 18.5867 133.851 18.896C133.243 19.2053 132.539 19.36 131.739 19.36ZM131.659 15.84C130.976 15.84 130.357 15.6747 129.803 15.344C129.259 15.0027 128.827 14.5387 128.507 13.952C128.197 13.3653 128.043 12.7093 128.043 11.984C128.043 11.2587 128.197 10.608 128.507 10.032C128.827 9.456 129.259 9.00267 129.803 8.672C130.357 8.33067 130.976 8.16 131.659 8.16C132.267 8.16 132.8 8.28267 133.259 8.528C133.717 8.77333 134.075 9.11467 134.331 9.552C134.587 9.97867 134.715 10.48 134.715 11.056V12.944C134.715 13.5093 134.581 14.0107 134.315 14.448C134.059 14.8853 133.701 15.2267 133.243 15.472C132.784 15.7173 132.256 15.84 131.659 15.84ZM132.011 14.176C132.437 14.176 132.811 14.0853 133.131 13.904C133.451 13.7227 133.696 13.472 133.867 13.152C134.048 12.8213 134.139 12.4373 134.139 12C134.139 11.5627 134.048 11.184 133.867 10.864C133.696 10.5333 133.451 10.2773 133.131 10.096C132.811 9.91467 132.437 9.824 132.011 9.824C131.584 9.824 131.205 9.91467 130.875 10.096C130.555 10.2773 130.304 10.5333 130.123 10.864C129.941 11.184 129.851 11.5627 129.851 12C129.851 12.4267 129.941 12.8053 130.123 13.136C130.304 13.4667 130.555 13.7227 130.875 13.904C131.205 14.0853 131.584 14.176 132.011 14.176ZM143.006 16V11.568C143.006 11.056 142.84 10.6347 142.51 10.304C142.19 9.97333 141.774 9.808 141.262 9.808C140.92 9.808 140.616 9.88267 140.35 10.032C140.083 10.1813 139.875 10.3893 139.726 10.656C139.576 10.9227 139.502 11.2267 139.502 11.568L138.814 11.184C138.814 10.5973 138.942 10.08 139.198 9.632C139.454 9.17333 139.806 8.816 140.254 8.56C140.712 8.29333 141.224 8.16 141.79 8.16C142.366 8.16 142.878 8.288 143.326 8.544C143.774 8.8 144.126 9.15733 144.382 9.616C144.638 10.064 144.766 10.5867 144.766 11.184V16H143.006ZM137.742 16V4.48H139.502V16H137.742ZM147.628 16V5.12H149.388V16H147.628ZM145.788 9.92V8.32H151.228V9.92H145.788ZM154.863 16.16C154.436 16.16 154.026 16.1067 153.631 16C153.236 15.8827 152.874 15.7227 152.543 15.52C152.212 15.3067 151.924 15.0507 151.679 14.752L152.799 13.632C153.066 13.9413 153.37 14.176 153.711 14.336C154.063 14.4853 154.458 14.56 154.895 14.56C155.29 14.56 155.588 14.5013 155.791 14.384C155.994 14.2667 156.095 14.096 156.095 13.872C156.095 13.6373 155.999 13.456 155.807 13.328C155.615 13.2 155.364 13.0933 155.055 13.008C154.756 12.912 154.436 12.816 154.095 12.72C153.764 12.624 153.444 12.496 153.135 12.336C152.836 12.1653 152.591 11.936 152.399 11.648C152.207 11.36 152.111 10.9867 152.111 10.528C152.111 10.0373 152.223 9.616 152.447 9.264C152.682 8.912 153.007 8.64 153.423 8.448C153.85 8.256 154.356 8.16 154.943 8.16C155.562 8.16 156.106 8.272 156.575 8.496C157.055 8.70933 157.455 9.03467 157.775 9.472L156.655 10.592C156.431 10.3147 156.175 10.1067 155.887 9.968C155.599 9.82933 155.268 9.76 154.895 9.76C154.543 9.76 154.271 9.81333 154.079 9.92C153.887 10.0267 153.791 10.1813 153.791 10.384C153.791 10.5973 153.887 10.7627 154.079 10.88C154.271 10.9973 154.516 11.0987 154.815 11.184C155.124 11.2693 155.444 11.3653 155.775 11.472C156.116 11.568 156.436 11.7067 156.735 11.888C157.044 12.0587 157.295 12.2933 157.487 12.592C157.679 12.88 157.775 13.2587 157.775 13.728C157.775 14.4747 157.514 15.0667 156.991 15.504C156.468 15.9413 155.759 16.16 154.863 16.16Z" fill="black"/>
<g clip-path="url(#clip0_3_2)">
<path d="M20.9999 7.42034V17.5003C20.9999 17.7324 20.9077 17.955 20.7436 18.1191C20.5795 18.2832 20.357 18.3753 20.1249 18.3753C19.8929 18.3753 19.6703 18.2832 19.5062 18.1191C19.3421 17.955 19.2499 17.7324 19.2499 17.5003V10.2833L12.7749 13.3773C12.0922 13.7803 11.3128 13.9902 10.52 13.9846C9.68867 13.9859 8.87239 13.7625 8.15755 13.338L1.70005 10.2641C1.19244 9.99113 0.767131 9.58731 0.468241 9.09453C0.169351 8.60175 0.00777288 8.03796 0.000273495 7.46167C-0.00722589 6.88538 0.139626 6.31758 0.425592 5.81719C0.711558 5.31679 1.12622 4.90204 1.62655 4.61597C1.65017 4.60197 1.67555 4.58884 1.70005 4.57659L8.22492 1.46334C8.92935 1.05879 9.72884 0.849203 10.5411 0.856123C11.3534 0.863043 12.1492 1.08623 12.8467 1.50272L19.2998 4.57659C19.809 4.85832 20.2345 5.26985 20.5331 5.76933C20.8317 6.26881 20.9928 6.83845 20.9999 7.42034ZM10.5192 15.7328C9.39968 15.7353 8.29941 15.4419 7.3298 14.8823L3.49992 13.0545V15.417C3.50044 16.351 3.79949 17.2605 4.35342 18.0126C4.90735 18.7647 5.68717 19.3201 6.57905 19.5977C7.85334 19.9636 9.17424 20.1413 10.4999 20.1253C11.8258 20.1402 13.1467 19.9613 14.4208 19.5942C15.3127 19.3166 16.0925 18.7612 16.6464 18.0091C17.2004 17.257 17.4994 16.3475 17.4999 15.4135V13.0588L13.5983 14.9226C12.6617 15.4607 11.5993 15.7408 10.5192 15.7346V15.7328Z" fill="#5307B4"/>
</g>
<defs>
<clipPath id="clip0_3_2">
<rect width="21" height="21" fill="white"/>
</clipPath>
</defs>
</svg>
