<svg width="19" height="19" viewBox="0 0 19 19" fill="none" xmlns="http://www.w3.org/2000/svg">
<path d="M14.8519 3.32138C13.9725 2.1297 12.7859 1.19926 11.4188 0.629426C10.0518 0.0595919 8.55562 -0.128237 7.09014 0.085997C5.66475 0.288649 4.31718 0.860718 3.18132 1.74538C2.04545 2.63003 1.16081 3.79649 0.615289 5.12886C0.069765 6.46123 -0.117659 7.91315 0.0716363 9.34038C0.260931 10.7676 0.820357 12.1205 1.69434 13.2646C2.06646 13.7775 2.26133 14.3976 2.24945 15.0312V15.7596C2.24945 16.3564 2.48655 16.9288 2.90859 17.3509C3.33062 17.7729 3.90303 18.01 4.49989 18.01H9.75091C10.3478 18.01 10.9202 17.7729 11.3422 17.3509C11.7643 16.9288 12.0014 16.3564 12.0014 15.7596H12.3719C13.281 15.7574 14.1584 15.426 14.842 14.8268C15.5257 14.2276 15.9691 13.4011 16.0904 12.5002L16.2547 11.2587H16.5022C16.7004 11.2629 16.8974 11.2269 17.0813 11.153C17.2652 11.0791 17.4323 10.9688 17.5724 10.8286C17.7126 10.6884 17.823 10.5214 17.8969 10.3374C17.9708 10.1535 18.0067 9.95656 18.0025 9.75839C18.0025 8.69318 15.8031 4.49611 14.8519 3.32138ZM15.5968 9.75839C15.4149 9.75846 15.2393 9.8246 15.1025 9.94452C14.9658 10.0644 14.8772 10.23 14.8534 10.4103L14.6029 12.3044C14.53 12.8448 14.2639 13.3405 13.8537 13.6999C13.4436 14.0593 12.9172 14.258 12.3719 14.2593H11.2512C11.0523 14.2593 10.8615 14.3383 10.7208 14.479C10.5801 14.6197 10.5011 14.8105 10.5011 15.0094V15.7596C10.5011 15.9585 10.422 16.1493 10.2813 16.29C10.1407 16.4307 9.94986 16.5097 9.75091 16.5097H4.49989C4.30094 16.5097 4.11013 16.4307 3.96945 16.29C3.82877 16.1493 3.74974 15.9585 3.74974 15.7596V15.0312C3.76108 14.0681 3.45794 13.1276 2.88632 12.3524C2.17208 11.4168 1.71485 10.3107 1.56001 9.14385C1.40517 7.977 1.55809 6.78994 2.0036 5.70043C2.44911 4.61092 3.17172 3.65682 4.09977 2.93278C5.02781 2.20873 6.12903 1.7399 7.29418 1.57279C7.61234 1.52862 7.93317 1.50656 8.25437 1.50677C9.30844 1.50535 10.348 1.75239 11.2887 2.22784C12.2295 2.7033 13.0449 3.39379 13.6689 4.24331C14.8537 5.94794 15.8065 7.80255 16.5022 9.75839H15.5968ZM12.1514 6.01591C12.1023 5.93041 12.0369 5.85542 11.9588 5.79523C11.8807 5.73504 11.7916 5.69083 11.6964 5.66512C11.6012 5.63942 11.5019 5.63272 11.4042 5.64541C11.3064 5.6581 11.2121 5.68994 11.1267 5.7391L10.39 6.16219C10.008 5.77495 9.52773 5.49903 9.00077 5.36403V4.50736C9.00077 4.30841 8.92173 4.11761 8.78105 3.97693C8.64037 3.83625 8.44957 3.75721 8.25062 3.75721C8.05167 3.75721 7.86087 3.83625 7.72019 3.97693C7.57951 4.11761 7.50047 4.30841 7.50047 4.50736V5.36403C6.97271 5.49865 6.49162 5.77459 6.10895 6.16219L5.37231 5.7391C5.2869 5.68985 5.19262 5.6579 5.09487 5.64507C4.99711 5.63225 4.89779 5.63881 4.80256 5.66438C4.70734 5.68994 4.61809 5.73401 4.5399 5.79407C4.46171 5.85413 4.39611 5.929 4.34686 6.01441C4.2976 6.09981 4.26565 6.19409 4.25283 6.29185C4.24001 6.3896 4.24657 6.48893 4.27213 6.58415C4.2977 6.67937 4.34176 6.76862 4.40182 6.84682C4.46188 6.92501 4.53675 6.9906 4.62216 7.03986L5.36706 7.46819C5.29248 7.72498 5.25311 7.99071 5.25003 8.25809C5.25384 8.52558 5.29397 8.79131 5.36931 9.048L4.62441 9.47633C4.45192 9.57581 4.32601 9.73973 4.27438 9.93204C4.22275 10.1243 4.24963 10.3293 4.34911 10.5018C4.44858 10.6743 4.61251 10.8002 4.80481 10.8518C4.99712 10.9034 5.20207 10.8766 5.37456 10.7771L6.1112 10.354C6.49325 10.7412 6.97351 11.0172 7.50047 11.1522V12.0088C7.50047 12.2078 7.57951 12.3986 7.72019 12.5393C7.86087 12.6799 8.05167 12.759 8.25062 12.759C8.44957 12.759 8.64037 12.6799 8.78105 12.5393C8.92173 12.3986 9.00077 12.2078 9.00077 12.0088V11.1522C9.52853 11.0175 10.0096 10.7416 10.3923 10.354L11.1289 10.7771C11.2143 10.8263 11.3086 10.8583 11.4064 10.8711C11.5041 10.8839 11.6035 10.8774 11.6987 10.8518C11.7939 10.8262 11.8832 10.7822 11.9613 10.7221C12.0395 10.6621 12.1051 10.5872 12.1544 10.5018C12.2036 10.4164 12.2356 10.3221 12.2484 10.2243C12.2612 10.1266 12.2547 10.0273 12.2291 9.93204C12.2035 9.83682 12.1595 9.74756 12.0994 9.66937C12.0394 9.59118 11.9645 9.52559 11.8791 9.47633L11.1342 9.048C11.2088 8.79121 11.2481 8.52548 11.2512 8.25809C11.2474 7.99061 11.2073 7.72488 11.1319 7.46819L11.8768 7.03986C12.0489 6.94038 12.1745 6.77667 12.226 6.58469C12.2774 6.3927 12.2506 6.18813 12.1514 6.01591ZM8.25062 9.75839C7.95389 9.75839 7.66382 9.6704 7.4171 9.50554C7.17038 9.34069 6.97808 9.10637 6.86453 8.83223C6.75098 8.55809 6.72126 8.25643 6.77915 7.9654C6.83704 7.67437 6.97993 7.40705 7.18975 7.19723C7.39957 6.98741 7.6669 6.84452 7.95793 6.78663C8.24895 6.72874 8.55061 6.75845 8.82476 6.872C9.0989 6.98556 9.33321 7.17785 9.49807 7.42458C9.66292 7.6713 9.75091 7.96136 9.75091 8.25809C9.75091 8.656 9.59285 9.0376 9.31149 9.31896C9.03013 9.60032 8.64852 9.75839 8.25062 9.75839Z" fill="#B1860B"/>
</svg>
