<svg width="151" height="21" viewBox="0 0 151 21" fill="none" xmlns="http://www.w3.org/2000/svg">
<path d="M34.48 11.248V9.728H37.312C37.8773 9.728 38.3147 9.584 38.624 9.296C38.944 8.99733 39.104 8.58667 39.104 8.064C39.104 7.59467 38.9493 7.2 38.64 6.88C38.3307 6.56 37.8933 6.4 37.328 6.4H34.48V4.8H37.408C38.112 4.8 38.7307 4.944 39.264 5.232C39.7973 5.50933 40.208 5.89333 40.496 6.384C40.7947 6.864 40.944 7.41333 40.944 8.032C40.944 8.68267 40.7947 9.248 40.496 9.728C40.208 10.208 39.7973 10.5813 39.264 10.848C38.7307 11.1147 38.112 11.248 37.408 11.248H34.48ZM33.216 16V4.8H35.056V16H33.216ZM39.36 16L35.44 11.136L37.152 10.512L41.68 16H39.36ZM46.1378 16.16C45.3698 16.16 44.6764 15.9893 44.0578 15.648C43.4498 15.296 42.9644 14.816 42.6018 14.208C42.2498 13.6 42.0738 12.9173 42.0738 12.16C42.0738 11.4027 42.2498 10.7253 42.6018 10.128C42.9538 9.52 43.4284 9.04 44.0258 8.688C44.6338 8.336 45.3058 8.16 46.0418 8.16C46.7564 8.16 47.3858 8.32533 47.9298 8.656C48.4844 8.98667 48.9164 9.44 49.2258 10.016C49.5458 10.592 49.7058 11.248 49.7058 11.984C49.7058 12.112 49.6951 12.2453 49.6737 12.384C49.6631 12.512 49.6418 12.656 49.6098 12.816H43.3058V11.376H48.6978L48.0418 11.952C48.0204 11.4827 47.9298 11.088 47.7698 10.768C47.6098 10.448 47.3804 10.2027 47.0818 10.032C46.7938 9.86133 46.4364 9.776 46.0098 9.776C45.5618 9.776 45.1724 9.872 44.8418 10.064C44.5111 10.256 44.2551 10.528 44.0738 10.88C43.8924 11.2213 43.8018 11.632 43.8018 12.112C43.8018 12.592 43.8978 13.0133 44.0898 13.376C44.2818 13.7387 44.5538 14.0213 44.9058 14.224C45.2578 14.416 45.6631 14.512 46.1218 14.512C46.5164 14.512 46.8791 14.4427 47.2098 14.304C47.5511 14.1653 47.8391 13.9627 48.0738 13.696L49.1938 14.832C48.8204 15.2693 48.3671 15.6 47.8338 15.824C47.3004 16.048 46.7351 16.16 46.1378 16.16ZM53.6286 16.16C53.202 16.16 52.7913 16.1067 52.3966 16C52.002 15.8827 51.6393 15.7227 51.3086 15.52C50.978 15.3067 50.69 15.0507 50.4446 14.752L51.5646 13.632C51.8313 13.9413 52.1353 14.176 52.4766 14.336C52.8286 14.4853 53.2233 14.56 53.6606 14.56C54.0553 14.56 54.354 14.5013 54.5566 14.384C54.7593 14.2667 54.8606 14.096 54.8606 13.872C54.8606 13.6373 54.7646 13.456 54.5726 13.328C54.3806 13.2 54.13 13.0933 53.8206 13.008C53.522 12.912 53.202 12.816 52.8606 12.72C52.53 12.624 52.21 12.496 51.9006 12.336C51.602 12.1653 51.3566 11.936 51.1646 11.648C50.9726 11.36 50.8766 10.9867 50.8766 10.528C50.8766 10.0373 50.9886 9.616 51.2126 9.264C51.4473 8.912 51.7726 8.64 52.1886 8.448C52.6153 8.256 53.122 8.16 53.7086 8.16C54.3273 8.16 54.8713 8.272 55.3406 8.496C55.8206 8.70933 56.2206 9.03467 56.5406 9.472L55.4206 10.592C55.1966 10.3147 54.9406 10.1067 54.6526 9.968C54.3646 9.82933 54.034 9.76 53.6606 9.76C53.3086 9.76 53.0366 9.81333 52.8446 9.92C52.6526 10.0267 52.5566 10.1813 52.5566 10.384C52.5566 10.5973 52.6526 10.7627 52.8446 10.88C53.0366 10.9973 53.282 11.0987 53.5806 11.184C53.89 11.2693 54.21 11.3653 54.5406 11.472C54.882 11.568 55.202 11.7067 55.5006 11.888C55.81 12.0587 56.0606 12.2933 56.2526 12.592C56.4446 12.88 56.5406 13.2587 56.5406 13.728C56.5406 14.4747 56.2793 15.0667 55.7566 15.504C55.234 15.9413 54.5246 16.16 53.6286 16.16ZM61.5596 16.16C60.7916 16.16 60.0983 15.9893 59.4796 15.648C58.8716 15.296 58.3863 14.816 58.0236 14.208C57.6716 13.6 57.4956 12.9173 57.4956 12.16C57.4956 11.4027 57.6716 10.7253 58.0236 10.128C58.3756 9.52 58.8503 9.04 59.4476 8.688C60.0556 8.336 60.7276 8.16 61.4636 8.16C62.1783 8.16 62.8076 8.32533 63.3516 8.656C63.9063 8.98667 64.3383 9.44 64.6476 10.016C64.9676 10.592 65.1276 11.248 65.1276 11.984C65.1276 12.112 65.117 12.2453 65.0956 12.384C65.085 12.512 65.0636 12.656 65.0316 12.816H58.7276V11.376H64.1196L63.4636 11.952C63.4423 11.4827 63.3516 11.088 63.1916 10.768C63.0316 10.448 62.8023 10.2027 62.5036 10.032C62.2156 9.86133 61.8583 9.776 61.4316 9.776C60.9836 9.776 60.5943 9.872 60.2636 10.064C59.933 10.256 59.677 10.528 59.4956 10.88C59.3143 11.2213 59.2236 11.632 59.2236 12.112C59.2236 12.592 59.3196 13.0133 59.5116 13.376C59.7036 13.7387 59.9756 14.0213 60.3276 14.224C60.6796 14.416 61.085 14.512 61.5436 14.512C61.9383 14.512 62.301 14.4427 62.6316 14.304C62.973 14.1653 63.261 13.9627 63.4956 13.696L64.6156 14.832C64.2423 15.2693 63.789 15.6 63.2556 15.824C62.7223 16.048 62.157 16.16 61.5596 16.16ZM69.7545 16.16C69.0612 16.16 68.4318 15.984 67.8665 15.632C67.3118 15.28 66.8692 14.8053 66.5385 14.208C66.2185 13.6 66.0585 12.9227 66.0585 12.176C66.0585 11.4187 66.2185 10.7413 66.5385 10.144C66.8692 9.536 67.3118 9.056 67.8665 8.704C68.4318 8.34133 69.0612 8.16 69.7545 8.16C70.3412 8.16 70.8585 8.288 71.3065 8.544C71.7652 8.78933 72.1278 9.13067 72.3945 9.568C72.6612 10.0053 72.7945 10.5013 72.7945 11.056V13.264C72.7945 13.8187 72.6612 14.3147 72.3945 14.752C72.1385 15.1893 71.7812 15.536 71.3225 15.792C70.8638 16.0373 70.3412 16.16 69.7545 16.16ZM70.0425 14.496C70.6932 14.496 71.2158 14.2773 71.6105 13.84C72.0158 13.4027 72.2185 12.8427 72.2185 12.16C72.2185 11.7013 72.1278 11.296 71.9465 10.944C71.7652 10.592 71.5092 10.32 71.1785 10.128C70.8585 9.92533 70.4798 9.824 70.0425 9.824C69.6158 9.824 69.2372 9.92533 68.9065 10.128C68.5865 10.32 68.3305 10.592 68.1385 10.944C67.9572 11.296 67.8665 11.7013 67.8665 12.16C67.8665 12.6187 67.9572 13.024 68.1385 13.376C68.3305 13.728 68.5865 14.0053 68.9065 14.208C69.2372 14.4 69.6158 14.496 70.0425 14.496ZM72.1065 16V13.936L72.4105 12.064L72.1065 10.208V8.32H73.8665V16H72.1065ZM75.8198 16V8.32H77.5798V16H75.8198ZM77.5798 11.728L76.9718 11.424C76.9718 10.4533 77.1851 9.66933 77.6118 9.072C78.0491 8.464 78.7051 8.16 79.5798 8.16C79.9638 8.16 80.3104 8.22933 80.6198 8.368C80.9291 8.50667 81.2171 8.73067 81.4838 9.04L80.3318 10.224C80.1931 10.0747 80.0384 9.968 79.8678 9.904C79.6971 9.84 79.4998 9.808 79.2758 9.808C78.7851 9.808 78.3798 9.96267 78.0598 10.272C77.7398 10.5813 77.5798 11.0667 77.5798 11.728ZM85.637 16.16C84.8797 16.16 84.1917 15.984 83.573 15.632C82.965 15.28 82.485 14.8 82.133 14.192C81.781 13.584 81.605 12.9067 81.605 12.16C81.605 11.4027 81.781 10.7253 82.133 10.128C82.485 9.52 82.965 9.04 83.573 8.688C84.1917 8.336 84.8797 8.16 85.637 8.16C86.2343 8.16 86.789 8.27733 87.301 8.512C87.8237 8.736 88.2663 9.06133 88.629 9.488L87.477 10.656C87.253 10.3893 86.981 10.192 86.661 10.064C86.3517 9.92533 86.0103 9.856 85.637 9.856C85.1997 9.856 84.8103 9.95733 84.469 10.16C84.1383 10.352 83.877 10.6187 83.685 10.96C83.5037 11.3013 83.413 11.7013 83.413 12.16C83.413 12.608 83.5037 13.008 83.685 13.36C83.877 13.7013 84.1383 13.9733 84.469 14.176C84.8103 14.368 85.1997 14.464 85.637 14.464C86.0103 14.464 86.3517 14.4 86.661 14.272C86.981 14.1333 87.253 13.9307 87.477 13.664L88.629 14.832C88.2663 15.2587 87.8237 15.5893 87.301 15.824C86.789 16.048 86.2343 16.16 85.637 16.16ZM95.1619 16V11.568C95.1619 11.056 94.9965 10.6347 94.6659 10.304C94.3459 9.97333 93.9299 9.808 93.4179 9.808C93.0765 9.808 92.7725 9.88267 92.5059 10.032C92.2392 10.1813 92.0312 10.3893 91.8819 10.656C91.7325 10.9227 91.6579 11.2267 91.6579 11.568L90.9699 11.184C90.9699 10.5973 91.0979 10.08 91.3539 9.632C91.6099 9.17333 91.9619 8.816 92.4099 8.56C92.8685 8.29333 93.3805 8.16 93.9459 8.16C94.5219 8.16 95.0339 8.288 95.4819 8.544C95.9299 8.8 96.2819 9.15733 96.5379 9.616C96.7939 10.064 96.9219 10.5867 96.9219 11.184V16H95.1619ZM89.8979 16V4.48H91.6579V16H89.8979ZM103.418 16V14.32H106.362C107.13 14.32 107.802 14.1547 108.378 13.824C108.964 13.4933 109.418 13.0347 109.738 12.448C110.068 11.8507 110.234 11.1627 110.234 10.384C110.234 9.616 110.068 8.93867 109.738 8.352C109.407 7.76533 108.948 7.30667 108.362 6.976C107.786 6.64533 107.119 6.48 106.362 6.48H103.418V4.8H106.41C107.22 4.8 107.972 4.944 108.666 5.232C109.359 5.50933 109.962 5.904 110.474 6.416C110.996 6.91733 111.402 7.50933 111.69 8.192C111.978 8.864 112.122 9.6 112.122 10.4C112.122 11.1893 111.978 11.9253 111.69 12.608C111.402 13.2907 111.002 13.888 110.49 14.4C109.978 14.9013 109.375 15.296 108.682 15.584C107.988 15.8613 107.242 16 106.442 16H103.418ZM102.154 16V4.8H103.994V16H102.154ZM117.325 16.16C116.557 16.16 115.864 15.9893 115.245 15.648C114.637 15.296 114.152 14.816 113.789 14.208C113.437 13.6 113.261 12.9173 113.261 12.16C113.261 11.4027 113.437 10.7253 113.789 10.128C114.141 9.52 114.616 9.04 115.213 8.688C115.821 8.336 116.493 8.16 117.229 8.16C117.944 8.16 118.573 8.32533 119.117 8.656C119.672 8.98667 120.104 9.44 120.413 10.016C120.733 10.592 120.893 11.248 120.893 11.984C120.893 12.112 120.883 12.2453 120.861 12.384C120.851 12.512 120.829 12.656 120.797 12.816H114.493V11.376H119.885L119.229 11.952C119.208 11.4827 119.117 11.088 118.957 10.768C118.797 10.448 118.568 10.2027 118.269 10.032C117.981 9.86133 117.624 9.776 117.197 9.776C116.749 9.776 116.36 9.872 116.029 10.064C115.699 10.256 115.443 10.528 115.261 10.88C115.08 11.2213 114.989 11.632 114.989 12.112C114.989 12.592 115.085 13.0133 115.277 13.376C115.469 13.7387 115.741 14.0213 116.093 14.224C116.445 14.416 116.851 14.512 117.309 14.512C117.704 14.512 118.067 14.4427 118.397 14.304C118.739 14.1653 119.027 13.9627 119.261 13.696L120.381 14.832C120.008 15.2693 119.555 15.6 119.021 15.824C118.488 16.048 117.923 16.16 117.325 16.16ZM123.269 16V5.12H125.029V16H123.269ZM121.429 9.92V8.32H126.869V9.92H121.429ZM131.145 16.16C130.452 16.16 129.822 15.984 129.257 15.632C128.702 15.28 128.26 14.8053 127.929 14.208C127.609 13.6 127.449 12.9227 127.449 12.176C127.449 11.4187 127.609 10.7413 127.929 10.144C128.26 9.536 128.702 9.056 129.257 8.704C129.822 8.34133 130.452 8.16 131.145 8.16C131.732 8.16 132.249 8.288 132.697 8.544C133.156 8.78933 133.518 9.13067 133.785 9.568C134.052 10.0053 134.185 10.5013 134.185 11.056V13.264C134.185 13.8187 134.052 14.3147 133.785 14.752C133.529 15.1893 133.172 15.536 132.713 15.792C132.254 16.0373 131.732 16.16 131.145 16.16ZM131.433 14.496C132.084 14.496 132.606 14.2773 133.001 13.84C133.406 13.4027 133.609 12.8427 133.609 12.16C133.609 11.7013 133.518 11.296 133.337 10.944C133.156 10.592 132.9 10.32 132.569 10.128C132.249 9.92533 131.87 9.824 131.433 9.824C131.006 9.824 130.628 9.92533 130.297 10.128C129.977 10.32 129.721 10.592 129.529 10.944C129.348 11.296 129.257 11.7013 129.257 12.16C129.257 12.6187 129.348 13.024 129.529 13.376C129.721 13.728 129.977 14.0053 130.297 14.208C130.628 14.4 131.006 14.496 131.433 14.496ZM133.497 16V13.936L133.801 12.064L133.497 10.208V8.32H135.257V16H133.497ZM137.226 16V8.32H138.986V16H137.226ZM138.106 6.912C137.808 6.912 137.557 6.81067 137.354 6.608C137.162 6.40533 137.066 6.15467 137.066 5.856C137.066 5.55733 137.162 5.30667 137.354 5.104C137.557 4.90133 137.808 4.8 138.106 4.8C138.416 4.8 138.666 4.90133 138.858 5.104C139.05 5.30667 139.146 5.55733 139.146 5.856C139.146 6.15467 139.05 6.40533 138.858 6.608C138.666 6.81067 138.416 6.912 138.106 6.912ZM140.96 16V4.48H142.72V16H140.96ZM147.191 16.16C146.764 16.16 146.354 16.1067 145.959 16C145.564 15.8827 145.202 15.7227 144.871 15.52C144.54 15.3067 144.252 15.0507 144.007 14.752L145.127 13.632C145.394 13.9413 145.698 14.176 146.039 14.336C146.391 14.4853 146.786 14.56 147.223 14.56C147.618 14.56 147.916 14.5013 148.119 14.384C148.322 14.2667 148.423 14.096 148.423 13.872C148.423 13.6373 148.327 13.456 148.135 13.328C147.943 13.2 147.692 13.0933 147.383 13.008C147.084 12.912 146.764 12.816 146.423 12.72C146.092 12.624 145.772 12.496 145.463 12.336C145.164 12.1653 144.919 11.936 144.727 11.648C144.535 11.36 144.439 10.9867 144.439 10.528C144.439 10.0373 144.551 9.616 144.775 9.264C145.01 8.912 145.335 8.64 145.751 8.448C146.178 8.256 146.684 8.16 147.271 8.16C147.89 8.16 148.434 8.272 148.903 8.496C149.383 8.70933 149.783 9.03467 150.103 9.472L148.983 10.592C148.759 10.3147 148.503 10.1067 148.215 9.968C147.927 9.82933 147.596 9.76 147.223 9.76C146.871 9.76 146.599 9.81333 146.407 9.92C146.215 10.0267 146.119 10.1813 146.119 10.384C146.119 10.5973 146.215 10.7627 146.407 10.88C146.599 10.9973 146.844 11.0987 147.143 11.184C147.452 11.2693 147.772 11.3653 148.103 11.472C148.444 11.568 148.764 11.7067 149.063 11.888C149.372 12.0587 149.623 12.2933 149.815 12.592C150.007 12.88 150.103 13.2587 150.103 13.728C150.103 14.4747 149.842 15.0667 149.319 15.504C148.796 15.9413 148.087 16.16 147.191 16.16Z" fill="black"/>
<path d="M3.13474 13.6352C2.21192 12.7828 1.50802 11.7206 1.08262 10.5385C0.657225 9.35646 0.52285 8.08932 0.690868 6.84432C0.857001 5.58193 1.32676 4.37864 2.05988 3.3376C2.79301 2.29655 3.76763 1.4488 4.90021 0.866999C6.0328 0.285197 7.28957 -0.0133009 8.5628 -0.00291163C9.83604 0.0074777 11.0878 0.326445 12.2107 0.926651C13.3337 1.52686 14.2943 2.3904 15.0103 3.44327C15.7264 4.49614 16.1764 5.70693 16.322 6.97187C16.4675 8.23681 16.3041 9.51817 15.8458 10.7061C15.3876 11.8941 14.6481 12.9532 13.6907 13.7927C13.0743 14.3227 12.5957 14.9944 12.296 15.7501H9.37524V9.46407C9.88529 9.28375 10.3272 8.95025 10.6404 8.50919C10.9537 8.06812 11.123 7.54105 11.1252 7.00007C11.1252 6.76801 11.0331 6.54545 10.869 6.38136C10.7049 6.21726 10.4823 6.12507 10.2502 6.12507C10.0182 6.12507 9.79562 6.21726 9.63152 6.38136C9.46743 6.54545 9.37524 6.76801 9.37524 7.00007C9.37524 7.23214 9.28305 7.4547 9.11896 7.61879C8.95487 7.78289 8.73231 7.87507 8.50024 7.87507C8.26818 7.87507 8.04562 7.78289 7.88152 7.61879C7.71743 7.4547 7.62524 7.23214 7.62524 7.00007C7.62524 6.76801 7.53305 6.54545 7.36896 6.38136C7.20487 6.21726 6.98231 6.12507 6.75024 6.12507C6.51818 6.12507 6.29562 6.21726 6.13152 6.38136C5.96743 6.54545 5.87524 6.76801 5.87524 7.00007C5.87748 7.54105 6.04682 8.06812 6.36007 8.50919C6.67332 8.95025 7.1152 9.28375 7.62524 9.46407V15.7501H4.61787C4.28335 14.9455 3.77719 14.2238 3.13474 13.6352ZM5.00024 17.5001V17.7713C5.00117 18.6274 5.34164 19.4481 5.94694 20.0534C6.55225 20.6587 7.37296 20.9991 8.22899 21.0001H8.77149C9.62753 20.9991 10.4482 20.6587 11.0535 20.0534C11.6588 19.4481 11.9993 18.6274 12.0002 17.7713V17.5001H5.00024Z" fill="#5307B4"/>
</svg>
