<svg width="33" height="32" viewBox="0 0 33 32" fill="none" xmlns="http://www.w3.org/2000/svg">
<ellipse cx="16.0994" cy="16" rx="16.0994" ry="16" fill="white"/>
<path d="M31.6988 16C31.6988 24.5575 24.7176 31.5 16.0994 31.5C7.48116 31.5 0.5 24.5575 0.5 16C0.5 7.4425 7.48116 0.5 16.0994 0.5C24.7176 0.5 31.6988 7.4425 31.6988 16Z" stroke="#AAAFDD" stroke-opacity="0.42"/>
<g clip-path="url(#clip0_17_209)">
<path d="M22.3111 15.4167H19.9311C19.8856 15.0953 19.8016 14.7805 19.6808 14.4792L21.7382 13.2869C21.807 13.2499 21.8676 13.1995 21.9165 13.1386C21.9655 13.0777 22.0016 13.0077 22.023 12.9326C22.0443 12.8574 22.0503 12.7788 22.0407 12.7013C22.0311 12.6238 22.006 12.5491 21.9669 12.4814C21.9279 12.4138 21.8756 12.3547 21.8133 12.3077C21.751 12.2606 21.6798 12.2266 21.6041 12.2075C21.5284 12.1885 21.4496 12.1848 21.3725 12.1968C21.2953 12.2088 21.2213 12.2361 21.1549 12.2772L19.0957 13.4713C18.8989 13.2226 18.674 12.9975 18.4255 12.8004L19.619 10.7407C19.6909 10.6071 19.7079 10.4508 19.6665 10.3049C19.6251 10.159 19.5284 10.035 19.3971 9.95913C19.2658 9.88326 19.1101 9.86153 18.963 9.89853C18.8159 9.93553 18.689 10.0284 18.6092 10.1573L17.4152 12.2136C17.1139 12.0927 16.7992 12.0086 16.4777 11.9633V9.58333C16.4777 9.42862 16.4163 9.28025 16.3069 9.17085C16.1975 9.06146 16.0491 9 15.8944 9C15.7397 9 15.5913 9.06146 15.4819 9.17085C15.3725 9.28025 15.3111 9.42862 15.3111 9.58333V11.9633C14.9897 12.0086 14.6749 12.0927 14.3737 12.2136L13.1813 10.1562C13.1015 10.0272 12.9746 9.93436 12.8276 9.89736C12.6805 9.86036 12.5248 9.8821 12.3935 9.95796C12.2621 10.0338 12.1655 10.1579 12.1241 10.3038C12.0827 10.4497 12.0997 10.6059 12.1716 10.7395L13.3651 12.8004C13.1166 12.9975 12.8917 13.2226 12.6948 13.4713L10.6357 12.2772C10.5693 12.2361 10.4953 12.2088 10.4181 12.1968C10.3409 12.1848 10.2622 12.1885 10.1864 12.2075C10.1107 12.2266 10.0396 12.2606 9.97727 12.3077C9.91495 12.3547 9.86271 12.4138 9.82365 12.4814C9.78459 12.5491 9.7595 12.6238 9.74988 12.7013C9.74025 12.7788 9.74627 12.8574 9.7676 12.9326C9.78893 13.0077 9.82512 13.0777 9.87402 13.1386C9.92293 13.1995 9.98356 13.2499 10.0523 13.2869L12.108 14.4792C11.9872 14.7805 11.9032 15.0953 11.8577 15.4167H9.47774C9.32303 15.4167 9.17466 15.4781 9.06526 15.5875C8.95587 15.6969 8.89441 15.8453 8.89441 16C8.89441 16.1547 8.95587 16.3031 9.06526 16.4125C9.17466 16.5219 9.32303 16.5833 9.47774 16.5833H11.8577C11.9032 16.9047 11.9872 17.2195 12.108 17.5208L10.0506 18.7131C9.98181 18.7501 9.92118 18.8005 9.87227 18.8614C9.82337 18.9223 9.78718 18.9923 9.76585 19.0674C9.74452 19.1426 9.7385 19.2212 9.74813 19.2987C9.75775 19.3762 9.78284 19.4509 9.8219 19.5186C9.86096 19.5862 9.9132 19.6453 9.97552 19.6923C10.0378 19.7394 10.109 19.7734 10.1847 19.7925C10.2604 19.8115 10.3392 19.8152 10.4164 19.8032C10.4935 19.7912 10.5675 19.7639 10.6339 19.7228L12.6931 18.5287C12.8899 18.7774 13.1148 19.0025 13.3633 19.1996L12.1716 21.2593C12.0997 21.3929 12.0827 21.5492 12.1241 21.6951C12.1655 21.841 12.2621 21.965 12.3935 22.0409C12.5248 22.1167 12.6805 22.1385 12.8276 22.1015C12.9746 22.0645 13.1015 21.9716 13.1813 21.8427L14.3737 19.7852C14.6749 19.9063 14.9897 19.9907 15.3111 20.0367V22.4167C15.3111 22.5714 15.3725 22.7197 15.4819 22.8291C15.5913 22.9385 15.7397 23 15.8944 23C16.0491 23 16.1975 22.9385 16.3069 22.8291C16.4163 22.7197 16.4777 22.5714 16.4777 22.4167V20.0367C16.7991 19.9911 17.1138 19.9071 17.4152 19.7864L18.6075 21.8438C18.6873 21.9728 18.8142 22.0656 18.9613 22.1026C19.1083 22.1396 19.264 22.1179 19.3954 22.042C19.5267 21.9662 19.6233 21.8421 19.6647 21.6962C19.7061 21.5503 19.6891 21.3941 19.6172 21.2605L18.4237 19.2007C18.6722 19.0037 18.8971 18.7786 19.094 18.5299L21.1532 19.724C21.2196 19.7651 21.2935 19.7924 21.3707 19.8044C21.4479 19.8163 21.5266 19.8127 21.6024 19.7936C21.6781 19.7746 21.7492 19.7405 21.8115 19.6935C21.8739 19.6464 21.9261 19.5873 21.9652 19.5197C22.0042 19.4521 22.0293 19.3773 22.0389 19.2999C22.0486 19.2224 22.0425 19.1437 22.0212 19.0686C21.9999 18.9935 21.9637 18.9234 21.9148 18.8626C21.8659 18.8017 21.8053 18.7513 21.7365 18.7142L19.6791 17.5219C19.8005 17.2203 19.8852 16.9052 19.9311 16.5833H22.3111C22.4658 16.5833 22.6142 16.5219 22.7236 16.4125C22.833 16.3031 22.8944 16.1547 22.8944 16C22.8944 15.8453 22.833 15.6969 22.7236 15.5875C22.6142 15.4781 22.4658 15.4167 22.3111 15.4167ZM15.8944 18.9167C12.0397 18.7942 12.0409 13.2052 15.8944 13.0833C19.7491 13.2058 19.7479 18.7947 15.8944 18.9167Z" fill="#A8D020"/>
</g>
<defs>
<clipPath id="clip0_17_209">
<rect width="14" height="14" fill="white" transform="translate(8.89441 9)"/>
</clipPath>
</defs>
</svg>
