<svg width="18" height="17" viewBox="0 0 18 17" fill="none" xmlns="http://www.w3.org/2000/svg">
<g clip-path="url(#clip0_17_235)">
<path d="M0.941589 8.39411C0.941589 8.21596 1.01236 8.0451 1.13834 7.91912C1.26431 7.79314 1.43517 7.72237 1.61333 7.72237H5.64378C5.82193 7.72237 5.99279 7.79314 6.11877 7.91912C6.24474 8.0451 6.31552 8.21596 6.31552 8.39411C6.31552 8.57227 6.24474 8.74313 6.11877 8.8691C5.99279 8.99508 5.82193 9.06585 5.64378 9.06585H1.61333C1.43517 9.06585 1.26431 8.99508 1.13834 8.8691C1.01236 8.74313 0.941589 8.57227 0.941589 8.39411ZM14.9716 7.79425C15.3064 7.37585 15.536 6.88326 15.6412 6.3578C15.7464 5.83234 15.7241 5.28932 15.5761 4.77427C15.4282 4.25921 15.1589 3.78715 14.7908 3.39765C14.4227 3.00815 13.9667 2.71257 13.4608 2.53569C12.955 2.35882 12.4141 2.30581 11.8835 2.3811C11.3529 2.4564 10.8481 2.6578 10.4115 2.96843C9.97479 3.27906 9.61895 3.68986 9.3738 4.16638C9.12864 4.64291 9.00131 5.17126 9.00248 5.70715C9.00248 5.8853 9.07325 6.05617 9.19923 6.18214C9.32521 6.30812 9.49607 6.37889 9.67422 6.37889C9.85238 6.37889 10.0232 6.30812 10.1492 6.18214C10.2752 6.05617 10.346 5.8853 10.346 5.70715C10.346 5.30857 10.4642 4.91895 10.6856 4.58755C10.907 4.25615 11.2218 3.99785 11.59 3.84533C11.9582 3.6928 12.3634 3.65289 12.7543 3.73065C13.1453 3.80841 13.5043 4.00034 13.7862 4.28217C14.068 4.564 14.2599 4.92308 14.3377 5.314C14.4154 5.70491 14.3755 6.11011 14.223 6.47834C14.0705 6.84657 13.8122 7.16131 13.4808 7.38274C13.1494 7.60418 12.7598 7.72237 12.3612 7.72237H8.33074C8.15258 7.72237 7.98172 7.79314 7.85575 7.91912C7.72977 8.0451 7.659 8.21596 7.659 8.39411C7.659 8.57227 7.72977 8.74313 7.85575 8.8691C7.98172 8.99508 8.15258 9.06585 8.33074 9.06585H14.3764C14.7327 9.06585 15.0744 9.2074 15.3264 9.45935C15.5783 9.7113 15.7199 10.053 15.7199 10.4093C15.7138 11.9792 13.5159 12.1881 12.9946 10.8574C12.9353 10.6894 12.8117 10.5518 12.6509 10.475C12.4902 10.3981 12.3055 10.3883 12.1375 10.4476C11.9695 10.5069 11.8319 10.6306 11.7551 10.7913C11.6783 10.9521 11.6684 11.1368 11.7277 11.3048C12.7743 14.0468 17.0311 13.4852 17.0634 10.4093C17.0622 9.80102 16.8547 9.2111 16.4747 8.73607C16.0947 8.26103 15.5648 7.92899 14.9716 7.79425ZM8.33074 11.0811H1.61333C1.43517 11.0811 1.26431 11.1518 1.13834 11.2778C1.01236 11.4038 0.941589 11.5747 0.941589 11.7528C0.941589 11.931 1.01236 12.1018 1.13834 12.2278C1.26431 12.3538 1.43517 12.4246 1.61333 12.4246H8.33074C8.68705 12.4246 9.02877 12.5661 9.28073 12.8181C9.53268 13.07 9.67422 13.4117 9.67422 13.768C9.66818 15.3379 7.47024 15.5468 6.94897 14.2161C6.91959 14.1329 6.87412 14.0563 6.81515 13.9907C6.75618 13.9251 6.68486 13.8717 6.60526 13.8337C6.52567 13.7956 6.43936 13.7736 6.35127 13.7689C6.26317 13.7642 6.17501 13.777 6.09183 13.8063C6.00864 13.8357 5.93206 13.8812 5.86644 13.9401C5.80083 13.9991 5.74748 14.0704 5.70943 14.15C5.67138 14.2296 5.64938 14.3159 5.64468 14.404C5.63999 14.4921 5.65269 14.5803 5.68207 14.6635C6.72864 17.4055 10.9855 16.8439 11.0177 13.768C11.0177 13.0554 10.7346 12.372 10.2307 11.8681C9.72681 11.3642 9.04337 11.0811 8.33074 11.0811ZM1.61333 5.70715H5.64378C6.3564 5.70715 7.03984 5.42406 7.54375 4.92016C8.04765 4.41625 8.33074 3.73281 8.33074 3.02018C8.2985 -0.0570596 4.04033 -0.61662 2.9951 2.12475C2.93578 2.29276 2.94562 2.47744 3.02246 2.63819C3.09931 2.79893 3.23686 2.92257 3.40486 2.9819C3.57287 3.04122 3.75755 3.03138 3.9183 2.95453C4.07904 2.87769 4.20268 2.74014 4.26201 2.57213C4.78395 1.24074 6.98121 1.45033 6.98726 3.02018C6.98726 3.3765 6.84571 3.71822 6.59376 3.97017C6.34181 4.22212 6.00009 4.36367 5.64378 4.36367H1.61333C1.43517 4.36367 1.26431 4.43444 1.13834 4.56041C1.01236 4.68639 0.941589 4.85725 0.941589 5.03541C0.941589 5.21356 1.01236 5.38442 1.13834 5.5104C1.26431 5.63638 1.43517 5.70715 1.61333 5.70715Z" fill="#374957"/>
</g>
<defs>
<clipPath id="clip0_17_235">
<rect width="16.1218" height="16.1218" fill="white" transform="translate(0.941589 0.33374)"/>
</clipPath>
</defs>
</svg>
