<svg width="12" height="19" viewBox="0 0 12 19" fill="none" xmlns="http://www.w3.org/2000/svg">
<path d="M11.9979 6.01206C12 5.04088 11.7663 4.08369 11.3169 3.22276C10.8674 2.36183 10.2157 1.62289 9.41761 1.06943C8.61955 0.515971 7.69906 0.164548 6.73521 0.0453532C5.77136 -0.0738414 4.79298 0.042757 3.88415 0.38513C2.97531 0.727503 2.16318 1.28541 1.51754 2.01092C0.871908 2.73643 0.412071 3.60785 0.177543 4.55029C-0.0569856 5.49274 -0.0591925 6.47804 0.171112 7.42153C0.401416 8.36501 0.857345 9.23848 1.49972 9.96687V16.1353C1.49972 16.4884 1.59946 16.8344 1.78747 17.1334C1.97548 17.4323 2.24411 17.6721 2.56241 17.825C2.88071 17.978 3.23575 18.0379 3.58663 17.9979C3.93751 17.958 4.26996 17.8197 4.54569 17.599L5.76498 16.6242C5.83142 16.5712 5.91392 16.5423 5.99894 16.5423C6.08396 16.5423 6.16646 16.5712 6.2329 16.6242L7.45219 17.599C7.72792 17.8197 8.06037 17.958 8.41125 17.9979C8.76213 18.0379 9.11716 17.978 9.43547 17.825C9.75377 17.6721 10.0224 17.4323 10.2104 17.1334C10.3984 16.8344 10.4982 16.4884 10.4982 16.1353V9.96687C11.4642 8.87596 11.9977 7.46924 11.9979 6.01206ZM5.99894 1.51285C6.8888 1.51285 7.75868 1.77672 8.49857 2.2711C9.23846 2.76548 9.81514 3.46816 10.1557 4.29029C10.4962 5.11241 10.5853 6.01705 10.4117 6.88982C10.2381 7.76258 9.80959 8.56426 9.18037 9.19349C8.55114 9.82272 7.74945 10.2512 6.87669 10.4248C6.00393 10.5984 5.09929 10.5093 4.27716 10.1688C3.45504 9.82826 2.75236 9.25159 2.25798 8.51169C1.7636 7.7718 1.49972 6.90192 1.49972 6.01206C1.50092 4.81916 1.97532 3.67546 2.81883 2.83195C3.66234 1.98844 4.80604 1.51404 5.99894 1.51285ZM8.7862 16.4712C8.72276 16.5027 8.65159 16.5152 8.58124 16.5072C8.51088 16.4992 8.44432 16.4711 8.38952 16.4262L7.17024 15.4514C6.83838 15.1841 6.42507 15.0383 5.99894 15.0383C5.57281 15.0383 5.1595 15.1841 4.82764 15.4514L3.60911 16.4262C3.55408 16.4704 3.48772 16.4982 3.41763 16.5063C3.34754 16.5144 3.27658 16.5026 3.21291 16.4722C3.14923 16.4419 3.09542 16.3941 3.05766 16.3345C3.0199 16.2749 2.99973 16.2059 2.99946 16.1353V11.1997C3.90978 11.731 4.9449 12.011 5.99894 12.011C7.05298 12.011 8.0881 11.731 8.99842 11.1997V16.1353C8.99925 16.2058 8.97966 16.275 8.942 16.3347C8.90434 16.3943 8.85023 16.4417 8.7862 16.4712Z" fill="#B1860B"/>
</svg>
