<svg width="124" height="24" viewBox="0 0 124 24" fill="none" xmlns="http://www.w3.org/2000/svg">
<path d="M35.216 18V6.8H36.496L41.152 14.464H40.32L44.976 6.8H46.256V18H44.416V10.032L44.832 10.144L41.376 15.824H40.096L36.64 10.144L37.056 10.032V18H35.216ZM51.9648 18.16C51.2181 18.16 50.5408 17.984 49.9328 17.632C49.3248 17.2693 48.8394 16.784 48.4768 16.176C48.1248 15.568 47.9488 14.8907 47.9488 14.144C47.9488 13.3973 48.1248 12.7253 48.4768 12.128C48.8394 11.5307 49.3248 11.056 49.9328 10.704C50.5408 10.3413 51.2181 10.16 51.9648 10.16C52.7221 10.16 53.4048 10.336 54.0128 10.688C54.6208 11.04 55.1008 11.52 55.4528 12.128C55.8154 12.7253 55.9968 13.3973 55.9968 14.144C55.9968 14.8907 55.8154 15.568 55.4528 16.176C55.1008 16.784 54.6208 17.2693 54.0128 17.632C53.4048 17.984 52.7221 18.16 51.9648 18.16ZM51.9648 16.464C52.4021 16.464 52.7861 16.368 53.1168 16.176C53.4581 15.9733 53.7194 15.696 53.9008 15.344C54.0928 14.992 54.1888 14.592 54.1888 14.144C54.1888 13.696 54.0928 13.3013 53.9008 12.96C53.7088 12.6187 53.4474 12.352 53.1168 12.16C52.7861 11.9573 52.4021 11.856 51.9648 11.856C51.5381 11.856 51.1541 11.9573 50.8128 12.16C50.4821 12.352 50.2208 12.6187 50.0288 12.96C49.8474 13.3013 49.7568 13.696 49.7568 14.144C49.7568 14.592 49.8474 14.992 50.0288 15.344C50.2208 15.696 50.4821 15.9733 50.8128 16.176C51.1541 16.368 51.5381 16.464 51.9648 16.464ZM57.4604 18V10.32H59.2204V18H57.4604ZM59.2204 13.728L58.6124 13.424C58.6124 12.4533 58.8257 11.6693 59.2524 11.072C59.6897 10.464 60.3457 10.16 61.2204 10.16C61.6044 10.16 61.951 10.2293 62.2604 10.368C62.5697 10.5067 62.8577 10.7307 63.1244 11.04L61.9724 12.224C61.8337 12.0747 61.679 11.968 61.5084 11.904C61.3377 11.84 61.1404 11.808 60.9164 11.808C60.4257 11.808 60.0204 11.9627 59.7004 12.272C59.3804 12.5813 59.2204 13.0667 59.2204 13.728ZM67.3096 18.16C66.5416 18.16 65.8483 17.9893 65.2296 17.648C64.6216 17.296 64.1363 16.816 63.7736 16.208C63.4216 15.6 63.2456 14.9173 63.2456 14.16C63.2456 13.4027 63.4216 12.7253 63.7736 12.128C64.1256 11.52 64.6003 11.04 65.1976 10.688C65.8056 10.336 66.4776 10.16 67.2136 10.16C67.9283 10.16 68.5576 10.3253 69.1016 10.656C69.6563 10.9867 70.0883 11.44 70.3976 12.016C70.7176 12.592 70.8776 13.248 70.8776 13.984C70.8776 14.112 70.867 14.2453 70.8456 14.384C70.835 14.512 70.8136 14.656 70.7816 14.816H64.4776V13.376H69.8696L69.2136 13.952C69.1923 13.4827 69.1016 13.088 68.9416 12.768C68.7816 12.448 68.5523 12.2027 68.2536 12.032C67.9656 11.8613 67.6083 11.776 67.1816 11.776C66.7336 11.776 66.3443 11.872 66.0136 12.064C65.683 12.256 65.427 12.528 65.2456 12.88C65.0643 13.2213 64.9736 13.632 64.9736 14.112C64.9736 14.592 65.0696 15.0133 65.2616 15.376C65.4536 15.7387 65.7256 16.0213 66.0776 16.224C66.4296 16.416 66.835 16.512 67.2936 16.512C67.6883 16.512 68.051 16.4427 68.3816 16.304C68.723 16.1653 69.011 15.9627 69.2456 15.696L70.3656 16.832C69.9923 17.2693 69.539 17.6 69.0056 17.824C68.4723 18.048 67.907 18.16 67.3096 18.16ZM76.9956 18V16.32H79.9396C80.7076 16.32 81.3796 16.1547 81.9556 15.824C82.5423 15.4933 82.9956 15.0347 83.3156 14.448C83.6463 13.8507 83.8116 13.1627 83.8116 12.384C83.8116 11.616 83.6463 10.9387 83.3156 10.352C82.985 9.76533 82.5263 9.30667 81.9396 8.976C81.3636 8.64533 80.697 8.48 79.9396 8.48H76.9956V6.8H79.9876C80.7983 6.8 81.5503 6.944 82.2436 7.232C82.937 7.50933 83.5396 7.904 84.0516 8.416C84.5743 8.91733 84.9796 9.50933 85.2676 10.192C85.5556 10.864 85.6996 11.6 85.6996 12.4C85.6996 13.1893 85.5556 13.9253 85.2676 14.608C84.9796 15.2907 84.5796 15.888 84.0676 16.4C83.5556 16.9013 82.953 17.296 82.2596 17.584C81.5663 17.8613 80.8196 18 80.0196 18H76.9956ZM75.7316 18V6.8H77.5716V18H75.7316ZM90.9034 18.16C90.1354 18.16 89.442 17.9893 88.8234 17.648C88.2154 17.296 87.73 16.816 87.3674 16.208C87.0154 15.6 86.8394 14.9173 86.8394 14.16C86.8394 13.4027 87.0154 12.7253 87.3674 12.128C87.7194 11.52 88.194 11.04 88.7914 10.688C89.3994 10.336 90.0714 10.16 90.8074 10.16C91.522 10.16 92.1514 10.3253 92.6954 10.656C93.25 10.9867 93.682 11.44 93.9914 12.016C94.3114 12.592 94.4714 13.248 94.4714 13.984C94.4714 14.112 94.4607 14.2453 94.4394 14.384C94.4287 14.512 94.4074 14.656 94.3754 14.816H88.0714V13.376H93.4634L92.8074 13.952C92.786 13.4827 92.6954 13.088 92.5354 12.768C92.3754 12.448 92.146 12.2027 91.8474 12.032C91.5594 11.8613 91.202 11.776 90.7754 11.776C90.3274 11.776 89.938 11.872 89.6074 12.064C89.2767 12.256 89.0207 12.528 88.8394 12.88C88.658 13.2213 88.5674 13.632 88.5674 14.112C88.5674 14.592 88.6634 15.0133 88.8554 15.376C89.0474 15.7387 89.3194 16.0213 89.6714 16.224C90.0234 16.416 90.4287 16.512 90.8874 16.512C91.282 16.512 91.6447 16.4427 91.9754 16.304C92.3167 16.1653 92.6047 15.9627 92.8394 15.696L93.9594 16.832C93.586 17.2693 93.1327 17.6 92.5994 17.824C92.066 18.048 91.5007 18.16 90.9034 18.16ZM96.8471 18V7.12H98.6071V18H96.8471ZM95.0071 11.92V10.32H100.447V11.92H95.0071ZM104.723 18.16C104.03 18.16 103.401 17.984 102.835 17.632C102.281 17.28 101.838 16.8053 101.507 16.208C101.187 15.6 101.027 14.9227 101.027 14.176C101.027 13.4187 101.187 12.7413 101.507 12.144C101.838 11.536 102.281 11.056 102.835 10.704C103.401 10.3413 104.03 10.16 104.723 10.16C105.31 10.16 105.827 10.288 106.275 10.544C106.734 10.7893 107.097 11.1307 107.363 11.568C107.63 12.0053 107.763 12.5013 107.763 13.056V15.264C107.763 15.8187 107.63 16.3147 107.363 16.752C107.107 17.1893 106.75 17.536 106.291 17.792C105.833 18.0373 105.31 18.16 104.723 18.16ZM105.011 16.496C105.662 16.496 106.185 16.2773 106.579 15.84C106.985 15.4027 107.187 14.8427 107.187 14.16C107.187 13.7013 107.097 13.296 106.915 12.944C106.734 12.592 106.478 12.32 106.147 12.128C105.827 11.9253 105.449 11.824 105.011 11.824C104.585 11.824 104.206 11.9253 103.875 12.128C103.555 12.32 103.299 12.592 103.107 12.944C102.926 13.296 102.835 13.7013 102.835 14.16C102.835 14.6187 102.926 15.024 103.107 15.376C103.299 15.728 103.555 16.0053 103.875 16.208C104.206 16.4 104.585 16.496 105.011 16.496ZM107.075 18V15.936L107.379 14.064L107.075 12.208V10.32H108.835V18H107.075ZM110.805 18V10.32H112.565V18H110.805ZM111.685 8.912C111.386 8.912 111.135 8.81067 110.933 8.608C110.741 8.40533 110.645 8.15467 110.645 7.856C110.645 7.55733 110.741 7.30667 110.933 7.104C111.135 6.90133 111.386 6.8 111.685 6.8C111.994 6.8 112.245 6.90133 112.437 7.104C112.629 7.30667 112.725 7.55733 112.725 7.856C112.725 8.15467 112.629 8.40533 112.437 8.608C112.245 8.81067 111.994 8.912 111.685 8.912ZM114.539 18V6.48H116.299V18H114.539ZM120.769 18.16C120.343 18.16 119.932 18.1067 119.537 18C119.143 17.8827 118.78 17.7227 118.449 17.52C118.119 17.3067 117.831 17.0507 117.585 16.752L118.705 15.632C118.972 15.9413 119.276 16.176 119.617 16.336C119.969 16.4853 120.364 16.56 120.801 16.56C121.196 16.56 121.495 16.5013 121.697 16.384C121.9 16.2667 122.001 16.096 122.001 15.872C122.001 15.6373 121.905 15.456 121.713 15.328C121.521 15.2 121.271 15.0933 120.961 15.008C120.663 14.912 120.343 14.816 120.001 14.72C119.671 14.624 119.351 14.496 119.041 14.336C118.743 14.1653 118.497 13.936 118.305 13.648C118.113 13.36 118.017 12.9867 118.017 12.528C118.017 12.0373 118.129 11.616 118.353 11.264C118.588 10.912 118.913 10.64 119.329 10.448C119.756 10.256 120.263 10.16 120.849 10.16C121.468 10.16 122.012 10.272 122.481 10.496C122.961 10.7093 123.361 11.0347 123.681 11.472L122.561 12.592C122.337 12.3147 122.081 12.1067 121.793 11.968C121.505 11.8293 121.175 11.76 120.801 11.76C120.449 11.76 120.177 11.8133 119.985 11.92C119.793 12.0267 119.697 12.1813 119.697 12.384C119.697 12.5973 119.793 12.7627 119.985 12.88C120.177 12.9973 120.423 13.0987 120.721 13.184C121.031 13.2693 121.351 13.3653 121.681 13.472C122.023 13.568 122.343 13.7067 122.641 13.888C122.951 14.0587 123.201 14.2933 123.393 14.592C123.585 14.88 123.681 15.2587 123.681 15.728C123.681 16.4747 123.42 17.0667 122.897 17.504C122.375 17.9413 121.665 18.16 120.769 18.16Z" fill="black"/>
<path fill-rule="evenodd" clip-rule="evenodd" d="M14.6152 1.59495C14.9165 1.76289 15.0643 2.11463 14.9736 2.44736L12.982 9.75003H20.25C20.5487 9.75003 20.8189 9.92721 20.9379 10.2011C21.0569 10.475 21.0021 10.7934 20.7983 11.0118L10.2983 22.2618C10.063 22.5139 9.68604 22.573 9.38481 22.4051C9.08357 22.2372 8.9357 21.8854 9.02644 21.5527L11.0181 14.25H3.75002C3.45137 14.25 3.18118 14.0728 3.06216 13.7989C2.94313 13.525 2.99795 13.2066 3.20173 12.9883L13.7017 1.73829C13.937 1.48615 14.314 1.42701 14.6152 1.59495Z" fill="#5307B4"/>
</svg>
