<svg width="42" height="42" viewBox="0 0 42 42" fill="none" xmlns="http://www.w3.org/2000/svg">
<g clip-path="url(#clip0_0_1)">
<path d="M21.4994 20.5C22.1257 20.5 22.738 20.3143 23.2587 19.9663C23.7795 19.6184 24.1854 19.1238 24.4251 18.5452C24.6647 17.9665 24.7274 17.3298 24.6053 16.7155C24.4831 16.1013 24.1815 15.537 23.7386 15.0942C23.2957 14.6513 22.7315 14.3497 22.1172 14.2275C21.5029 14.1053 20.8662 14.168 20.2876 14.4077C19.709 14.6474 19.2144 15.0533 18.8664 15.574C18.5185 16.0948 18.3328 16.707 18.3328 17.3333C18.3328 18.1732 18.6664 18.9786 19.2603 19.5725C19.8541 20.1664 20.6596 20.5 21.4994 20.5ZM21.4994 15.75C21.8126 15.75 22.1187 15.8429 22.3791 16.0168C22.6395 16.1908 22.8424 16.4381 22.9622 16.7274C23.0821 17.0167 23.1134 17.3351 23.0523 17.6422C22.9912 17.9494 22.8405 18.2315 22.619 18.4529C22.3976 18.6744 22.1155 18.8251 21.8083 18.8862C21.5012 18.9473 21.1828 18.916 20.8935 18.7961C20.6042 18.6763 20.3569 18.4734 20.1829 18.213C20.009 17.9526 19.9161 17.6465 19.9161 17.3333C19.9161 16.9134 20.0829 16.5107 20.3798 16.2137C20.6768 15.9168 21.0795 15.75 21.4994 15.75ZM28.3553 18.2493L27.7861 18.0601C27.8885 17.1734 27.8023 16.275 27.5332 15.4239C27.2641 14.5728 26.8181 13.7882 26.2245 13.1216C25.6309 12.4549 24.9031 11.9213 24.0888 11.5557C23.2745 11.1901 22.3921 11.0007 21.4994 11C20.5952 11.0003 19.7015 11.1945 18.8786 11.5694C18.0556 11.9443 17.3227 12.4912 16.7289 13.1733C16.1352 13.8553 15.6946 14.6567 15.4368 15.5235C15.1789 16.3902 15.1098 17.3021 15.2342 18.1978C14.4766 18.3391 13.776 18.6965 13.217 19.227C12.83 19.5949 12.5224 20.0381 12.313 20.5293C12.1036 21.0205 11.9969 21.5494 11.9994 22.0833V25.3094C12.0011 26.1654 12.2795 26.998 12.7932 27.6828C13.3068 28.3677 14.0281 28.8681 14.8494 29.1094L17.1215 29.8219C17.5031 29.9406 17.9006 30.0007 18.3003 30C18.6629 29.9995 19.0237 29.95 19.373 29.8527L23.9488 28.499C24.3565 28.3877 24.7865 28.3877 25.1941 28.499L27.0838 29.1323C27.5496 29.2457 28.035 29.2518 28.5034 29.1503C28.9719 29.0488 29.4112 28.8423 29.7882 28.5463C30.1652 28.2503 30.4702 27.8726 30.68 27.4416C30.8898 27.0106 30.999 26.5376 30.9994 26.0583V21.982C30.9976 21.1629 30.7426 20.3645 30.2692 19.6961C29.7958 19.0277 29.1273 18.5221 28.3553 18.2485V18.2493ZM18.1412 13.9782C18.5816 13.5361 19.1049 13.1853 19.6812 12.9459C20.2575 12.7065 20.8754 12.5832 21.4994 12.5832C22.1235 12.5832 22.7414 12.7065 23.3177 12.9459C23.894 13.1853 24.4173 13.5361 24.8577 13.9782C25.7461 14.8722 26.2454 16.0808 26.247 17.341C26.2487 18.6013 25.7525 19.8112 24.8664 20.7074L22.0536 23.4426C21.9068 23.5866 21.7094 23.6672 21.5038 23.6672C21.2982 23.6672 21.1008 23.5866 20.954 23.4426L18.1412 20.7193C17.2509 19.8234 16.7513 18.6117 16.7513 17.3488C16.7513 16.0858 17.2509 14.8741 18.1412 13.9782ZM29.4161 26.0583C29.4166 26.2981 29.3624 26.5348 29.2575 26.7505C29.1527 26.9661 29.0001 27.155 28.8113 27.3028C28.6328 27.4462 28.425 27.5486 28.2025 27.6027C27.98 27.6567 27.7484 27.6611 27.524 27.6155L25.6676 26.9917C24.9653 26.7899 24.2211 26.7855 23.5166 26.979L18.9376 28.3312C18.4977 28.4525 18.0321 28.4446 17.5965 28.3082L15.3054 27.5957C14.8096 27.4523 14.3736 27.1519 14.063 26.7397C13.7524 26.3274 13.5839 25.8255 13.5828 25.3094V22.0833C13.581 21.7633 13.6447 21.4463 13.7699 21.1519C13.8952 20.8574 14.0794 20.5916 14.3111 20.371C14.6739 20.0252 15.136 19.802 15.6324 19.7329C15.9515 20.5239 16.4267 21.2425 17.0297 21.8458L19.8536 24.5795C20.2949 25.0116 20.888 25.2537 21.5058 25.2537C22.1235 25.2537 22.7166 25.0116 23.158 24.5795L25.9787 21.8379C26.6102 21.2038 27.0995 20.4425 27.414 19.6046L27.8391 19.7455C28.3001 19.9107 28.699 20.2142 28.9812 20.6144C29.2634 21.0147 29.4153 21.4923 29.4161 21.982V26.0583Z" fill="#6218C0"/>
</g>
<circle cx="21" cy="21" r="20.5" stroke="#AAAFDD" stroke-opacity="0.42"/>
<defs>
<clipPath id="clip0_0_1">
<rect width="19" height="19" fill="white" transform="translate(12 11)"/>
</clipPath>
</defs>
</svg>
