<svg width="32" height="32" viewBox="0 0 32 32" fill="none" xmlns="http://www.w3.org/2000/svg">
<circle cx="16" cy="16" r="16" fill="white"/>
<circle cx="16" cy="16" r="15.5" stroke="#AAAFDD" stroke-opacity="0.42"/>
<g clip-path="url(#clip0_17_141)">
<path d="M14.3333 16.0417H10V14.9583H14.3333V16.0417ZM21.329 15.0158C21.5979 14.6772 21.7819 14.2791 21.8655 13.8548C21.9492 13.4306 21.93 12.9925 21.8096 12.5771C21.6892 12.1618 21.4711 11.7814 21.1736 11.4676C20.8761 11.1538 20.5077 10.9158 20.0994 10.7736C19.691 10.6313 19.2546 10.5889 18.8265 10.6498C18.3984 10.7108 17.9911 10.8734 17.6387 11.124C17.2863 11.3746 16.999 11.706 16.8009 12.0903C16.6028 12.4747 16.4996 12.9009 16.5 13.3333V13.875H17.5833V13.3333C17.5833 13.0119 17.6786 12.6978 17.8572 12.4305C18.0358 12.1633 18.2895 11.955 18.5865 11.832C18.8834 11.709 19.2101 11.6769 19.5254 11.7396C19.8406 11.8023 20.1301 11.957 20.3574 12.1843C20.5846 12.4115 20.7394 12.7011 20.8021 13.0163C20.8648 13.3315 20.8326 13.6583 20.7096 13.9552C20.5866 14.2521 20.3784 14.5059 20.1111 14.6845C19.8439 14.863 19.5297 14.9583 19.2083 14.9583H15.4167V16.0417H20.8333C21.0476 16.0417 21.257 16.1052 21.4352 16.2242C21.6134 16.3433 21.7522 16.5125 21.8342 16.7104C21.9162 16.9084 21.9377 17.1262 21.8959 17.3363C21.8541 17.5465 21.7509 17.7395 21.5994 17.891C21.4479 18.0425 21.2548 18.1457 21.0447 18.1875C20.8345 18.2293 20.6167 18.2079 20.4188 18.1259C20.2208 18.0439 20.0516 17.905 19.9326 17.7269C19.8135 17.5487 19.75 17.3393 19.75 17.125H18.6667C18.6667 17.5323 18.7815 17.9313 18.9979 18.2763C19.2143 18.6213 19.5235 18.8983 19.8902 19.0756C20.2568 19.2529 20.666 19.3232 21.0708 19.2786C21.4756 19.234 21.8596 19.0761 22.1788 18.8232C22.498 18.5703 22.7395 18.2326 22.8755 17.8487C23.0116 17.4649 23.0367 17.0504 22.948 16.653C22.8592 16.2555 22.6603 15.8911 22.3739 15.6015C22.0876 15.3119 21.7254 15.1089 21.329 15.0158ZM15.9583 17.6667H10V18.75H15.9583C16.1726 18.75 16.382 18.8135 16.5602 18.9326C16.7384 19.0516 16.8772 19.2208 16.9592 19.4188C17.0412 19.6167 17.0627 19.8345 17.0209 20.0447C16.9791 20.2548 16.8759 20.4479 16.7244 20.5994C16.5729 20.7509 16.3798 20.8541 16.1697 20.8959C15.9595 20.9377 15.7417 20.9162 15.5438 20.8342C15.3458 20.7522 15.1766 20.6134 15.0576 20.4352C14.9385 20.257 14.875 20.0476 14.875 19.8333H13.7917C13.7917 20.2619 13.9187 20.6808 14.1568 21.0371C14.3949 21.3934 14.7333 21.6711 15.1292 21.8351C15.5251 21.9991 15.9607 22.042 16.381 21.9584C16.8013 21.8748 17.1874 21.6684 17.4904 21.3654C17.7934 21.0624 17.9998 20.6763 18.0834 20.256C18.167 19.8357 18.1241 19.4001 17.9601 19.0042C17.7961 18.6083 17.5184 18.2699 17.1621 18.0318C16.8058 17.7937 16.3869 17.6667 15.9583 17.6667ZM15.9583 11.1667C15.9583 10.592 15.7301 10.0409 15.3237 9.6346C14.9174 9.22827 14.3663 9 13.7917 9C13.217 9 12.6659 9.22827 12.2596 9.6346C11.8533 10.0409 11.625 10.592 11.625 11.1667H12.7083C12.7083 10.9524 12.7719 10.743 12.8909 10.5648C13.0099 10.3866 13.1791 10.2478 13.3771 10.1658C13.575 10.0838 13.7929 10.0623 14.003 10.1041C14.2132 10.1459 14.4062 10.2491 14.5577 10.4006C14.7092 10.5521 14.8124 10.7452 14.8542 10.9553C14.896 11.1655 14.8745 11.3833 14.7925 11.5812C14.7105 11.7792 14.5717 11.9484 14.3935 12.0674C14.2154 12.1865 14.0059 12.25 13.7917 12.25H10V13.3333H13.7917C14.3663 13.3333 14.9174 13.1051 15.3237 12.6987C15.7301 12.2924 15.9583 11.7413 15.9583 11.1667Z" fill="#498A9F"/>
</g>
<defs>
<clipPath id="clip0_17_141">
<rect width="13" height="13" fill="white" transform="translate(10 9)"/>
</clipPath>
</defs>
</svg>
