<svg width="117" height="24" viewBox="0 0 117 24" fill="none" xmlns="http://www.w3.org/2000/svg">
<path d="M37.384 18L41.992 6.8H43.272L47.848 18H45.864L42.28 8.928H42.952L39.336 18H37.384ZM39.656 15.84V14.24H45.592V15.84H39.656ZM51.9733 18.16C51.2799 18.16 50.6506 17.984 50.0853 17.632C49.5306 17.28 49.0879 16.8053 48.7573 16.208C48.4373 15.6 48.2773 14.9227 48.2773 14.176C48.2773 13.4187 48.4373 12.7413 48.7573 12.144C49.0879 11.536 49.5306 11.056 50.0853 10.704C50.6506 10.3413 51.2799 10.16 51.9733 10.16C52.5599 10.16 53.0773 10.288 53.5253 10.544C53.9839 10.7893 54.3466 11.1307 54.6133 11.568C54.8799 12.0053 55.0133 12.5013 55.0133 13.056V15.264C55.0133 15.8187 54.8799 16.3147 54.6133 16.752C54.3573 17.1893 53.9999 17.536 53.5413 17.792C53.0826 18.0373 52.5599 18.16 51.9733 18.16ZM52.2613 16.496C52.6986 16.496 53.0773 16.4 53.3973 16.208C53.7279 16.0053 53.9839 15.728 54.1653 15.376C54.3466 15.024 54.4373 14.6187 54.4373 14.16C54.4373 13.7013 54.3466 13.296 54.1653 12.944C53.9839 12.592 53.7279 12.32 53.3973 12.128C53.0773 11.9253 52.6986 11.824 52.2613 11.824C51.8346 11.824 51.4559 11.9253 51.1253 12.128C50.8053 12.32 50.5493 12.592 50.3573 12.944C50.1759 13.296 50.0853 13.7013 50.0853 14.16C50.0853 14.6187 50.1759 15.024 50.3573 15.376C50.5493 15.728 50.8053 16.0053 51.1253 16.208C51.4559 16.4 51.8346 16.496 52.2613 16.496ZM56.0853 18H54.3253V15.936L54.6293 14.064L54.3253 12.208V6.48H56.0853V18ZM58.0385 18V10.32H59.7985V18H58.0385ZM63.1425 18V13.424C63.1425 12.912 62.9825 12.5173 62.6625 12.24C62.3425 11.952 61.9478 11.808 61.4785 11.808C61.1585 11.808 60.8705 11.872 60.6145 12C60.3692 12.128 60.1718 12.3147 60.0225 12.56C59.8732 12.7947 59.7985 13.0827 59.7985 13.424L59.1105 13.04C59.1105 12.4533 59.2385 11.9467 59.4945 11.52C59.7505 11.0933 60.0972 10.7627 60.5345 10.528C60.9718 10.2827 61.4625 10.16 62.0065 10.16C62.5505 10.16 63.0412 10.2773 63.4785 10.512C63.9158 10.7467 64.2625 11.0773 64.5185 11.504C64.7745 11.9307 64.9025 12.4427 64.9025 13.04V18H63.1425ZM68.2465 18V13.424C68.2465 12.912 68.0865 12.5173 67.7665 12.24C67.4465 11.952 67.0518 11.808 66.5825 11.808C66.2732 11.808 65.9905 11.872 65.7345 12C65.4785 12.128 65.2758 12.3147 65.1265 12.56C64.9772 12.7947 64.9025 13.0827 64.9025 13.424L63.9105 13.04C63.9638 12.4533 64.1345 11.9467 64.4225 11.52C64.7105 11.0933 65.0785 10.7627 65.5265 10.528C65.9852 10.2827 66.4865 10.16 67.0305 10.16C67.5852 10.16 68.0865 10.2773 68.5345 10.512C68.9825 10.7467 69.3398 11.0773 69.6065 11.504C69.8732 11.9307 70.0065 12.4427 70.0065 13.04V18H68.2465ZM71.8358 18V10.32H73.5958V18H71.8358ZM72.7158 8.912C72.4171 8.912 72.1664 8.81067 71.9638 8.608C71.7718 8.40533 71.6758 8.15467 71.6758 7.856C71.6758 7.55733 71.7718 7.30667 71.9638 7.104C72.1664 6.90133 72.4171 6.8 72.7158 6.8C73.0251 6.8 73.2758 6.90133 73.4678 7.104C73.6598 7.30667 73.7558 7.55733 73.7558 7.856C73.7558 8.15467 73.6598 8.40533 73.4678 8.608C73.2758 8.81067 73.0251 8.912 72.7158 8.912ZM78.0818 18.16C77.6551 18.16 77.2444 18.1067 76.8498 18C76.4551 17.8827 76.0924 17.7227 75.7618 17.52C75.4311 17.3067 75.1431 17.0507 74.8978 16.752L76.0178 15.632C76.2844 15.9413 76.5884 16.176 76.9298 16.336C77.2818 16.4853 77.6764 16.56 78.1138 16.56C78.5084 16.56 78.8071 16.5013 79.0098 16.384C79.2124 16.2667 79.3138 16.096 79.3138 15.872C79.3138 15.6373 79.2178 15.456 79.0258 15.328C78.8338 15.2 78.5831 15.0933 78.2738 15.008C77.9751 14.912 77.6551 14.816 77.3138 14.72C76.9831 14.624 76.6631 14.496 76.3538 14.336C76.0551 14.1653 75.8098 13.936 75.6178 13.648C75.4258 13.36 75.3298 12.9867 75.3298 12.528C75.3298 12.0373 75.4418 11.616 75.6658 11.264C75.9004 10.912 76.2258 10.64 76.6418 10.448C77.0684 10.256 77.5751 10.16 78.1618 10.16C78.7804 10.16 79.3244 10.272 79.7938 10.496C80.2738 10.7093 80.6738 11.0347 80.9938 11.472L79.8738 12.592C79.6498 12.3147 79.3938 12.1067 79.1058 11.968C78.8178 11.8293 78.4871 11.76 78.1138 11.76C77.7618 11.76 77.4898 11.8133 77.2978 11.92C77.1058 12.0267 77.0098 12.1813 77.0098 12.384C77.0098 12.5973 77.1058 12.7627 77.2978 12.88C77.4898 12.9973 77.7351 13.0987 78.0338 13.184C78.3431 13.2693 78.6631 13.3653 78.9938 13.472C79.3351 13.568 79.6551 13.7067 79.9538 13.888C80.2631 14.0587 80.5138 14.2933 80.7058 14.592C80.8978 14.88 80.9938 15.2587 80.9938 15.728C80.9938 16.4747 80.7324 17.0667 80.2098 17.504C79.6871 17.9413 78.9778 18.16 78.0818 18.16ZM84.9568 18.16C84.5301 18.16 84.1194 18.1067 83.7248 18C83.3301 17.8827 82.9674 17.7227 82.6368 17.52C82.3061 17.3067 82.0181 17.0507 81.7728 16.752L82.8928 15.632C83.1594 15.9413 83.4634 16.176 83.8048 16.336C84.1568 16.4853 84.5514 16.56 84.9888 16.56C85.3834 16.56 85.6821 16.5013 85.8848 16.384C86.0874 16.2667 86.1888 16.096 86.1888 15.872C86.1888 15.6373 86.0928 15.456 85.9008 15.328C85.7088 15.2 85.4581 15.0933 85.1488 15.008C84.8501 14.912 84.5301 14.816 84.1888 14.72C83.8581 14.624 83.5381 14.496 83.2288 14.336C82.9301 14.1653 82.6848 13.936 82.4928 13.648C82.3008 13.36 82.2048 12.9867 82.2048 12.528C82.2048 12.0373 82.3168 11.616 82.5408 11.264C82.7754 10.912 83.1008 10.64 83.5168 10.448C83.9434 10.256 84.4501 10.16 85.0368 10.16C85.6554 10.16 86.1994 10.272 86.6688 10.496C87.1488 10.7093 87.5488 11.0347 87.8688 11.472L86.7488 12.592C86.5248 12.3147 86.2688 12.1067 85.9808 11.968C85.6928 11.8293 85.3621 11.76 84.9888 11.76C84.6368 11.76 84.3648 11.8133 84.1728 11.92C83.9808 12.0267 83.8848 12.1813 83.8848 12.384C83.8848 12.5973 83.9808 12.7627 84.1728 12.88C84.3648 12.9973 84.6101 13.0987 84.9088 13.184C85.2181 13.2693 85.5381 13.3653 85.8688 13.472C86.2101 13.568 86.5301 13.7067 86.8288 13.888C87.1381 14.0587 87.3888 14.2933 87.5808 14.592C87.7728 14.88 87.8688 15.2587 87.8688 15.728C87.8688 16.4747 87.6074 17.0667 87.0848 17.504C86.5621 17.9413 85.8528 18.16 84.9568 18.16ZM89.3358 18V10.32H91.0958V18H89.3358ZM90.2158 8.912C89.9171 8.912 89.6664 8.81067 89.4638 8.608C89.2718 8.40533 89.1758 8.15467 89.1758 7.856C89.1758 7.55733 89.2718 7.30667 89.4638 7.104C89.6664 6.90133 89.9171 6.8 90.2158 6.8C90.5251 6.8 90.7758 6.90133 90.9678 7.104C91.1598 7.30667 91.2558 7.55733 91.2558 7.856C91.2558 8.15467 91.1598 8.40533 90.9678 8.608C90.7758 8.81067 90.5251 8.912 90.2158 8.912ZM96.5898 18.16C95.8431 18.16 95.1658 17.984 94.5578 17.632C93.9498 17.2693 93.4644 16.784 93.1018 16.176C92.7498 15.568 92.5738 14.8907 92.5738 14.144C92.5738 13.3973 92.7498 12.7253 93.1018 12.128C93.4644 11.5307 93.9498 11.056 94.5578 10.704C95.1658 10.3413 95.8431 10.16 96.5898 10.16C97.3471 10.16 98.0298 10.336 98.6378 10.688C99.2458 11.04 99.7258 11.52 100.078 12.128C100.44 12.7253 100.622 13.3973 100.622 14.144C100.622 14.8907 100.44 15.568 100.078 16.176C99.7258 16.784 99.2458 17.2693 98.6378 17.632C98.0298 17.984 97.3471 18.16 96.5898 18.16ZM96.5898 16.464C97.0271 16.464 97.4111 16.368 97.7418 16.176C98.0831 15.9733 98.3444 15.696 98.5258 15.344C98.7178 14.992 98.8138 14.592 98.8138 14.144C98.8138 13.696 98.7178 13.3013 98.5258 12.96C98.3338 12.6187 98.0724 12.352 97.7418 12.16C97.4111 11.9573 97.0271 11.856 96.5898 11.856C96.1631 11.856 95.7791 11.9573 95.4378 12.16C95.1071 12.352 94.8458 12.6187 94.6538 12.96C94.4724 13.3013 94.3818 13.696 94.3818 14.144C94.3818 14.592 94.4724 14.992 94.6538 15.344C94.8458 15.696 95.1071 15.9733 95.4378 16.176C95.7791 16.368 96.1631 16.464 96.5898 16.464ZM107.349 18V13.568C107.349 13.056 107.184 12.6347 106.853 12.304C106.533 11.9733 106.117 11.808 105.605 11.808C105.264 11.808 104.96 11.8827 104.693 12.032C104.427 12.1813 104.219 12.3893 104.069 12.656C103.92 12.9227 103.845 13.2267 103.845 13.568L103.157 13.184C103.157 12.5973 103.285 12.08 103.541 11.632C103.797 11.1733 104.149 10.816 104.597 10.56C105.056 10.2933 105.568 10.16 106.133 10.16C106.709 10.16 107.221 10.3093 107.669 10.608C108.117 10.896 108.469 11.2747 108.725 11.744C108.981 12.2027 109.109 12.6827 109.109 13.184V18H107.349ZM102.085 18V10.32H103.845V18H102.085ZM113.41 18.16C112.983 18.16 112.573 18.1067 112.178 18C111.783 17.8827 111.421 17.7227 111.09 17.52C110.759 17.3067 110.471 17.0507 110.226 16.752L111.346 15.632C111.613 15.9413 111.917 16.176 112.258 16.336C112.61 16.4853 113.005 16.56 113.442 16.56C113.837 16.56 114.135 16.5013 114.338 16.384C114.541 16.2667 114.642 16.096 114.642 15.872C114.642 15.6373 114.546 15.456 114.354 15.328C114.162 15.2 113.911 15.0933 113.602 15.008C113.303 14.912 112.983 14.816 112.642 14.72C112.311 14.624 111.991 14.496 111.682 14.336C111.383 14.1653 111.138 13.936 110.946 13.648C110.754 13.36 110.658 12.9867 110.658 12.528C110.658 12.0373 110.77 11.616 110.994 11.264C111.229 10.912 111.554 10.64 111.97 10.448C112.397 10.256 112.903 10.16 113.49 10.16C114.109 10.16 114.653 10.272 115.122 10.496C115.602 10.7093 116.002 11.0347 116.322 11.472L115.202 12.592C114.978 12.3147 114.722 12.1067 114.434 11.968C114.146 11.8293 113.815 11.76 113.442 11.76C113.09 11.76 112.818 11.8133 112.626 11.92C112.434 12.0267 112.338 12.1813 112.338 12.384C112.338 12.5973 112.434 12.7627 112.626 12.88C112.818 12.9973 113.063 13.0987 113.362 13.184C113.671 13.2693 113.991 13.3653 114.322 13.472C114.663 13.568 114.983 13.7067 115.282 13.888C115.591 14.0587 115.842 14.2933 116.034 14.592C116.226 14.88 116.322 15.2587 116.322 15.728C116.322 16.4747 116.061 17.0667 115.538 17.504C115.015 17.9413 114.306 18.16 113.41 18.16Z" fill="black"/>
<path fill-rule="evenodd" clip-rule="evenodd" d="M14.6152 1.59495C14.9165 1.76289 15.0643 2.11463 14.9736 2.44736L12.982 9.75003H20.25C20.5487 9.75003 20.8189 9.92721 20.9379 10.2011C21.0569 10.475 21.0021 10.7934 20.7983 11.0118L10.2983 22.2618C10.063 22.5139 9.68604 22.573 9.38481 22.4051C9.08357 22.2372 8.9357 21.8854 9.02644 21.5527L11.0181 14.25H3.75002C3.45137 14.25 3.18118 14.0728 3.06216 13.7989C2.94313 13.525 2.99795 13.2066 3.20173 12.9883L13.7017 1.73829C13.937 1.48615 14.314 1.42701 14.6152 1.59495Z" fill="#5307B4"/>
</svg>
