<svg width="36" height="36" viewBox="0 0 36 36" fill="none" xmlns="http://www.w3.org/2000/svg">
<path d="M24.9227 11.0769C25.6874 11.0769 26.3073 11.6968 26.3073 12.4615C26.3073 14.5295 25.3989 16.387 23.9639 17.6535C23.3906 18.1595 22.5156 18.105 22.0095 17.5316C21.5035 16.9583 21.5581 16.0833 22.1314 15.5773C22.9961 14.8141 23.538 13.702 23.538 12.4615C23.538 11.6968 24.158 11.0769 24.9227 11.0769Z" fill="url(#paint0_linear_17_134)"/>
<path fill-rule="evenodd" clip-rule="evenodd" d="M18 0C8.05888 0 0 8.05888 0 18C0 27.9411 8.05888 36 18 36C27.9411 36 36 27.9411 36 18C36 8.05888 27.9411 0 18 0ZM4.29212 24.6465C6.76053 29.728 11.9712 33.2308 18 33.2308C19.2226 33.2308 20.4116 33.0867 21.5509 32.8146C21.0211 31.4036 19.6696 30.4615 18.1529 30.4615C17.2657 30.4615 16.5085 29.8201 16.3626 28.9449L16.2279 28.1367C16.0543 27.0948 16.6903 26.0885 17.706 25.7983L19.5314 25.2768C20.3201 25.0514 20.9781 24.5053 21.345 23.7716L21.4124 23.6368C21.8668 22.728 22.7957 22.1538 23.8119 22.1538C24.5234 22.1538 25.2057 22.4365 25.7088 22.9396L26.3077 23.5385H27.4676C29.0158 23.5385 30.4135 24.3963 31.1277 25.7275C32.4641 23.4621 33.2308 20.8206 33.2308 18C33.2308 10.0649 27.1625 3.54705 19.4135 2.83395C19.4953 3.31943 19.7479 3.76431 20.1319 4.0843L22.1047 5.72831C22.9201 6.40781 23.092 7.59277 22.5032 8.47592L21.5598 9.89107C21.0474 10.6596 20.2935 11.2355 19.4172 11.5276L19.1546 11.6151C17.8758 12.0414 17.3523 13.567 18.1001 14.6885C18.7821 15.7117 18.4132 17.1011 17.3133 17.651L12.4615 20.0769L13.2432 22.0311C13.584 22.8831 13.2148 23.8541 12.394 24.2645C11.6313 24.6459 10.705 24.4272 10.1934 23.745L8.9394 22.073C8.01303 20.8379 6.11068 21.0094 5.4202 22.3904L4.29212 24.6465Z" fill="url(#paint1_linear_17_134)"/>
<defs>
<linearGradient id="paint0_linear_17_134" x1="-10.0976" y1="-6.58537" x2="51.5" y2="62" gradientUnits="userSpaceOnUse">
<stop stop-color="white"/>
<stop offset="1" stop-color="#FCFAFF"/>
</linearGradient>
<linearGradient id="paint1_linear_17_134" x1="-10.0976" y1="-6.58537" x2="51.5" y2="62" gradientUnits="userSpaceOnUse">
<stop stop-color="white"/>
<stop offset="1" stop-color="#FCFAFF"/>
</linearGradient>
</defs>
</svg>
