<svg width="15" height="15" viewBox="0 0 15 15" fill="none" xmlns="http://www.w3.org/2000/svg">
<path fill-rule="evenodd" clip-rule="evenodd" d="M6.90512 0.18219C3.09362 0.18219 0.00378418 3.27202 0.00378418 7.08352C0.00378418 7.53842 0.372557 7.90721 0.827466 7.90721H6.7212V12.7773C6.7212 13.2411 6.34529 13.617 5.88152 13.617C5.41778 13.617 5.04184 13.2411 5.04184 12.7773V12.1056C5.04184 11.8274 4.81628 11.6018 4.53804 11.6018C4.25979 11.6018 4.03423 11.8274 4.03423 12.1056V12.7773C4.03423 13.7976 4.86129 14.6246 5.88152 14.6246C6.90176 14.6246 7.72881 13.7976 7.72881 12.7773V7.90721H13.6225C14.0774 7.90721 14.4462 7.53842 14.4462 7.08352C14.4462 3.27202 11.3564 0.18219 7.54488 0.18219H6.90512ZM5.10489 1.4698C2.78596 2.21284 1.09228 4.35289 1.01421 6.8996H3.47362C3.59186 5.93075 3.82699 4.48419 4.27347 3.19666C4.48768 2.57893 4.7586 1.97355 5.10489 1.4698ZM4.48906 6.8996C4.60732 5.97134 4.82919 4.66954 5.22546 3.52679C5.46811 2.82706 5.76423 2.22288 6.11522 1.80225C6.46036 1.38856 6.8237 1.1898 7.225 1.1898C7.6263 1.1898 7.98964 1.38856 8.33478 1.80225C8.68577 2.22288 8.98187 2.82706 9.22457 3.52679C9.62083 4.66954 9.84271 5.97134 9.96094 6.8996H4.48906ZM10.9764 6.8996C10.8582 5.93075 10.623 4.48419 10.1766 3.19666C9.96235 2.57893 9.69143 1.97355 9.34515 1.46981C11.6641 2.21285 13.3577 4.3529 13.4358 6.8996H10.9764Z" fill="#1C274C"/>
</svg>
