<svg width="158" height="24" viewBox="0 0 158 24" fill="none" xmlns="http://www.w3.org/2000/svg">
<path d="M39.536 18.16C38.6933 18.16 37.936 17.968 37.264 17.584C36.592 17.2 36.0587 16.6773 35.664 16.016C35.28 15.344 35.088 14.5867 35.088 13.744V6.8H36.928V13.728C36.928 14.272 37.04 14.7467 37.264 15.152C37.4987 15.5467 37.8133 15.856 38.208 16.08C38.6027 16.2933 39.0453 16.4 39.536 16.4C40.0373 16.4 40.48 16.2933 40.864 16.08C41.248 15.856 41.552 15.5467 41.776 15.152C42 14.7467 42.112 14.2773 42.112 13.744V6.8H43.952V13.76C43.952 14.6027 43.76 15.3547 43.376 16.016C42.992 16.6773 42.4693 17.2 41.808 17.584C41.1467 17.968 40.3893 18.16 39.536 18.16ZM51.2869 18V13.568C51.2869 13.056 51.1215 12.6347 50.7909 12.304C50.4709 11.9733 50.0549 11.808 49.5429 11.808C49.2015 11.808 48.8975 11.8827 48.6309 12.032C48.3642 12.1813 48.1562 12.3893 48.0069 12.656C47.8575 12.9227 47.7829 13.2267 47.7829 13.568L47.0949 13.184C47.0949 12.5973 47.2229 12.08 47.4789 11.632C47.7349 11.1733 48.0869 10.816 48.5349 10.56C48.9935 10.2933 49.5055 10.16 50.0709 10.16C50.6469 10.16 51.1589 10.3093 51.6069 10.608C52.0549 10.896 52.4069 11.2747 52.6629 11.744C52.9189 12.2027 53.0469 12.6827 53.0469 13.184V18H51.2869ZM46.0229 18V10.32H47.7829V18H46.0229ZM54.8514 18V10.32H56.6114V18H54.8514ZM55.7314 8.912C55.4327 8.912 55.182 8.81067 54.9794 8.608C54.7874 8.40533 54.6914 8.15467 54.6914 7.856C54.6914 7.55733 54.7874 7.30667 54.9794 7.104C55.182 6.90133 55.4327 6.8 55.7314 6.8C56.0407 6.8 56.2914 6.90133 56.4834 7.104C56.6754 7.30667 56.7714 7.55733 56.7714 7.856C56.7714 8.15467 56.6754 8.40533 56.4834 8.608C56.2914 8.81067 56.0407 8.912 55.7314 8.912ZM61.1774 18L57.6734 10.32H59.6254L62.2974 16.576H61.1454L63.8334 10.32H65.7054L62.2014 18H61.1774ZM70.044 18.16C69.276 18.16 68.5827 17.9893 67.964 17.648C67.356 17.296 66.8707 16.816 66.508 16.208C66.156 15.6 65.98 14.9173 65.98 14.16C65.98 13.4027 66.156 12.7253 66.508 12.128C66.86 11.52 67.3347 11.04 67.932 10.688C68.54 10.336 69.212 10.16 69.948 10.16C70.6627 10.16 71.292 10.3253 71.836 10.656C72.3907 10.9867 72.8227 11.44 73.132 12.016C73.452 12.592 73.612 13.248 73.612 13.984C73.612 14.112 73.6013 14.2453 73.58 14.384C73.5693 14.512 73.548 14.656 73.516 14.816H67.212V13.376H72.604L71.948 13.952C71.9267 13.4827 71.836 13.088 71.676 12.768C71.516 12.448 71.2867 12.2027 70.988 12.032C70.7 11.8613 70.3427 11.776 69.916 11.776C69.468 11.776 69.0787 11.872 68.748 12.064C68.4173 12.256 68.1613 12.528 67.98 12.88C67.7987 13.2213 67.708 13.632 67.708 14.112C67.708 14.592 67.804 15.0133 67.996 15.376C68.188 15.7387 68.46 16.0213 68.812 16.224C69.164 16.416 69.5693 16.512 70.028 16.512C70.4227 16.512 70.7853 16.4427 71.116 16.304C71.4573 16.1653 71.7453 15.9627 71.98 15.696L73.1 16.832C72.7267 17.2693 72.2733 17.6 71.74 17.824C71.2067 18.048 70.6413 18.16 70.044 18.16ZM75.0229 18V10.32H76.7829V18H75.0229ZM76.7829 13.728L76.1749 13.424C76.1749 12.4533 76.3882 11.6693 76.8149 11.072C77.2522 10.464 77.9082 10.16 78.7829 10.16C79.1669 10.16 79.5135 10.2293 79.8229 10.368C80.1322 10.5067 80.4202 10.7307 80.6869 11.04L79.5349 12.224C79.3962 12.0747 79.2415 11.968 79.0709 11.904C78.9002 11.84 78.7029 11.808 78.4789 11.808C77.9882 11.808 77.5829 11.9627 77.2629 12.272C76.9429 12.5813 76.7829 13.0667 76.7829 13.728ZM83.8786 18.16C83.452 18.16 83.0413 18.1067 82.6466 18C82.252 17.8827 81.8893 17.7227 81.5586 17.52C81.228 17.3067 80.94 17.0507 80.6946 16.752L81.8146 15.632C82.0813 15.9413 82.3853 16.176 82.7266 16.336C83.0786 16.4853 83.4733 16.56 83.9106 16.56C84.3053 16.56 84.604 16.5013 84.8066 16.384C85.0093 16.2667 85.1106 16.096 85.1106 15.872C85.1106 15.6373 85.0146 15.456 84.8226 15.328C84.6306 15.2 84.38 15.0933 84.0706 15.008C83.772 14.912 83.452 14.816 83.1106 14.72C82.78 14.624 82.46 14.496 82.1506 14.336C81.852 14.1653 81.6066 13.936 81.4146 13.648C81.2226 13.36 81.1266 12.9867 81.1266 12.528C81.1266 12.0373 81.2386 11.616 81.4626 11.264C81.6973 10.912 82.0226 10.64 82.4386 10.448C82.8653 10.256 83.372 10.16 83.9586 10.16C84.5773 10.16 85.1213 10.272 85.5906 10.496C86.0706 10.7093 86.4706 11.0347 86.7906 11.472L85.6706 12.592C85.4466 12.3147 85.1906 12.1067 84.9026 11.968C84.6146 11.8293 84.284 11.76 83.9106 11.76C83.5586 11.76 83.2866 11.8133 83.0946 11.92C82.9026 12.0267 82.8066 12.1813 82.8066 12.384C82.8066 12.5973 82.9026 12.7627 83.0946 12.88C83.2866 12.9973 83.532 13.0987 83.8306 13.184C84.14 13.2693 84.46 13.3653 84.7906 13.472C85.132 13.568 85.452 13.7067 85.7506 13.888C86.06 14.0587 86.3106 14.2933 86.5026 14.592C86.6946 14.88 86.7906 15.2587 86.7906 15.728C86.7906 16.4747 86.5293 17.0667 86.0066 17.504C85.484 17.9413 84.7746 18.16 83.8786 18.16ZM88.2576 18V10.32H90.0176V18H88.2576ZM89.1376 8.912C88.839 8.912 88.5883 8.81067 88.3856 8.608C88.1936 8.40533 88.0976 8.15467 88.0976 7.856C88.0976 7.55733 88.1936 7.30667 88.3856 7.104C88.5883 6.90133 88.839 6.8 89.1376 6.8C89.447 6.8 89.6976 6.90133 89.8896 7.104C90.0816 7.30667 90.1776 7.55733 90.1776 7.856C90.1776 8.15467 90.0816 8.40533 89.8896 8.608C89.6976 8.81067 89.447 8.912 89.1376 8.912ZM93.1596 18V7.12H94.9196V18H93.1596ZM91.3196 11.92V10.32H96.7596V11.92H91.3196ZM100.519 18.08L97.2385 10.32H99.1745L101.415 16.016H100.855L103.223 10.32H105.175L101.607 18.08H100.519ZM98.2305 21.2L100.615 16.288L101.607 18.08L100.183 21.2H98.2305ZM111.027 18V16.32H113.971C114.739 16.32 115.411 16.1547 115.987 15.824C116.574 15.4933 117.027 15.0347 117.347 14.448C117.678 13.8507 117.843 13.1627 117.843 12.384C117.843 11.616 117.678 10.9387 117.347 10.352C117.016 9.76533 116.558 9.30667 115.971 8.976C115.395 8.64533 114.728 8.48 113.971 8.48H111.027V6.8H114.019C114.83 6.8 115.582 6.944 116.275 7.232C116.968 7.50933 117.571 7.904 118.083 8.416C118.606 8.91733 119.011 9.50933 119.299 10.192C119.587 10.864 119.731 11.6 119.731 12.4C119.731 13.1893 119.587 13.9253 119.299 14.608C119.011 15.2907 118.611 15.888 118.099 16.4C117.587 16.9013 116.984 17.296 116.291 17.584C115.598 17.8613 114.851 18 114.051 18H111.027ZM109.763 18V6.8H111.603V18H109.763ZM124.935 18.16C124.167 18.16 123.473 17.9893 122.855 17.648C122.247 17.296 121.761 16.816 121.399 16.208C121.047 15.6 120.871 14.9173 120.871 14.16C120.871 13.4027 121.047 12.7253 121.399 12.128C121.751 11.52 122.225 11.04 122.823 10.688C123.431 10.336 124.103 10.16 124.839 10.16C125.553 10.16 126.183 10.3253 126.727 10.656C127.281 10.9867 127.713 11.44 128.023 12.016C128.343 12.592 128.503 13.248 128.503 13.984C128.503 14.112 128.492 14.2453 128.471 14.384C128.46 14.512 128.439 14.656 128.407 14.816H122.103V13.376H127.495L126.839 13.952C126.817 13.4827 126.727 13.088 126.567 12.768C126.407 12.448 126.177 12.2027 125.879 12.032C125.591 11.8613 125.233 11.776 124.807 11.776C124.359 11.776 123.969 11.872 123.639 12.064C123.308 12.256 123.052 12.528 122.871 12.88C122.689 13.2213 122.599 13.632 122.599 14.112C122.599 14.592 122.695 15.0133 122.887 15.376C123.079 15.7387 123.351 16.0213 123.703 16.224C124.055 16.416 124.46 16.512 124.919 16.512C125.313 16.512 125.676 16.4427 126.007 16.304C126.348 16.1653 126.636 15.9627 126.871 15.696L127.991 16.832C127.617 17.2693 127.164 17.6 126.631 17.824C126.097 18.048 125.532 18.16 124.935 18.16ZM130.878 18V7.12H132.638V18H130.878ZM129.038 11.92V10.32H134.478V11.92H129.038ZM138.755 18.16C138.061 18.16 137.432 17.984 136.867 17.632C136.312 17.28 135.869 16.8053 135.539 16.208C135.219 15.6 135.059 14.9227 135.059 14.176C135.059 13.4187 135.219 12.7413 135.539 12.144C135.869 11.536 136.312 11.056 136.867 10.704C137.432 10.3413 138.061 10.16 138.755 10.16C139.341 10.16 139.859 10.288 140.307 10.544C140.765 10.7893 141.128 11.1307 141.395 11.568C141.661 12.0053 141.795 12.5013 141.795 13.056V15.264C141.795 15.8187 141.661 16.3147 141.395 16.752C141.139 17.1893 140.781 17.536 140.323 17.792C139.864 18.0373 139.341 18.16 138.755 18.16ZM139.043 16.496C139.693 16.496 140.216 16.2773 140.611 15.84C141.016 15.4027 141.219 14.8427 141.219 14.16C141.219 13.7013 141.128 13.296 140.947 12.944C140.765 12.592 140.509 12.32 140.179 12.128C139.859 11.9253 139.48 11.824 139.043 11.824C138.616 11.824 138.237 11.9253 137.907 12.128C137.587 12.32 137.331 12.592 137.139 12.944C136.957 13.296 136.867 13.7013 136.867 14.16C136.867 14.6187 136.957 15.024 137.139 15.376C137.331 15.728 137.587 16.0053 137.907 16.208C138.237 16.4 138.616 16.496 139.043 16.496ZM141.107 18V15.936L141.411 14.064L141.107 12.208V10.32H142.867V18H141.107ZM144.836 18V10.32H146.596V18H144.836ZM145.716 8.912C145.417 8.912 145.166 8.81067 144.964 8.608C144.772 8.40533 144.676 8.15467 144.676 7.856C144.676 7.55733 144.772 7.30667 144.964 7.104C145.166 6.90133 145.417 6.8 145.716 6.8C146.025 6.8 146.276 6.90133 146.468 7.104C146.66 7.30667 146.756 7.55733 146.756 7.856C146.756 8.15467 146.66 8.40533 146.468 8.608C146.276 8.81067 146.025 8.912 145.716 8.912ZM148.57 18V6.48H150.33V18H148.57ZM154.801 18.16C154.374 18.16 153.963 18.1067 153.569 18C153.174 17.8827 152.811 17.7227 152.481 17.52C152.15 17.3067 151.862 17.0507 151.617 16.752L152.737 15.632C153.003 15.9413 153.307 16.176 153.649 16.336C154.001 16.4853 154.395 16.56 154.833 16.56C155.227 16.56 155.526 16.5013 155.729 16.384C155.931 16.2667 156.033 16.096 156.033 15.872C156.033 15.6373 155.937 15.456 155.745 15.328C155.553 15.2 155.302 15.0933 154.993 15.008C154.694 14.912 154.374 14.816 154.033 14.72C153.702 14.624 153.382 14.496 153.073 14.336C152.774 14.1653 152.529 13.936 152.337 13.648C152.145 13.36 152.049 12.9867 152.049 12.528C152.049 12.0373 152.161 11.616 152.385 11.264C152.619 10.912 152.945 10.64 153.361 10.448C153.787 10.256 154.294 10.16 154.881 10.16C155.499 10.16 156.043 10.272 156.513 10.496C156.993 10.7093 157.393 11.0347 157.713 11.472L156.593 12.592C156.369 12.3147 156.113 12.1067 155.825 11.968C155.537 11.8293 155.206 11.76 154.833 11.76C154.481 11.76 154.209 11.8133 154.017 11.92C153.825 12.0267 153.729 12.1813 153.729 12.384C153.729 12.5973 153.825 12.7627 154.017 12.88C154.209 12.9973 154.454 13.0987 154.753 13.184C155.062 13.2693 155.382 13.3653 155.713 13.472C156.054 13.568 156.374 13.7067 156.673 13.888C156.982 14.0587 157.233 14.2933 157.425 14.592C157.617 14.88 157.713 15.2587 157.713 15.728C157.713 16.4747 157.451 17.0667 156.929 17.504C156.406 17.9413 155.697 18.16 154.801 18.16Z" fill="black"/>
<path fill-rule="evenodd" clip-rule="evenodd" d="M14.6152 1.59495C14.9165 1.76289 15.0643 2.11463 14.9736 2.44736L12.982 9.75003H20.25C20.5487 9.75003 20.8189 9.92721 20.9379 10.2011C21.0569 10.475 21.0021 10.7934 20.7983 11.0118L10.2983 22.2618C10.063 22.5139 9.68604 22.573 9.38481 22.4051C9.08357 22.2372 8.9357 21.8854 9.02644 21.5527L11.0181 14.25H3.75002C3.45137 14.25 3.18118 14.0728 3.06216 13.7989C2.94313 13.525 2.99795 13.2066 3.20173 12.9883L13.7017 1.73829C13.937 1.48615 14.314 1.42701 14.6152 1.59495Z" fill="#5307B4"/>
</svg>
