<svg width="45" height="39" viewBox="0 0 45 39" fill="none" xmlns="http://www.w3.org/2000/svg">
<path d="M35.888 10.321C35.9533 9.9315 35.993 9.53812 36.0069 9.1434C36.0125 7.12304 35.3469 5.15803 34.1146 3.55694C32.8824 1.95585 31.1533 0.809361 29.1988 0.297494C27.2444 -0.214372 25.1753 -0.062622 23.3164 0.728917C21.4575 1.52046 19.9142 2.90695 18.9287 4.67069C18.3404 4.44568 17.7187 4.32004 17.0891 4.29889C16.3272 4.2987 15.5727 4.44862 14.8687 4.74006C14.1647 5.03151 13.5251 5.45878 12.9863 5.99747C12.4475 6.53615 12.02 7.17571 11.7284 7.87961C11.4368 8.58351 11.2867 9.33796 11.2867 10.0999C11.2867 10.133 11.3047 10.1607 11.3061 10.1925C9.82507 10.3001 8.44396 10.9794 7.45464 12.0867C6.46533 13.1941 5.94533 14.6427 6.00456 16.1264C6.06378 17.6101 6.69759 19.0127 7.77203 20.0377C8.84646 21.0626 10.2773 21.6296 11.7622 21.6189H34.7975C36.325 21.6189 37.7899 21.0121 38.8701 19.932C39.9502 18.8519 40.557 17.3869 40.557 15.8594C40.5452 14.5371 40.0724 13.2603 39.2201 12.2492C38.3677 11.2382 37.1893 10.5562 35.888 10.321Z" fill="url(#paint0_linear_17_398)"/>
<g filter="url(#filter0_d_17_398)">
<path d="M29.7788 18.5413C29.8278 18.249 29.8576 17.9538 29.868 17.6575C29.8721 16.1414 29.3727 14.6667 28.4479 13.4652C27.5232 12.2637 26.2256 11.4033 24.7589 11.0192C23.2922 10.635 21.7394 10.7489 20.3444 11.3429C18.9494 11.9369 17.7913 12.9774 17.0517 14.301C16.6102 14.1322 16.1436 14.0379 15.6711 14.022C15.0994 14.0219 14.5332 14.1344 14.0049 14.3531C13.4766 14.5718 12.9965 14.8924 12.5922 15.2967C12.1878 15.7009 11.8671 16.1809 11.6482 16.7091C11.4294 17.2374 11.3168 17.8035 11.3168 18.3753C11.3168 18.4002 11.3303 18.421 11.3313 18.4448C10.2199 18.5256 9.18343 19.0354 8.441 19.8664C7.69857 20.6974 7.30834 21.7845 7.35278 22.8979C7.39723 24.0114 7.87287 25.0639 8.67918 25.8331C9.48548 26.6023 10.5593 27.0278 11.6736 27.0198H28.9604C30.1067 27.0198 31.2061 26.5644 32.0166 25.7538C32.8272 24.9432 33.2826 23.8439 33.2826 22.6975C33.2738 21.7052 32.9189 20.747 32.2793 19.9883C31.6397 19.2295 30.7553 18.7178 29.7788 18.5413Z" fill="url(#paint1_linear_17_398)"/>
</g>
<defs>
<filter id="filter0_d_17_398" x="0.349365" y="3.7959" width="43.9332" height="34.224" filterUnits="userSpaceOnUse" color-interpolation-filters="sRGB">
<feFlood flood-opacity="0" result="BackgroundImageFix"/>
<feColorMatrix in="SourceAlpha" type="matrix" values="0 0 0 0 0 0 0 0 0 0 0 0 0 0 0 0 0 0 127 0" result="hardAlpha"/>
<feOffset dx="2" dy="2"/>
<feGaussianBlur stdDeviation="4.5"/>
<feComposite in2="hardAlpha" operator="out"/>
<feColorMatrix type="matrix" values="0 0 0 0 0 0 0 0 0 0 0 0 0 0 0 0 0 0 0.17 0"/>
<feBlend mode="normal" in2="BackgroundImageFix" result="effect1_dropShadow_17_398"/>
<feBlend mode="normal" in="SourceGraphic" in2="effect1_dropShadow_17_398" result="shape"/>
</filter>
<linearGradient id="paint0_linear_17_398" x1="-18.8764" y1="0.441208" x2="68.8915" y2="43.9796" gradientUnits="userSpaceOnUse">
<stop stop-color="#F0FFF7"/>
<stop offset="1" stop-color="#95A6FF"/>
</linearGradient>
<linearGradient id="paint1_linear_17_398" x1="-11.3191" y1="11.127" x2="54.5462" y2="43.8003" gradientUnits="userSpaceOnUse">
<stop stop-color="#F0FFF7"/>
<stop offset="1" stop-color="#95A6FF"/>
</linearGradient>
</defs>
</svg>
