<svg width="12" height="19" viewBox="0 0 15 16" fill="none" xmlns="http://www.w3.org/2000/svg">
<path fill-rule="evenodd" clip-rule="evenodd" d="M7.9493 0.240678C7.85214 0.110391 7.70617 0.0252275 7.54494 0.0047646C7.38371 -0.0156983 7.22109 0.0302999 7.09447 0.132185C5.60233 1.33281 4.56165 3.07464 4.27109 5.06018C3.74724 4.68043 3.28715 4.21776 2.91025 3.69141C2.80656 3.54662 2.64377 3.45553 2.46613 3.44291C2.28848 3.43029 2.11445 3.49746 1.99134 3.62614C0.758336 4.91501 0 6.66423 0 8.58931C0 12.5551 3.2149 15.77 7.18068 15.77C11.1465 15.77 14.3614 12.5551 14.3614 8.58931C14.3614 5.66845 12.6175 3.1562 10.1166 2.03447C9.23163 1.60243 8.50086 0.980331 7.9493 0.240678ZM10.1726 9.78641C10.1726 11.4388 8.83309 12.7784 7.18068 12.7784C5.52828 12.7784 4.18873 11.4388 4.18873 9.78641C4.18873 9.45982 4.24106 9.14545 4.33779 8.85123C4.83922 9.22192 5.41559 9.49703 6.04 9.64967C6.21224 8.53205 6.77104 7.54197 7.57553 6.82028C9.04132 7.01352 10.1726 8.26785 10.1726 9.78641Z" fill="url(#paint0_linear_17_386)"/>
<defs>
<linearGradient id="paint0_linear_17_386" x1="7.18068" y1="5.51472e-07" x2="27.5" y2="26" gradientUnits="userSpaceOnUse">
<stop stop-color="#CBFF1E"/>
<stop offset="1" stop-color="#CBFF1E" stop-opacity="0"/>
</linearGradient>
</defs>
</svg>
