<svg width="11" height="18" viewBox="0 0 11 18" fill="none" xmlns="http://www.w3.org/2000/svg">
<path d="M6.53356 10.4768V6.10618C6.53356 5.91873 6.45909 5.73896 6.32655 5.60642C6.19401 5.47388 6.01424 5.39942 5.82679 5.39942C5.63935 5.39942 5.45958 5.47388 5.32704 5.60642C5.19449 5.73896 5.12003 5.91873 5.12003 6.10618V10.4768C4.64965 10.6435 4.25332 10.971 4.00104 11.4016C3.74877 11.8322 3.65679 12.338 3.74135 12.8299C3.82591 13.3217 4.08157 13.7678 4.46318 14.0894C4.84478 14.411 5.32776 14.5873 5.82679 14.5873C6.32583 14.5873 6.80881 14.411 7.19041 14.0894C7.57201 13.7678 7.82768 13.3217 7.91224 12.8299C7.9968 12.338 7.90482 11.8322 7.65254 11.4016C7.40027 10.971 7.00393 10.6435 6.53356 10.4768ZM9.3606 9.01167V3.9859C9.21148 -0.685083 2.4407 -0.678722 2.29298 3.9859V9.01167C1.61119 9.70752 1.15001 10.5892 0.967275 11.5461C0.784538 12.503 0.888377 13.4925 1.26577 14.3906C1.64317 15.2887 2.27732 16.0555 3.0887 16.5946C3.90009 17.1338 4.8526 17.4214 5.82679 17.4214C6.80098 17.4214 7.75349 17.1338 8.56488 16.5946C9.37627 16.0555 10.0104 15.2887 10.3878 14.3906C10.7652 13.4925 10.869 12.503 10.6863 11.5461C10.5036 10.5892 10.0424 9.70752 9.3606 9.01167ZM5.82679 16.0008C5.11546 15.9928 4.42296 15.7711 3.83927 15.3645C3.25558 14.9578 2.80766 14.385 2.55372 13.7205C2.29977 13.056 2.25154 12.3305 2.41527 11.6382C2.579 10.946 2.94714 10.3189 3.47186 9.83858C3.54569 9.77231 3.60473 9.69124 3.64516 9.60064C3.68559 9.51005 3.70649 9.41195 3.70651 9.31275V3.9859C3.70651 3.42356 3.92989 2.88426 4.32752 2.48663C4.72515 2.089 5.26446 1.86561 5.82679 1.86561C6.38913 1.86561 6.92843 2.089 7.32606 2.48663C7.72369 2.88426 7.94708 3.42356 7.94708 3.9859V9.31275C7.9471 9.41195 7.968 9.51005 8.00842 9.60064C8.04885 9.69124 8.1079 9.77231 8.18172 9.83858C8.70644 10.3189 9.07458 10.946 9.23832 11.6382C9.40205 12.3305 9.35381 13.056 9.09987 13.7205C8.84592 14.385 8.39801 14.9578 7.81432 15.3645C7.23062 15.7711 6.53813 15.9928 5.82679 16.0008Z" fill="#374957"/>
</svg>
