<svg width="42" height="42" viewBox="0 0 42 42" fill="none" xmlns="http://www.w3.org/2000/svg">
<g clip-path="url(#clip0_17_330)">
<path d="M14.9999 27.0821C14.8649 27.082 14.7331 27.0408 14.6219 26.9641C14.0937 26.6211 13.6653 26.1447 13.38 25.5831C13.0948 25.0215 12.9627 24.3946 12.9972 23.7657C13.0317 23.1368 13.2315 22.5281 13.5765 22.0011C13.9214 21.474 14.3993 21.0474 14.9619 20.7641C14.3831 19.712 14.1942 18.4892 14.4286 17.3115C14.6565 16.1463 15.2666 15.0906 16.1624 14.3114C17.0581 13.5322 18.1882 13.0742 19.3736 13.0098C20.5591 12.9454 21.7321 13.2784 22.7069 13.9561C23.6817 14.6337 24.4026 15.6172 24.7553 16.7508C24.7888 16.8657 24.8503 16.9705 24.9343 17.0558C25.0183 17.1411 25.1222 17.2042 25.2366 17.2395C26.0754 17.4964 26.8376 17.9568 27.4554 18.5795C28.0733 19.2022 28.5276 19.968 28.7779 20.8088C28.8243 20.9769 28.803 21.1565 28.7185 21.3091C28.634 21.4616 28.4931 21.575 28.326 21.6249C28.1589 21.6748 27.9789 21.6572 27.8246 21.5759C27.6703 21.4946 27.554 21.3561 27.5006 21.1901C27.3127 20.5599 26.972 19.9858 26.5087 19.5189C26.0455 19.0521 25.4741 18.7069 24.8453 18.5141C24.524 18.4143 24.232 18.2376 23.9945 17.9993C23.757 17.7611 23.5813 17.4684 23.4826 17.1468C23.3224 16.6128 23.0522 16.1181 22.6896 15.6946C22.3269 15.2711 21.8797 14.9281 21.3767 14.6877C20.8737 14.4472 20.3259 14.3145 19.7686 14.2982C19.2113 14.2818 18.6567 14.3822 18.1404 14.5928C17.6242 14.8034 17.1577 15.1196 16.7708 15.5211C16.384 15.9226 16.0853 16.4006 15.8941 16.9243C15.7028 17.4481 15.6232 18.006 15.6602 18.5623C15.6973 19.1186 15.8502 19.6611 16.1093 20.1548C16.2744 20.4628 16.3116 20.8235 16.2128 21.1588C16.114 21.4941 15.8871 21.7769 15.5813 21.9461C15.2221 22.1228 14.9166 22.3922 14.6965 22.7265C14.4763 23.0609 14.3495 23.4479 14.3291 23.8477C14.3087 24.2475 14.3955 24.6454 14.5805 25.0004C14.7655 25.3554 15.0419 25.6545 15.3813 25.8668C15.4985 25.9477 15.5867 26.064 15.633 26.1986C15.6793 26.3333 15.6813 26.4792 15.6387 26.6151C15.5961 26.7509 15.511 26.8696 15.3961 26.9536C15.2812 27.0377 15.1423 27.0827 14.9999 27.0821ZM25.7333 29.0001C25.9722 28.989 26.2094 28.9537 26.4413 28.8948C27.0419 28.7554 27.5915 28.4504 28.0275 28.0144C28.4635 27.5783 28.7686 27.0288 28.9079 26.4281C29.1096 25.584 28.9748 24.6945 28.5322 23.948C28.0897 23.2014 27.374 22.6563 26.5366 22.4281C26.5366 22.4281 26.1173 22.3315 26.0259 22.1141C25.7034 21.3361 25.1436 20.6797 24.4261 20.2385C23.7087 19.7973 22.8703 19.5938 22.0304 19.6571C21.1906 19.7203 20.3921 20.047 19.7488 20.5907C19.1055 21.1344 18.6503 21.8672 18.4479 22.6848C18.3039 23.282 18.2909 23.9034 18.4099 24.5061C17.9659 24.6971 17.5922 25.0212 17.3403 25.4337C17.0884 25.8462 16.9709 26.3268 17.0039 26.809C17.0369 27.2912 17.2188 27.7513 17.5245 28.1256C17.8303 28.5 18.2447 28.7701 18.7106 28.8988C18.8916 28.9532 19.0781 28.9872 19.2666 29.0001H25.7333ZM24.7999 22.6295C24.9158 22.9173 25.1055 23.1695 25.3499 23.3606C25.5942 23.5517 25.8847 23.675 26.1919 23.7181C26.6958 23.8572 27.1258 24.1868 27.391 24.6372C27.6563 25.0875 27.736 25.6234 27.6133 26.1315C27.5271 26.4866 27.3446 26.8112 27.0858 27.0692C26.827 27.3273 26.502 27.509 26.1466 27.5941C26.0033 27.627 25.857 27.6454 25.7099 27.6488C24.5999 27.6708 20.1959 27.6741 19.3099 27.6488C19.2246 27.6461 19.1399 27.6338 19.0573 27.6121C18.8941 27.5677 18.7452 27.4819 18.625 27.363C18.5048 27.2441 18.4174 27.0961 18.3713 26.9335C18.3025 26.6992 18.3223 26.4479 18.4268 26.2272C18.5313 26.0066 18.7132 25.8321 18.9379 25.7368C19.2286 25.6137 19.4666 25.3923 19.6104 25.1114C19.7543 24.8304 19.7947 24.5079 19.7246 24.2001C19.6408 23.8055 19.6479 23.397 19.7453 23.0055C19.8811 22.4609 20.1852 21.9731 20.6143 21.6115C21.0435 21.2499 21.5758 21.0329 22.1355 20.9914C22.6951 20.9499 23.2536 21.086 23.7314 21.3803C24.2092 21.6747 24.582 22.1123 24.7966 22.6308L24.7999 22.6295Z" fill="#5307B4"/>
</g>
<circle cx="21" cy="21" r="20.5" stroke="#AAAFDD" stroke-opacity="0.42"/>
<defs>
<clipPath id="clip0_17_330">
<rect width="16" height="16" fill="white" transform="translate(13 13)"/>
</clipPath>
</defs>
</svg>
