<svg width="71" height="26" viewBox="0 0 71 26" fill="none" xmlns="http://www.w3.org/2000/svg">
<path d="M44.304 19.16C43.4933 19.16 42.7413 19.016 42.048 18.728C41.3653 18.4293 40.768 18.0187 40.256 17.496C39.744 16.9627 39.3493 16.3493 39.072 15.656C38.7947 14.952 38.656 14.2 38.656 13.4C38.656 12.6 38.7947 11.8533 39.072 11.16C39.3493 10.456 39.744 9.84267 40.256 9.32C40.768 8.79733 41.3653 8.38667 42.048 8.088C42.7413 7.78933 43.4933 7.64 44.304 7.64C45.2107 7.64 45.9947 7.78933 46.656 8.088C47.3173 8.38667 47.904 8.792 48.416 9.304L47.168 10.552C46.8373 10.1893 46.432 9.90667 45.952 9.704C45.4827 9.50133 44.9333 9.4 44.304 9.4C43.7493 9.4 43.2427 9.496 42.784 9.688C42.3253 9.88 41.9253 10.1573 41.584 10.52C41.2533 10.872 40.9973 11.2933 40.816 11.784C40.6347 12.2747 40.544 12.8133 40.544 13.4C40.544 13.9867 40.6347 14.5253 40.816 15.016C40.9973 15.5067 41.2533 15.9333 41.584 16.296C41.9253 16.648 42.3253 16.92 42.784 17.112C43.2427 17.304 43.7493 17.4 44.304 17.4C44.9867 17.4 45.5627 17.2987 46.032 17.096C46.512 16.8827 46.9173 16.5947 47.248 16.232L48.496 17.48C47.984 18.0027 47.3813 18.4133 46.688 18.712C45.9947 19.0107 45.2 19.16 44.304 19.16ZM53.1835 19.16C52.4368 19.16 51.7595 18.984 51.1515 18.632C50.5435 18.2693 50.0582 17.784 49.6955 17.176C49.3435 16.568 49.1675 15.8907 49.1675 15.144C49.1675 14.3973 49.3435 13.7253 49.6955 13.128C50.0582 12.5307 50.5435 12.056 51.1515 11.704C51.7595 11.3413 52.4368 11.16 53.1835 11.16C53.9408 11.16 54.6235 11.336 55.2315 11.688C55.8395 12.04 56.3195 12.52 56.6715 13.128C57.0342 13.7253 57.2155 14.3973 57.2155 15.144C57.2155 15.8907 57.0342 16.568 56.6715 17.176C56.3195 17.784 55.8395 18.2693 55.2315 18.632C54.6235 18.984 53.9408 19.16 53.1835 19.16ZM53.1835 17.464C53.6208 17.464 54.0048 17.368 54.3355 17.176C54.6768 16.9733 54.9382 16.696 55.1195 16.344C55.3115 15.992 55.4075 15.592 55.4075 15.144C55.4075 14.696 55.3115 14.3013 55.1195 13.96C54.9275 13.6187 54.6662 13.352 54.3355 13.16C54.0048 12.9573 53.6208 12.856 53.1835 12.856C52.7568 12.856 52.3728 12.9573 52.0315 13.16C51.7008 13.352 51.4395 13.6187 51.2475 13.96C51.0662 14.3013 50.9755 14.696 50.9755 15.144C50.9755 15.592 51.0662 15.992 51.2475 16.344C51.4395 16.696 51.7008 16.9733 52.0315 17.176C52.3728 17.368 52.7568 17.464 53.1835 17.464ZM61.1911 19.16C60.7645 19.16 60.3538 19.1067 59.9591 19C59.5645 18.8827 59.2018 18.7227 58.8711 18.52C58.5405 18.3067 58.2525 18.0507 58.0071 17.752L59.1271 16.632C59.3938 16.9413 59.6978 17.176 60.0391 17.336C60.3911 17.4853 60.7858 17.56 61.2231 17.56C61.6178 17.56 61.9165 17.5013 62.1191 17.384C62.3218 17.2667 62.4231 17.096 62.4231 16.872C62.4231 16.6373 62.3271 16.456 62.1351 16.328C61.9431 16.2 61.6925 16.0933 61.3831 16.008C61.0845 15.912 60.7645 15.816 60.4231 15.72C60.0925 15.624 59.7725 15.496 59.4631 15.336C59.1645 15.1653 58.9191 14.936 58.7271 14.648C58.5351 14.36 58.4391 13.9867 58.4391 13.528C58.4391 13.0373 58.5511 12.616 58.7751 12.264C59.0098 11.912 59.3351 11.64 59.7511 11.448C60.1778 11.256 60.6845 11.16 61.2711 11.16C61.8898 11.16 62.4338 11.272 62.9031 11.496C63.3831 11.7093 63.7831 12.0347 64.1031 12.472L62.9831 13.592C62.7591 13.3147 62.5031 13.1067 62.2151 12.968C61.9271 12.8293 61.5965 12.76 61.2231 12.76C60.8711 12.76 60.5991 12.8133 60.4071 12.92C60.2151 13.0267 60.1191 13.1813 60.1191 13.384C60.1191 13.5973 60.2151 13.7627 60.4071 13.88C60.5991 13.9973 60.8445 14.0987 61.1431 14.184C61.4525 14.2693 61.7725 14.3653 62.1031 14.472C62.4445 14.568 62.7645 14.7067 63.0631 14.888C63.3725 15.0587 63.6231 15.2933 63.8151 15.592C64.0071 15.88 64.1031 16.2587 64.1031 16.728C64.1031 17.4747 63.8418 18.0667 63.3191 18.504C62.7965 18.9413 62.0871 19.16 61.1911 19.16ZM66.7221 19V8.12H68.4821V19H66.7221ZM64.8821 12.92V11.32H70.3221V12.92H64.8821Z" fill="black"/>
<path d="M12.605 0C5.65427 0 0 5.65427 0 12.605C0 19.5557 5.65427 25.21 12.605 25.21C19.5557 25.21 25.21 19.5557 25.21 12.605C25.21 5.65427 19.5557 0 12.605 0ZM16.565 16.4554C16.1843 17.0103 15.6855 17.4266 15.0317 17.7374C14.5494 17.9512 14.0473 18.0825 13.5287 18.1313V19.8256C13.5287 20.0842 13.3195 20.2927 13.0616 20.2927H11.6635C11.4049 20.2927 11.1964 20.0835 11.1964 19.8256V17.9848C10.9331 17.9201 10.6738 17.8298 10.4139 17.711C9.71519 17.426 9.15174 16.9615 8.75653 16.3367C8.36001 15.7567 8.1469 15.0792 8.11391 14.2788C8.10336 14.0255 8.29667 13.8104 8.54936 13.7933L9.80491 13.7075C10.0576 13.693 10.2714 13.8718 10.3011 14.1185C10.3512 14.5388 10.4693 14.8865 10.6435 15.124C10.8394 15.4183 11.0908 15.6116 11.4708 15.7673C12.2758 16.1216 13.2997 16.1223 14.0083 15.8498C14.3224 15.7152 14.5447 15.5608 14.6919 15.3708C14.8179 15.19 14.8799 15 14.8799 14.773C14.8799 14.5599 14.8251 14.4029 14.6925 14.2327C14.6233 14.1403 14.4445 13.9674 13.974 13.7794C13.7444 13.7035 13.148 13.534 12.2401 13.3143C11.1799 13.0497 10.5663 12.8491 10.1856 12.6426C9.61886 12.3431 9.1933 11.9696 8.92609 11.5348C8.65229 11.0921 8.51373 10.5867 8.51373 10.0339C8.51373 9.43214 8.68198 8.8588 9.01318 8.32966C9.35627 7.81371 9.86232 7.40861 10.4838 7.14734C10.6917 7.05299 10.9279 6.97382 11.197 6.91048V5.35275C11.197 5.09412 11.4062 4.88563 11.6642 4.88563H13.0622C13.3209 4.88563 13.5293 5.09478 13.5293 5.35275V6.82801C13.9496 6.89795 14.3389 7.00417 14.6919 7.1447C15.3747 7.4515 15.8702 7.86254 16.2239 8.40949C16.5782 8.92543 16.7781 9.54496 16.813 10.2397C16.8256 10.4944 16.6316 10.7121 16.3769 10.7293L15.0917 10.8157C14.8436 10.8328 14.6305 10.656 14.5969 10.4126C14.5249 9.88541 14.3488 9.51725 14.0578 9.28831C13.7273 9.00659 13.2476 8.87529 12.5773 8.87529C11.9208 8.87529 11.3937 9.00263 11.0921 9.23487C10.8474 9.42356 10.7326 9.65053 10.7326 9.94875C10.7326 10.1783 10.8045 10.3585 10.9463 10.4851C11.0215 10.5445 11.4319 10.8117 12.7587 11.0908C13.8546 11.3494 14.6602 11.585 15.1016 11.775C15.8049 12.0917 16.3077 12.5001 16.6026 12.991C16.9318 13.4838 17.0974 14.0354 17.0974 14.6582C17.0974 15.3061 16.9186 15.9105 16.565 16.4554Z" fill="#5307B4"/>
</svg>
