<svg width="19" height="24" viewBox="0 0 19 24" fill="none" xmlns="http://www.w3.org/2000/svg">
<path d="M7.66706 11.5108C7.92124 11.5108 8.16501 11.6119 8.34474 11.7917C8.52447 11.9716 8.62544 12.2156 8.62544 12.47C8.62544 12.7244 8.52447 12.9684 8.34474 13.1483C8.16501 13.3282 7.92124 13.4293 7.66706 13.4293H4.79191C4.53773 13.4293 4.29397 13.3282 4.11423 13.1483C3.9345 12.9684 3.83353 12.7244 3.83353 12.47C3.83353 12.2156 3.9345 11.9716 4.11423 11.7917C4.29397 11.6119 4.53773 11.5108 4.79191 11.5108H7.66706ZM13.4174 8.63309C13.4174 8.37869 13.3164 8.1347 13.1367 7.95481C12.9569 7.77492 12.7132 7.67386 12.459 7.67386H4.79191C4.53773 7.67386 4.29397 7.77492 4.11423 7.95481C3.9345 8.1347 3.83353 8.37869 3.83353 8.63309C3.83353 8.8875 3.9345 9.13148 4.11423 9.31137C4.29397 9.49126 4.53773 9.59233 4.79191 9.59233H12.459C12.7132 9.59233 12.9569 9.49126 13.1367 9.31137C13.3164 9.13148 13.4174 8.8875 13.4174 8.63309ZM4.79191 5.7554H12.459C12.7132 5.7554 12.9569 5.65433 13.1367 5.47444C13.3164 5.29455 13.4174 5.05057 13.4174 4.79616C13.4174 4.54176 13.3164 4.29777 13.1367 4.11788C12.9569 3.93799 12.7132 3.83693 12.459 3.83693H4.79191C4.53773 3.83693 4.29397 3.93799 4.11423 4.11788C3.9345 4.29777 3.83353 4.54176 3.83353 4.79616C3.83353 5.05057 3.9345 5.29455 4.11423 5.47444C4.29397 5.65433 4.53773 5.7554 4.79191 5.7554ZM16.2925 18.6513V22.3281C16.2926 22.4649 16.2521 22.5987 16.1762 22.7125C16.1002 22.8263 15.9923 22.915 15.866 22.9673C15.7397 23.0197 15.6007 23.0334 15.4666 23.0067C15.3325 22.98 15.2094 22.9141 15.1127 22.8173L14.3757 22.0806L13.6387 22.8173C13.5421 22.9141 13.4189 22.98 13.2849 23.0067C13.1508 23.0334 13.0118 23.0197 12.8855 22.9673C12.7592 22.915 12.6512 22.8263 12.5753 22.7125C12.4994 22.5987 12.4589 22.4649 12.459 22.3281V18.6513C11.7281 18.231 11.1565 17.5806 10.8334 16.8013C10.5102 16.022 10.4536 15.1577 10.6723 14.3429C10.8911 13.5281 11.3729 12.8085 12.0427 12.2963C12.7125 11.784 13.5328 11.5079 14.3757 11.5108C14.6997 11.5148 15.0218 11.5606 15.3341 11.647V4.79616C15.3341 4.03295 15.0312 3.301 14.492 2.76132C13.9528 2.22165 13.2215 1.91847 12.459 1.91847H4.79191C4.02938 1.91847 3.29807 2.22165 2.75888 2.76132C2.21968 3.301 1.91676 4.03295 1.91676 4.79616V16.307C1.91676 17.0702 2.21968 17.8021 2.75888 18.3418C3.29807 18.8815 4.02938 19.1847 4.79191 19.1847H9.58383C9.838 19.1847 10.0818 19.2857 10.2615 19.4656C10.4412 19.6455 10.5422 19.8895 10.5422 20.1439C10.5422 20.3983 10.4412 20.6423 10.2615 20.8222C10.0818 21.0021 9.838 21.1031 9.58383 21.1031H4.79191C3.52149 21.1016 2.30353 20.5958 1.4052 19.6967C0.506871 18.7975 0.00152177 17.5785 0 16.307V4.79616C0.00152177 3.52461 0.506871 2.30557 1.4052 1.40645C2.30353 0.507321 3.52149 0.00152312 4.79191 0L12.459 0C13.7294 0.00152312 14.9474 0.507321 15.8457 1.40645C16.744 2.30557 17.2494 3.52461 17.2509 4.79616V12.8365C17.6263 13.2584 17.9027 13.7591 18.0598 14.3018C18.2169 14.8444 18.2507 15.4154 18.1588 15.9729C18.067 16.5304 17.8517 17.0602 17.5288 17.5237C17.2058 17.9871 16.7834 18.3724 16.2925 18.6513ZM16.2925 15.3477C16.2925 14.9683 16.1801 14.5974 15.9695 14.2819C15.7589 13.9664 15.4595 13.7205 15.1093 13.5753C14.759 13.4301 14.3736 13.3921 14.0018 13.4661C13.63 13.5401 13.2884 13.7229 13.0204 13.9912C12.7523 14.2595 12.5698 14.6013 12.4958 14.9734C12.4218 15.3456 12.4598 15.7313 12.6049 16.0819C12.75 16.4324 12.9956 16.7321 13.3108 16.9429C13.626 17.1537 13.9966 17.2662 14.3757 17.2662C14.8841 17.2662 15.3716 17.0641 15.7311 16.7043C16.0906 16.3445 16.2925 15.8565 16.2925 15.3477Z" fill="#697386"/>
</svg>
