<svg width="134" height="20" viewBox="0 0 134 20" fill="none" xmlns="http://www.w3.org/2000/svg">
<path d="M40.272 16.16C39.504 16.16 38.7787 16.0107 38.096 15.712C37.4133 15.4133 36.816 15.0027 36.304 14.48C35.792 13.9467 35.3867 13.3333 35.088 12.64C34.8 11.936 34.656 11.184 34.656 10.384C34.656 9.584 34.8 8.83733 35.088 8.144C35.3867 7.45067 35.792 6.84267 36.304 6.32C36.8267 5.78667 37.4347 5.376 38.128 5.088C38.832 4.78933 39.5893 4.64 40.4 4.64C41.2853 4.64 42.1067 4.81067 42.864 5.152C43.6213 5.49333 44.256 5.97867 44.768 6.608L43.52 7.856C43.1893 7.38667 42.7467 7.02933 42.192 6.784C41.6373 6.528 41.04 6.4 40.4 6.4C39.632 6.4 38.9547 6.57067 38.368 6.912C37.792 7.24267 37.344 7.70667 37.024 8.304C36.704 8.90133 36.544 9.59467 36.544 10.384C36.544 11.1733 36.704 11.872 37.024 12.48C37.3547 13.0773 37.7973 13.5467 38.352 13.888C38.9067 14.2293 39.536 14.4 40.24 14.4C40.9867 14.4 41.6267 14.2667 42.16 14C42.704 13.7227 43.12 13.3173 43.408 12.784C43.696 12.24 43.84 11.5733 43.84 10.784L44.992 11.616H40.208V9.936H45.744V10.192C45.744 11.5253 45.504 12.6347 45.024 13.52C44.5547 14.4053 43.9093 15.0667 43.088 15.504C42.2667 15.9413 41.328 16.16 40.272 16.16ZM47.3354 16V4.48H49.0954V16H47.3354ZM54.5741 16.16C53.8275 16.16 53.1501 15.984 52.5421 15.632C51.9341 15.2693 51.4488 14.784 51.0861 14.176C50.7341 13.568 50.5581 12.8907 50.5581 12.144C50.5581 11.3973 50.7341 10.7253 51.0861 10.128C51.4488 9.53067 51.9341 9.056 52.5421 8.704C53.1501 8.34133 53.8275 8.16 54.5741 8.16C55.3315 8.16 56.0141 8.336 56.6221 8.688C57.2301 9.04 57.7101 9.52 58.0621 10.128C58.4248 10.7253 58.6061 11.3973 58.6061 12.144C58.6061 12.8907 58.4248 13.568 58.0621 14.176C57.7101 14.784 57.2301 15.2693 56.6221 15.632C56.0141 15.984 55.3315 16.16 54.5741 16.16ZM54.5741 14.464C55.0115 14.464 55.3955 14.368 55.7261 14.176C56.0675 13.9733 56.3288 13.696 56.5101 13.344C56.7021 12.992 56.7981 12.592 56.7981 12.144C56.7981 11.696 56.7021 11.3013 56.5101 10.96C56.3181 10.6187 56.0568 10.352 55.7261 10.16C55.3955 9.95733 55.0115 9.856 54.5741 9.856C54.1475 9.856 53.7635 9.95733 53.4221 10.16C53.0915 10.352 52.8301 10.6187 52.6381 10.96C52.4568 11.3013 52.3661 11.696 52.3661 12.144C52.3661 12.592 52.4568 12.992 52.6381 13.344C52.8301 13.696 53.0915 13.9733 53.4221 14.176C53.7635 14.368 54.1475 14.464 54.5741 14.464ZM64.1818 16.16C63.5951 16.16 63.0724 16.0373 62.6138 15.792C62.1551 15.536 61.7924 15.1893 61.5258 14.752C61.2698 14.3147 61.1418 13.8187 61.1418 13.264V11.056C61.1418 10.5013 61.2751 10.0053 61.5418 9.568C61.8084 9.13067 62.1711 8.78933 62.6298 8.544C63.0884 8.288 63.6058 8.16 64.1818 8.16C64.8751 8.16 65.4991 8.34133 66.0538 8.704C66.6191 9.056 67.0618 9.536 67.3818 10.144C67.7124 10.7413 67.8778 11.4187 67.8778 12.176C67.8778 12.9227 67.7124 13.6 67.3818 14.208C67.0618 14.8053 66.6191 15.28 66.0538 15.632C65.4991 15.984 64.8751 16.16 64.1818 16.16ZM63.8938 14.496C64.3204 14.496 64.6938 14.4 65.0138 14.208C65.3444 14.0053 65.6004 13.728 65.7818 13.376C65.9738 13.024 66.0698 12.6187 66.0698 12.16C66.0698 11.7013 65.9738 11.296 65.7818 10.944C65.6004 10.592 65.3444 10.32 65.0138 10.128C64.6938 9.92533 64.3204 9.824 63.8938 9.824C63.4671 9.824 63.0884 9.92533 62.7578 10.128C62.4271 10.32 62.1711 10.592 61.9898 10.944C61.8084 11.296 61.7178 11.7013 61.7178 12.16C61.7178 12.6187 61.8084 13.024 61.9898 13.376C62.1711 13.728 62.4271 14.0053 62.7578 14.208C63.0884 14.4 63.4671 14.496 63.8938 14.496ZM60.0698 16V4.48H61.8298V10.208L61.5258 12.064L61.8298 13.936V16H60.0698ZM72.567 16.16C71.8737 16.16 71.2443 15.984 70.679 15.632C70.1243 15.28 69.6817 14.8053 69.351 14.208C69.031 13.6 68.871 12.9227 68.871 12.176C68.871 11.4187 69.031 10.7413 69.351 10.144C69.6817 9.536 70.1243 9.056 70.679 8.704C71.2443 8.34133 71.8737 8.16 72.567 8.16C73.1537 8.16 73.671 8.288 74.119 8.544C74.5777 8.78933 74.9403 9.13067 75.207 9.568C75.4737 10.0053 75.607 10.5013 75.607 11.056V13.264C75.607 13.8187 75.4737 14.3147 75.207 14.752C74.951 15.1893 74.5937 15.536 74.135 15.792C73.6763 16.0373 73.1537 16.16 72.567 16.16ZM72.855 14.496C73.5057 14.496 74.0283 14.2773 74.423 13.84C74.8283 13.4027 75.031 12.8427 75.031 12.16C75.031 11.7013 74.9403 11.296 74.759 10.944C74.5777 10.592 74.3217 10.32 73.991 10.128C73.671 9.92533 73.2923 9.824 72.855 9.824C72.4283 9.824 72.0497 9.92533 71.719 10.128C71.399 10.32 71.143 10.592 70.951 10.944C70.7697 11.296 70.679 11.7013 70.679 12.16C70.679 12.6187 70.7697 13.024 70.951 13.376C71.143 13.728 71.399 14.0053 71.719 14.208C72.0497 14.4 72.4283 14.496 72.855 14.496ZM74.919 16V13.936L75.223 12.064L74.919 10.208V8.32H76.679V16H74.919ZM78.6323 16V4.48H80.3923V16H78.6323ZM87.0581 16V14.32H90.0021C90.7701 14.32 91.4421 14.1547 92.0181 13.824C92.6048 13.4933 93.0581 13.0347 93.3781 12.448C93.7088 11.8507 93.8741 11.1627 93.8741 10.384C93.8741 9.616 93.7088 8.93867 93.3781 8.352C93.0475 7.76533 92.5888 7.30667 92.0021 6.976C91.4261 6.64533 90.7595 6.48 90.0021 6.48H87.0581V4.8H90.0501C90.8608 4.8 91.6128 4.944 92.3061 5.232C92.9995 5.50933 93.6021 5.904 94.1141 6.416C94.6368 6.91733 95.0421 7.50933 95.3301 8.192C95.6181 8.864 95.7621 9.6 95.7621 10.4C95.7621 11.1893 95.6181 11.9253 95.3301 12.608C95.0421 13.2907 94.6421 13.888 94.1301 14.4C93.6181 14.9013 93.0155 15.296 92.3221 15.584C91.6288 15.8613 90.8821 16 90.0821 16H87.0581ZM85.7941 16V4.8H87.6341V16H85.7941ZM100.966 16.16C100.198 16.16 99.5045 15.9893 98.8859 15.648C98.2779 15.296 97.7925 14.816 97.4299 14.208C97.0779 13.6 96.9019 12.9173 96.9019 12.16C96.9019 11.4027 97.0779 10.7253 97.4299 10.128C97.7819 9.52 98.2565 9.04 98.8539 8.688C99.4619 8.336 100.134 8.16 100.87 8.16C101.585 8.16 102.214 8.32533 102.758 8.656C103.313 8.98667 103.745 9.44 104.054 10.016C104.374 10.592 104.534 11.248 104.534 11.984C104.534 12.112 104.523 12.2453 104.502 12.384C104.491 12.512 104.47 12.656 104.438 12.816H98.1339V11.376H103.526L102.87 11.952C102.849 11.4827 102.758 11.088 102.598 10.768C102.438 10.448 102.209 10.2027 101.91 10.032C101.622 9.86133 101.265 9.776 100.838 9.776C100.39 9.776 100.001 9.872 99.6699 10.064C99.3392 10.256 99.0832 10.528 98.9019 10.88C98.7205 11.2213 98.6299 11.632 98.6299 12.112C98.6299 12.592 98.7259 13.0133 98.9179 13.376C99.1099 13.7387 99.3819 14.0213 99.7339 14.224C100.086 14.416 100.491 14.512 100.95 14.512C101.345 14.512 101.707 14.4427 102.038 14.304C102.379 14.1653 102.667 13.9627 102.902 13.696L104.022 14.832C103.649 15.2693 103.195 15.6 102.662 15.824C102.129 16.048 101.563 16.16 100.966 16.16ZM106.91 16V5.12H108.67V16H106.91ZM105.07 9.92V8.32H110.51V9.92H105.07ZM114.786 16.16C114.092 16.16 113.463 15.984 112.898 15.632C112.343 15.28 111.9 14.8053 111.57 14.208C111.25 13.6 111.09 12.9227 111.09 12.176C111.09 11.4187 111.25 10.7413 111.57 10.144C111.9 9.536 112.343 9.056 112.898 8.704C113.463 8.34133 114.092 8.16 114.786 8.16C115.372 8.16 115.89 8.288 116.338 8.544C116.796 8.78933 117.159 9.13067 117.426 9.568C117.692 10.0053 117.826 10.5013 117.826 11.056V13.264C117.826 13.8187 117.692 14.3147 117.426 14.752C117.17 15.1893 116.812 15.536 116.354 15.792C115.895 16.0373 115.372 16.16 114.786 16.16ZM115.074 14.496C115.724 14.496 116.247 14.2773 116.642 13.84C117.047 13.4027 117.25 12.8427 117.25 12.16C117.25 11.7013 117.159 11.296 116.978 10.944C116.796 10.592 116.54 10.32 116.21 10.128C115.89 9.92533 115.511 9.824 115.074 9.824C114.647 9.824 114.268 9.92533 113.938 10.128C113.618 10.32 113.362 10.592 113.17 10.944C112.988 11.296 112.898 11.7013 112.898 12.16C112.898 12.6187 112.988 13.024 113.17 13.376C113.362 13.728 113.618 14.0053 113.938 14.208C114.268 14.4 114.647 14.496 115.074 14.496ZM117.138 16V13.936L117.442 12.064L117.138 10.208V8.32H118.898V16H117.138ZM120.867 16V8.32H122.627V16H120.867ZM121.747 6.912C121.448 6.912 121.198 6.81067 120.995 6.608C120.803 6.40533 120.707 6.15467 120.707 5.856C120.707 5.55733 120.803 5.30667 120.995 5.104C121.198 4.90133 121.448 4.8 121.747 4.8C122.056 4.8 122.307 4.90133 122.499 5.104C122.691 5.30667 122.787 5.55733 122.787 5.856C122.787 6.15467 122.691 6.40533 122.499 6.608C122.307 6.81067 122.056 6.912 121.747 6.912ZM124.601 16V4.48H126.361V16H124.601ZM130.832 16.16C130.405 16.16 129.994 16.1067 129.6 16C129.205 15.8827 128.842 15.7227 128.512 15.52C128.181 15.3067 127.893 15.0507 127.648 14.752L128.768 13.632C129.034 13.9413 129.338 14.176 129.68 14.336C130.032 14.4853 130.426 14.56 130.864 14.56C131.258 14.56 131.557 14.5013 131.76 14.384C131.962 14.2667 132.064 14.096 132.064 13.872C132.064 13.6373 131.968 13.456 131.776 13.328C131.584 13.2 131.333 13.0933 131.024 13.008C130.725 12.912 130.405 12.816 130.064 12.72C129.733 12.624 129.413 12.496 129.104 12.336C128.805 12.1653 128.56 11.936 128.368 11.648C128.176 11.36 128.08 10.9867 128.08 10.528C128.08 10.0373 128.192 9.616 128.416 9.264C128.65 8.912 128.976 8.64 129.392 8.448C129.818 8.256 130.325 8.16 130.912 8.16C131.53 8.16 132.074 8.272 132.544 8.496C133.024 8.70933 133.424 9.03467 133.744 9.472L132.624 10.592C132.4 10.3147 132.144 10.1067 131.856 9.968C131.568 9.82933 131.237 9.76 130.864 9.76C130.512 9.76 130.24 9.81333 130.048 9.92C129.856 10.0267 129.76 10.1813 129.76 10.384C129.76 10.5973 129.856 10.7627 130.048 10.88C130.24 10.9973 130.485 11.0987 130.784 11.184C131.093 11.2693 131.413 11.3653 131.744 11.472C132.085 11.568 132.405 11.7067 132.704 11.888C133.013 12.0587 133.264 12.2933 133.456 12.592C133.648 12.88 133.744 13.2587 133.744 13.728C133.744 14.4747 133.482 15.0667 132.96 15.504C132.437 15.9413 131.728 16.16 130.832 16.16Z" fill="black"/>
<g clip-path="url(#clip0_3_2)">
<path d="M4.16673 6.66639C4.16673 5.34785 4.55772 4.05892 5.29026 2.96259C6.0228 1.86626 7.064 1.01178 8.28217 0.507194C9.50034 0.0026093 10.8408 -0.129413 12.134 0.127822C13.4272 0.385057 14.6151 1.02 15.5474 1.95235C16.4798 2.8847 17.1147 4.07258 17.372 5.36579C17.6292 6.659 17.4972 7.99944 16.9926 9.21761C16.488 10.4358 15.6335 11.477 14.5372 12.2095C13.4409 12.9421 12.1519 13.3331 10.8334 13.3331C9.06589 13.3311 7.37135 12.6281 6.12154 11.3782C4.87173 10.1284 4.16871 8.43389 4.16673 6.66639ZM18.8717 11.1522C18.6894 11.0274 18.4649 10.9801 18.2477 11.0207C18.0305 11.0613 17.8383 11.1866 17.7134 11.3689C17.0776 12.2975 16.2604 13.0877 15.3109 13.6919C14.3614 14.296 13.2994 14.7016 12.1889 14.8841C11.0784 15.0666 9.94244 15.0224 8.84953 14.7539C7.75662 14.4855 6.7294 13.9985 5.82984 13.3222C4.93028 12.646 4.17701 11.7946 3.61546 10.8193C3.05391 9.844 2.69573 8.76508 2.56251 7.6476C2.42929 6.53012 2.52379 5.39723 2.84032 4.31727C3.15685 3.23731 3.68885 2.23265 4.40422 1.36389C4.54501 1.19349 4.61234 0.97414 4.5914 0.754097C4.57046 0.534054 4.46296 0.331343 4.29256 0.190557C4.12216 0.0497713 3.90281 -0.0175564 3.68276 0.00338512C3.46272 0.0243267 3.26001 0.131822 3.11923 0.302224C1.9577 1.70998 1.20379 3.4089 0.939276 5.21471C0.674763 7.02052 0.909742 8.86429 1.61873 10.546C2.32771 12.2278 3.48363 13.6833 4.96112 14.7547C6.43861 15.8261 8.18126 16.4726 10.0001 16.6239V18.3331H6.66673C6.44571 18.3331 6.23375 18.4209 6.07747 18.5771C5.92119 18.7334 5.83339 18.9454 5.83339 19.1664C5.83339 19.3874 5.92119 19.5994 6.07747 19.7556C6.23375 19.9119 6.44571 19.9997 6.66673 19.9997H15.0001C15.2211 19.9997 15.433 19.9119 15.5893 19.7556C15.7456 19.5994 15.8334 19.3874 15.8334 19.1664C15.8334 18.9454 15.7456 18.7334 15.5893 18.5771C15.433 18.4209 15.2211 18.3331 15.0001 18.3331H11.6667V16.6156C13.146 16.4942 14.5796 16.0449 15.8635 15.3002C17.1474 14.5556 18.2494 13.5343 19.0892 12.3106C19.151 12.2202 19.1944 12.1186 19.2169 12.0115C19.2394 11.9044 19.2406 11.7939 19.2204 11.6863C19.2002 11.5788 19.159 11.4762 19.0992 11.3846C19.0394 11.293 18.9621 11.214 18.8717 11.1522Z" fill="#5307B4"/>
</g>
<defs>
<clipPath id="clip0_3_2">
<rect width="20" height="20" fill="white"/>
</clipPath>
</defs>
</svg>
