<svg width="19" height="17" viewBox="0 0 19 17" fill="none" xmlns="http://www.w3.org/2000/svg">
<path d="M14.5482 14.156C14.7611 14.1736 14.9765 14.1826 15.1939 14.1826C16.0958 14.1826 16.9616 14.0283 17.7664 13.7446C17.7719 13.676 17.7747 13.6068 17.7747 13.5368C17.7747 12.1103 16.6192 10.9538 15.1939 10.9538C14.654 10.9538 14.1528 11.1198 13.7385 11.4035M14.5482 14.156C14.5482 14.1649 14.5483 14.1737 14.5483 14.1826C14.5483 14.3763 14.5376 14.5676 14.5169 14.7557C13.0056 15.6236 11.2541 16.1199 9.38678 16.1199C7.51946 16.1199 5.76795 15.6236 4.2567 14.7557C4.23595 14.5675 4.2253 14.3763 4.2253 14.1826C4.2253 14.1738 4.22532 14.1649 4.22536 14.1561M14.5482 14.156C14.5431 13.143 14.2467 12.1989 13.7385 11.4035M13.7385 11.4035C12.8216 9.96812 11.2152 9.01655 9.38678 9.01655C7.55857 9.01655 5.95237 9.96788 5.03538 11.4029M5.03538 11.4029C4.62121 11.1196 4.12031 10.9538 3.58074 10.9538C2.15544 10.9538 1 12.1103 1 13.5368C1 13.6068 1.00278 13.676 1.00822 13.7446C1.8131 14.0283 2.67891 14.1826 3.58074 14.1826C3.79782 14.1826 4.01281 14.1737 4.22536 14.1561M5.03538 11.4029C4.52699 12.1985 4.23044 13.1428 4.22536 14.1561M11.9675 3.85049C11.9675 5.27705 10.8121 6.43352 9.38678 6.43352C7.96147 6.43352 6.80604 5.27705 6.80604 3.85049C6.80604 2.42392 7.96147 1.26746 9.38678 1.26746C10.8121 1.26746 11.9675 2.42392 11.9675 3.85049ZM17.129 6.43352C17.129 7.50344 16.2624 8.37079 15.1934 8.37079C14.1245 8.37079 13.2579 7.50344 13.2579 6.43352C13.2579 5.36359 14.1245 4.49624 15.1934 4.49624C16.2624 4.49624 17.129 5.36359 17.129 6.43352ZM5.51567 6.43352C5.51567 7.50344 4.64909 8.37079 3.58011 8.37079C2.51113 8.37079 1.64455 7.50344 1.64455 6.43352C1.64455 5.36359 2.51113 4.49624 3.58011 4.49624C4.64909 4.49624 5.51567 5.36359 5.51567 6.43352Z" stroke="#B1860B" stroke-width="1.5" stroke-linecap="round" stroke-linejoin="round"/>
</svg>
