<svg width="65" height="65" viewBox="0 0 65 65" fill="none" xmlns="http://www.w3.org/2000/svg">
<g filter="url(#filter0_d_205_1745)">
<circle cx="32.5" cy="28.5" r="14.5" fill="white"/>
<path d="M38.121 23.5044L38.1185 23.5069C38.1724 23.6562 38.2226 23.8074 38.2656 23.9616C38.2219 23.8072 38.1751 23.6542 38.121 23.5044ZM32.0708 19.2517L27.5177 21.1379L30.1337 23.754C30.645 23.2391 31.3399 22.9485 32.0654 22.946C32.791 22.9435 33.4879 23.2294 34.0027 23.7407C34.5175 24.252 34.8081 24.9469 34.8106 25.6725C34.8131 26.398 34.5273 27.0949 34.016 27.6097L37.8661 23.7591L38.1185 23.5069C37.6707 22.2616 36.8497 21.1846 35.7674 20.4231C34.6851 19.6616 33.3942 19.2525 32.0708 19.2517Z" fill="#4285F4"/>
<path d="M32.0706 28.4236C31.5297 28.4235 31.001 28.2631 30.5511 27.9627C30.1013 27.6622 29.7506 27.2352 29.5433 26.7356C29.3361 26.236 29.2815 25.6861 29.3865 25.1555C29.4916 24.6249 29.7515 24.1373 30.1335 23.7543L27.5175 21.1383C26.9187 21.7355 26.4438 22.4452 26.1201 23.2266C25.7965 24.0079 25.6304 24.8455 25.6315 25.6912C25.6315 28.5281 27.09 30.306 28.806 32.1304C28.921 32.2481 29.0168 32.3784 29.1253 32.5004L33.9938 27.6318C33.4825 28.1395 32.7911 28.4241 32.0706 28.4236Z" fill="#FFBA00"/>
<path d="M32.0706 19.2517C30.3629 19.2517 28.725 19.9301 27.5175 21.1377C26.3099 22.3453 25.6315 23.9831 25.6315 25.6909C25.6302 26.4463 25.7487 27.1971 25.9827 27.9153L34.2573 19.641C33.5566 19.385 32.8166 19.2533 32.0706 19.2517Z" fill="#0066DA"/>
<path d="M32.651 36.5663C33.2359 34.939 34.1161 33.4335 35.2473 32.1255C37.0918 30.2514 38.51 28.5277 38.51 25.6906C38.5085 24.9447 38.3768 24.2047 38.121 23.504L29.1255 32.4995C30.1611 33.6767 30.9478 35.0513 31.438 36.5406C31.4792 36.6675 31.5588 36.7784 31.6658 36.858C31.7729 36.9375 31.902 36.9818 32.0354 36.9846C32.1687 36.9875 32.2997 36.9487 32.41 36.8738C32.5203 36.7988 32.6046 36.6914 32.651 36.5663Z" fill="#00AC47"/>
<path d="M27.5175 21.1383C26.9187 21.7355 26.4438 22.4452 26.1201 23.2266C25.7965 24.0079 25.6304 24.8455 25.6315 25.6912C25.6302 26.4466 25.7487 27.1974 25.9827 27.9157L30.1389 23.7595L27.5175 21.1383Z" fill="#EA4435"/>
</g>
<defs>
<filter id="filter0_d_205_1745" x="0" y="0" width="65" height="65" filterUnits="userSpaceOnUse" color-interpolation-filters="sRGB">
<feFlood flood-opacity="0" result="BackgroundImageFix"/>
<feColorMatrix in="SourceAlpha" type="matrix" values="0 0 0 0 0 0 0 0 0 0 0 0 0 0 0 0 0 0 127 0" result="hardAlpha"/>
<feOffset dy="4"/>
<feGaussianBlur stdDeviation="9"/>
<feComposite in2="hardAlpha" operator="out"/>
<feColorMatrix type="matrix" values="0 0 0 0 0 0 0 0 0 0 0 0 0 0 0 0 0 0 0.21 0"/>
<feBlend mode="normal" in2="BackgroundImageFix" result="effect1_dropShadow_205_1745"/>
<feBlend mode="normal" in="SourceGraphic" in2="effect1_dropShadow_205_1745" result="shape"/>
</filter>
</defs>
</svg>
