<svg width="137" height="24" viewBox="0 0 137 24" fill="none" xmlns="http://www.w3.org/2000/svg">
<path d="M39.48 13.776V12.176H42.28C42.664 12.176 43 12.1013 43.288 11.952C43.5867 11.792 43.8213 11.5733 43.992 11.296C44.1627 11.008 44.248 10.672 44.248 10.288C44.248 9.904 44.1627 9.57333 43.992 9.296C43.8213 9.008 43.5867 8.78933 43.288 8.64C43 8.48 42.664 8.4 42.28 8.4H39.48V6.8H42.376C43.08 6.8 43.7093 6.944 44.264 7.232C44.8293 7.52 45.272 7.92533 45.592 8.448C45.9227 8.97067 46.088 9.584 46.088 10.288C46.088 10.992 45.9227 11.6053 45.592 12.128C45.272 12.6507 44.8293 13.056 44.264 13.344C43.7093 13.632 43.08 13.776 42.376 13.776H39.48ZM38.216 18V6.8H40.056V18H38.216ZM47.6323 18V10.32H49.3923V18H47.6323ZM49.3923 13.728L48.7843 13.424C48.7843 12.4533 48.9976 11.6693 49.4243 11.072C49.8616 10.464 50.5176 10.16 51.3923 10.16C51.7763 10.16 52.1229 10.2293 52.4323 10.368C52.7416 10.5067 53.0296 10.7307 53.2963 11.04L52.1443 12.224C52.0056 12.0747 51.8509 11.968 51.6803 11.904C51.5096 11.84 51.3123 11.808 51.0883 11.808C50.5976 11.808 50.1923 11.9627 49.8723 12.272C49.5523 12.5813 49.3923 13.0667 49.3923 13.728ZM57.4815 18.16C56.7135 18.16 56.0202 17.9893 55.4015 17.648C54.7935 17.296 54.3082 16.816 53.9455 16.208C53.5935 15.6 53.4175 14.9173 53.4175 14.16C53.4175 13.4027 53.5935 12.7253 53.9455 12.128C54.2975 11.52 54.7722 11.04 55.3695 10.688C55.9775 10.336 56.6495 10.16 57.3855 10.16C58.1002 10.16 58.7295 10.3253 59.2735 10.656C59.8282 10.9867 60.2602 11.44 60.5695 12.016C60.8895 12.592 61.0495 13.248 61.0495 13.984C61.0495 14.112 61.0388 14.2453 61.0175 14.384C61.0068 14.512 60.9855 14.656 60.9535 14.816H54.6495V13.376H60.0415L59.3855 13.952C59.3642 13.4827 59.2735 13.088 59.1135 12.768C58.9535 12.448 58.7242 12.2027 58.4255 12.032C58.1375 11.8613 57.7802 11.776 57.3535 11.776C56.9055 11.776 56.5162 11.872 56.1855 12.064C55.8548 12.256 55.5988 12.528 55.4175 12.88C55.2362 13.2213 55.1455 13.632 55.1455 14.112C55.1455 14.592 55.2415 15.0133 55.4335 15.376C55.6255 15.7387 55.8975 16.0213 56.2495 16.224C56.6015 16.416 57.0068 16.512 57.4655 16.512C57.8602 16.512 58.2228 16.4427 58.5535 16.304C58.8948 16.1653 59.1828 15.9627 59.4175 15.696L60.5375 16.832C60.1642 17.2693 59.7108 17.6 59.1775 17.824C58.6442 18.048 58.0788 18.16 57.4815 18.16ZM62.7416 14.752V13.088H68.1656V14.752H62.7416ZM70.1166 18V10.32H71.8766V18H70.1166ZM71.8766 13.728L71.2686 13.424C71.2686 12.4533 71.482 11.6693 71.9086 11.072C72.346 10.464 73.002 10.16 73.8766 10.16C74.2606 10.16 74.6073 10.2293 74.9166 10.368C75.226 10.5067 75.514 10.7307 75.7806 11.04L74.6286 12.224C74.49 12.0747 74.3353 11.968 74.1646 11.904C73.994 11.84 73.7966 11.808 73.5726 11.808C73.082 11.808 72.6766 11.9627 72.3566 12.272C72.0366 12.5813 71.8766 13.0667 71.8766 13.728ZM79.9659 18.16C79.1979 18.16 78.5045 17.9893 77.8859 17.648C77.2779 17.296 76.7925 16.816 76.4299 16.208C76.0779 15.6 75.9019 14.9173 75.9019 14.16C75.9019 13.4027 76.0779 12.7253 76.4299 12.128C76.7819 11.52 77.2565 11.04 77.8539 10.688C78.4619 10.336 79.1339 10.16 79.8699 10.16C80.5845 10.16 81.2139 10.3253 81.7579 10.656C82.3125 10.9867 82.7445 11.44 83.0539 12.016C83.3739 12.592 83.5339 13.248 83.5339 13.984C83.5339 14.112 83.5232 14.2453 83.5019 14.384C83.4912 14.512 83.4699 14.656 83.4379 14.816H77.1339V13.376H82.5259L81.8699 13.952C81.8485 13.4827 81.7579 13.088 81.5979 12.768C81.4379 12.448 81.2085 12.2027 80.9099 12.032C80.6219 11.8613 80.2645 11.776 79.8379 11.776C79.3899 11.776 79.0005 11.872 78.6699 12.064C78.3392 12.256 78.0832 12.528 77.9019 12.88C77.7205 13.2213 77.6299 13.632 77.6299 14.112C77.6299 14.592 77.7259 15.0133 77.9179 15.376C78.1099 15.7387 78.3819 16.0213 78.7339 16.224C79.0859 16.416 79.4912 16.512 79.9499 16.512C80.3445 16.512 80.7072 16.4427 81.0379 16.304C81.3792 16.1653 81.6672 15.9627 81.9019 15.696L83.0219 16.832C82.6485 17.2693 82.1952 17.6 81.6619 17.824C81.1285 18.048 80.5632 18.16 79.9659 18.16ZM88.1608 18.16C87.4674 18.16 86.8381 17.984 86.2728 17.632C85.7181 17.28 85.2754 16.8053 84.9448 16.208C84.6248 15.6 84.4648 14.9227 84.4648 14.176C84.4648 13.4187 84.6248 12.7413 84.9448 12.144C85.2754 11.536 85.7181 11.056 86.2728 10.704C86.8381 10.3413 87.4674 10.16 88.1608 10.16C88.7474 10.16 89.2648 10.288 89.7128 10.544C90.1714 10.7893 90.5341 11.1307 90.8008 11.568C91.0674 12.0053 91.2008 12.5013 91.2008 13.056V15.264C91.2008 15.8187 91.0674 16.3147 90.8008 16.752C90.5448 17.1893 90.1874 17.536 89.7288 17.792C89.2701 18.0373 88.7474 18.16 88.1608 18.16ZM88.4488 16.496C89.0994 16.496 89.6221 16.2773 90.0168 15.84C90.4221 15.4027 90.6248 14.8427 90.6248 14.16C90.6248 13.7013 90.5341 13.296 90.3528 12.944C90.1714 12.592 89.9154 12.32 89.5848 12.128C89.2648 11.9253 88.8861 11.824 88.4488 11.824C88.0221 11.824 87.6434 11.9253 87.3128 12.128C86.9928 12.32 86.7368 12.592 86.5448 12.944C86.3634 13.296 86.2728 13.7013 86.2728 14.16C86.2728 14.6187 86.3634 15.024 86.5448 15.376C86.7368 15.728 86.9928 16.0053 87.3128 16.208C87.6434 16.4 88.0221 16.496 88.4488 16.496ZM90.5128 21.2V16.112L90.8168 14.256L90.5128 12.384V10.32H92.2728V21.2H90.5128ZM97.378 18.16C96.7273 18.16 96.146 18.016 95.634 17.728C95.1327 17.44 94.738 17.0453 94.45 16.544C94.1727 16.032 94.034 15.4453 94.034 14.784V10.32H95.794V14.704C95.794 15.0773 95.8527 15.3973 95.97 15.664C96.098 15.92 96.2793 16.1173 96.514 16.256C96.7593 16.3947 97.0473 16.464 97.378 16.464C97.89 16.464 98.2793 16.3147 98.546 16.016C98.8233 15.7067 98.962 15.2693 98.962 14.704V10.32H100.722V14.784C100.722 15.456 100.578 16.048 100.29 16.56C100.013 17.0613 99.6233 17.456 99.122 17.744C98.6207 18.0213 98.0393 18.16 97.378 18.16ZM102.508 18V10.32H104.268V18H102.508ZM103.388 8.912C103.089 8.912 102.838 8.81067 102.636 8.608C102.444 8.40533 102.348 8.15467 102.348 7.856C102.348 7.55733 102.444 7.30667 102.636 7.104C102.838 6.90133 103.089 6.8 103.388 6.8C103.697 6.8 103.948 6.90133 104.14 7.104C104.332 7.30667 104.428 7.55733 104.428 7.856C104.428 8.15467 104.332 8.40533 104.14 8.608C103.948 8.81067 103.697 8.912 103.388 8.912ZM108.754 18.16C108.327 18.16 107.916 18.1067 107.522 18C107.127 17.8827 106.764 17.7227 106.434 17.52C106.103 17.3067 105.815 17.0507 105.57 16.752L106.69 15.632C106.956 15.9413 107.26 16.176 107.602 16.336C107.954 16.4853 108.348 16.56 108.786 16.56C109.18 16.56 109.479 16.5013 109.682 16.384C109.884 16.2667 109.986 16.096 109.986 15.872C109.986 15.6373 109.89 15.456 109.698 15.328C109.506 15.2 109.255 15.0933 108.946 15.008C108.647 14.912 108.327 14.816 107.986 14.72C107.655 14.624 107.335 14.496 107.026 14.336C106.727 14.1653 106.482 13.936 106.29 13.648C106.098 13.36 106.002 12.9867 106.002 12.528C106.002 12.0373 106.114 11.616 106.338 11.264C106.572 10.912 106.898 10.64 107.314 10.448C107.74 10.256 108.247 10.16 108.834 10.16C109.452 10.16 109.996 10.272 110.466 10.496C110.946 10.7093 111.346 11.0347 111.666 11.472L110.546 12.592C110.322 12.3147 110.066 12.1067 109.778 11.968C109.49 11.8293 109.159 11.76 108.786 11.76C108.434 11.76 108.162 11.8133 107.97 11.92C107.778 12.0267 107.682 12.1813 107.682 12.384C107.682 12.5973 107.778 12.7627 107.97 12.88C108.162 12.9973 108.407 13.0987 108.706 13.184C109.015 13.2693 109.335 13.3653 109.666 13.472C110.007 13.568 110.327 13.7067 110.626 13.888C110.935 14.0587 111.186 14.2933 111.378 14.592C111.57 14.88 111.666 15.2587 111.666 15.728C111.666 16.4747 111.404 17.0667 110.882 17.504C110.359 17.9413 109.65 18.16 108.754 18.16ZM113.133 18V10.32H114.893V18H113.133ZM114.013 8.912C113.714 8.912 113.463 8.81067 113.261 8.608C113.069 8.40533 112.973 8.15467 112.973 7.856C112.973 7.55733 113.069 7.30667 113.261 7.104C113.463 6.90133 113.714 6.8 114.013 6.8C114.322 6.8 114.573 6.90133 114.765 7.104C114.957 7.30667 115.053 7.55733 115.053 7.856C115.053 8.15467 114.957 8.40533 114.765 8.608C114.573 8.81067 114.322 8.912 114.013 8.912ZM118.035 18V7.12H119.795V18H118.035ZM116.195 11.92V10.32H121.635V11.92H116.195ZM126.263 18.16C125.495 18.16 124.801 17.9893 124.183 17.648C123.575 17.296 123.089 16.816 122.727 16.208C122.375 15.6 122.199 14.9173 122.199 14.16C122.199 13.4027 122.375 12.7253 122.727 12.128C123.079 11.52 123.553 11.04 124.151 10.688C124.759 10.336 125.431 10.16 126.167 10.16C126.881 10.16 127.511 10.3253 128.055 10.656C128.609 10.9867 129.041 11.44 129.351 12.016C129.671 12.592 129.831 13.248 129.831 13.984C129.831 14.112 129.82 14.2453 129.799 14.384C129.788 14.512 129.767 14.656 129.735 14.816H123.431V13.376H128.823L128.167 13.952C128.145 13.4827 128.055 13.088 127.895 12.768C127.735 12.448 127.505 12.2027 127.207 12.032C126.919 11.8613 126.561 11.776 126.135 11.776C125.687 11.776 125.297 11.872 124.967 12.064C124.636 12.256 124.38 12.528 124.199 12.88C124.017 13.2213 123.927 13.632 123.927 14.112C123.927 14.592 124.023 15.0133 124.215 15.376C124.407 15.7387 124.679 16.0213 125.031 16.224C125.383 16.416 125.788 16.512 126.247 16.512C126.641 16.512 127.004 16.4427 127.335 16.304C127.676 16.1653 127.964 15.9627 128.199 15.696L129.319 16.832C128.945 17.2693 128.492 17.6 127.959 17.824C127.425 18.048 126.86 18.16 126.263 18.16ZM133.754 18.16C133.327 18.16 132.916 18.1067 132.522 18C132.127 17.8827 131.764 17.7227 131.434 17.52C131.103 17.3067 130.815 17.0507 130.57 16.752L131.69 15.632C131.956 15.9413 132.26 16.176 132.602 16.336C132.954 16.4853 133.348 16.56 133.786 16.56C134.18 16.56 134.479 16.5013 134.682 16.384C134.884 16.2667 134.986 16.096 134.986 15.872C134.986 15.6373 134.89 15.456 134.698 15.328C134.506 15.2 134.255 15.0933 133.946 15.008C133.647 14.912 133.327 14.816 132.986 14.72C132.655 14.624 132.335 14.496 132.026 14.336C131.727 14.1653 131.482 13.936 131.29 13.648C131.098 13.36 131.002 12.9867 131.002 12.528C131.002 12.0373 131.114 11.616 131.338 11.264C131.572 10.912 131.898 10.64 132.314 10.448C132.74 10.256 133.247 10.16 133.834 10.16C134.452 10.16 134.996 10.272 135.466 10.496C135.946 10.7093 136.346 11.0347 136.666 11.472L135.546 12.592C135.322 12.3147 135.066 12.1067 134.778 11.968C134.49 11.8293 134.159 11.76 133.786 11.76C133.434 11.76 133.162 11.8133 132.97 11.92C132.778 12.0267 132.682 12.1813 132.682 12.384C132.682 12.5973 132.778 12.7627 132.97 12.88C133.162 12.9973 133.407 13.0987 133.706 13.184C134.015 13.2693 134.335 13.3653 134.666 13.472C135.007 13.568 135.327 13.7067 135.626 13.888C135.935 14.0587 136.186 14.2933 136.378 14.592C136.57 14.88 136.666 15.2587 136.666 15.728C136.666 16.4747 136.404 17.0667 135.882 17.504C135.359 17.9413 134.65 18.16 133.754 18.16Z" fill="black"/>
<path fill-rule="evenodd" clip-rule="evenodd" d="M14.6152 1.59495C14.9165 1.76289 15.0643 2.11463 14.9736 2.44736L12.982 9.75003H20.25C20.5487 9.75003 20.8189 9.92721 20.9379 10.2011C21.0569 10.475 21.0021 10.7934 20.7983 11.0118L10.2983 22.2618C10.063 22.5139 9.68604 22.573 9.38481 22.4051C9.08357 22.2372 8.9357 21.8854 9.02644 21.5527L11.0181 14.25H3.75002C3.45137 14.25 3.18118 14.0728 3.06216 13.7989C2.94313 13.525 2.99795 13.2066 3.20173 12.9883L13.7017 1.73829C13.937 1.48615 14.314 1.42701 14.6152 1.59495Z" fill="#5307B4"/>
</svg>
