<svg width="150" height="18" viewBox="0 0 150 18" fill="none" xmlns="http://www.w3.org/2000/svg">
<g clip-path="url(#clip0_3_2)">
<path d="M0.415716 12.92C0.204063 13.3519 0.105871 13.8307 0.130394 14.3111C0.154916 14.7915 0.301344 15.2577 0.555881 15.6659C0.810419 16.074 1.16468 16.4107 1.5853 16.6441C2.00591 16.8775 2.47902 16.9999 2.96005 16.9999H14.0391C14.5202 17.0001 14.9934 16.8777 15.4141 16.6443C15.8348 16.411 16.1892 16.0744 16.4438 15.6662C16.6984 15.258 16.8449 14.7917 16.8694 14.3112C16.894 13.8308 16.7958 13.352 16.5841 12.92L16.1542 12.0416H0.845674L0.415716 12.92Z" fill="#5307B4"/>
<path d="M13.7254 7.08337H3.27463L1.53992 10.625H15.4601L13.7254 7.08337Z" fill="#5307B4"/>
<path d="M11.045 1.61133C10.8119 1.13514 10.4498 0.733933 9.99997 0.453313C9.55012 0.172693 9.03056 0.0239258 8.50036 0.0239258C7.97016 0.0239258 7.4506 0.172693 7.00076 0.453313C6.55091 0.733933 6.18882 1.13514 5.95567 1.61133L3.96667 5.66654H13.0333L11.045 1.61133Z" fill="#5307B4"/>
</g>
<path d="M34.336 14.16C33.4507 14.16 32.6987 14 32.08 13.68C31.4613 13.36 30.9067 12.8907 30.416 12.272L31.664 11.024C31.9733 11.472 32.3413 11.824 32.768 12.08C33.1947 12.3253 33.7387 12.448 34.4 12.448C35.0187 12.448 35.5093 12.32 35.872 12.064C36.2453 11.808 36.432 11.456 36.432 11.008C36.432 10.6347 36.336 10.3307 36.144 10.096C35.952 9.86133 35.696 9.66933 35.376 9.52C35.0667 9.36 34.72 9.22133 34.336 9.104C33.9627 8.976 33.584 8.83733 33.2 8.688C32.8267 8.528 32.48 8.33067 32.16 8.096C31.8507 7.86133 31.6 7.55733 31.408 7.184C31.216 6.81067 31.12 6.336 31.12 5.76C31.12 5.09867 31.28 4.53867 31.6 4.08C31.9307 3.61067 32.3733 3.25333 32.928 3.008C33.4827 2.76267 34.1013 2.64 34.784 2.64C35.52 2.64 36.176 2.784 36.752 3.072C37.3387 3.36 37.8133 3.728 38.176 4.176L36.928 5.424C36.608 5.06133 36.272 4.79467 35.92 4.624C35.5787 4.44267 35.184 4.352 34.736 4.352C34.1813 4.352 33.744 4.464 33.424 4.688C33.1147 4.912 32.96 5.22667 32.96 5.632C32.96 5.97333 33.056 6.25067 33.248 6.464C33.44 6.66667 33.6907 6.84267 34 6.992C34.32 7.13067 34.6667 7.264 35.04 7.392C35.424 7.52 35.8027 7.664 36.176 7.824C36.56 7.984 36.9067 8.192 37.216 8.448C37.536 8.69333 37.792 9.01333 37.984 9.408C38.176 9.80267 38.272 10.2987 38.272 10.896C38.272 11.8987 37.9147 12.6933 37.2 13.28C36.496 13.8667 35.5413 14.16 34.336 14.16ZM43.0186 14.16C42.368 14.16 41.7866 14.016 41.2746 13.728C40.7733 13.44 40.3786 13.0453 40.0906 12.544C39.8133 12.032 39.6746 11.4453 39.6746 10.784V6.32H41.4346V10.704C41.4346 11.0773 41.4933 11.3973 41.6106 11.664C41.7386 11.92 41.92 12.1173 42.1546 12.256C42.4 12.3947 42.688 12.464 43.0186 12.464C43.5306 12.464 43.92 12.3147 44.1866 12.016C44.464 11.7067 44.6026 11.2693 44.6026 10.704V6.32H46.3626V10.784C46.3626 11.456 46.2186 12.048 45.9306 12.56C45.6533 13.0613 45.264 13.456 44.7626 13.744C44.2613 14.0213 43.68 14.16 43.0186 14.16ZM52.2443 14.16C51.6576 14.16 51.1349 14.0373 50.6763 13.792C50.2176 13.536 49.8549 13.1893 49.5883 12.752C49.3323 12.3147 49.2043 11.8187 49.2043 11.264V9.056C49.2043 8.50133 49.3376 8.00533 49.6043 7.568C49.8709 7.13067 50.2336 6.78933 50.6923 6.544C51.1509 6.288 51.6683 6.16 52.2443 6.16C52.9376 6.16 53.5616 6.34133 54.1163 6.704C54.6816 7.056 55.1243 7.536 55.4443 8.144C55.7749 8.74133 55.9403 9.41867 55.9403 10.176C55.9403 10.9227 55.7749 11.6 55.4443 12.208C55.1243 12.8053 54.6816 13.28 54.1163 13.632C53.5616 13.984 52.9376 14.16 52.2443 14.16ZM51.9563 12.496C52.3829 12.496 52.7563 12.4 53.0763 12.208C53.4069 12.0053 53.6629 11.728 53.8443 11.376C54.0363 11.024 54.1323 10.6187 54.1323 10.16C54.1323 9.70133 54.0363 9.296 53.8443 8.944C53.6629 8.592 53.4069 8.32 53.0763 8.128C52.7563 7.92533 52.3829 7.824 51.9563 7.824C51.5296 7.824 51.1509 7.92533 50.8203 8.128C50.4896 8.32 50.2336 8.592 50.0523 8.944C49.8709 9.296 49.7803 9.70133 49.7803 10.16C49.7803 10.6187 49.8709 11.024 50.0523 11.376C50.2336 11.728 50.4896 12.0053 50.8203 12.208C51.1509 12.4 51.5296 12.496 51.9563 12.496ZM48.1323 14V2.48H49.8923V8.208L49.5883 10.064L49.8923 11.936V14H48.1323ZM56.6455 17.36C56.1015 17.36 55.6588 17.2747 55.3175 17.104C54.9655 16.9333 54.6455 16.6827 54.3575 16.352L55.4935 15.216C55.6215 15.3867 55.7655 15.5093 55.9255 15.584C56.0855 15.6693 56.2828 15.712 56.5175 15.712C56.8055 15.712 57.0508 15.6213 57.2535 15.44C57.4668 15.2693 57.5735 15.0133 57.5735 14.672V6.32H59.3335V14.656C59.3335 15.2427 59.2055 15.7333 58.9495 16.128C58.7042 16.5333 58.3788 16.8373 57.9735 17.04C57.5682 17.2533 57.1255 17.36 56.6455 17.36ZM58.4855 4.912C58.1868 4.912 57.9362 4.81067 57.7335 4.608C57.5415 4.40533 57.4455 4.15467 57.4455 3.856C57.4455 3.55733 57.5415 3.30667 57.7335 3.104C57.9362 2.90133 58.1868 2.8 58.4855 2.8C58.7948 2.8 59.0455 2.90133 59.2375 3.104C59.4295 3.30667 59.5255 3.55733 59.5255 3.856C59.5255 4.15467 59.4295 4.40533 59.2375 4.608C59.0455 4.81067 58.7948 4.912 58.4855 4.912ZM64.8565 14.16C64.0885 14.16 63.3952 13.9893 62.7765 13.648C62.1685 13.296 61.6832 12.816 61.3205 12.208C60.9685 11.6 60.7925 10.9173 60.7925 10.16C60.7925 9.40267 60.9685 8.72533 61.3205 8.128C61.6725 7.52 62.1472 7.04 62.7445 6.688C63.3525 6.336 64.0245 6.16 64.7605 6.16C65.4752 6.16 66.1045 6.32533 66.6485 6.656C67.2032 6.98667 67.6352 7.44 67.9445 8.016C68.2645 8.592 68.4245 9.248 68.4245 9.984C68.4245 10.112 68.4138 10.2453 68.3925 10.384C68.3818 10.512 68.3605 10.656 68.3285 10.816H62.0245V9.376H67.4165L66.7605 9.952C66.7392 9.48267 66.6485 9.088 66.4885 8.768C66.3285 8.448 66.0992 8.20267 65.8005 8.032C65.5125 7.86133 65.1552 7.776 64.7285 7.776C64.2805 7.776 63.8912 7.872 63.5605 8.064C63.2298 8.256 62.9738 8.528 62.7925 8.88C62.6112 9.22133 62.5205 9.632 62.5205 10.112C62.5205 10.592 62.6165 11.0133 62.8085 11.376C63.0005 11.7387 63.2725 12.0213 63.6245 12.224C63.9765 12.416 64.3818 12.512 64.8405 12.512C65.2352 12.512 65.5978 12.4427 65.9285 12.304C66.2698 12.1653 66.5578 11.9627 66.7925 11.696L67.9125 12.832C67.5392 13.2693 67.0858 13.6 66.5525 13.824C66.0192 14.048 65.4538 14.16 64.8565 14.16ZM73.3714 14.16C72.614 14.16 71.926 13.984 71.3074 13.632C70.6994 13.28 70.2194 12.8 69.8674 12.192C69.5154 11.584 69.3394 10.9067 69.3394 10.16C69.3394 9.40267 69.5154 8.72533 69.8674 8.128C70.2194 7.52 70.6994 7.04 71.3074 6.688C71.926 6.336 72.614 6.16 73.3714 6.16C73.9687 6.16 74.5234 6.27733 75.0354 6.512C75.558 6.736 76.0007 7.06133 76.3634 7.488L75.2114 8.656C74.9874 8.38933 74.7154 8.192 74.3954 8.064C74.086 7.92533 73.7447 7.856 73.3714 7.856C72.934 7.856 72.5447 7.95733 72.2034 8.16C71.8727 8.352 71.6114 8.61867 71.4194 8.96C71.238 9.30133 71.1474 9.70133 71.1474 10.16C71.1474 10.608 71.238 11.008 71.4194 11.36C71.6114 11.7013 71.8727 11.9733 72.2034 12.176C72.5447 12.368 72.934 12.464 73.3714 12.464C73.7447 12.464 74.086 12.4 74.3954 12.272C74.7154 12.1333 74.9874 11.9307 75.2114 11.664L76.3634 12.832C76.0007 13.2587 75.558 13.5893 75.0354 13.824C74.5234 14.048 73.9687 14.16 73.3714 14.16ZM78.6753 14V3.12H80.4353V14H78.6753ZM76.8353 7.92V6.32H82.2753V7.92H76.8353ZM88.2613 9.248V7.728H91.0933C91.6586 7.728 92.0959 7.584 92.4053 7.296C92.7253 6.99733 92.8853 6.58667 92.8853 6.064C92.8853 5.59467 92.7306 5.2 92.4213 4.88C92.1119 4.56 91.6746 4.4 91.1093 4.4H88.2613V2.8H91.1893C91.8933 2.8 92.5119 2.944 93.0453 3.232C93.5786 3.50933 93.9893 3.89333 94.2773 4.384C94.5759 4.864 94.7253 5.41333 94.7253 6.032C94.7253 6.68267 94.5759 7.248 94.2773 7.728C93.9893 8.208 93.5786 8.58133 93.0453 8.848C92.5119 9.11467 91.8933 9.248 91.1893 9.248H88.2613ZM86.9973 14V2.8H88.8373V14H86.9973ZM93.1413 14L89.2213 9.136L90.9333 8.512L95.4613 14H93.1413ZM99.567 14.16C98.8737 14.16 98.2443 13.984 97.679 13.632C97.1243 13.28 96.6817 12.8053 96.351 12.208C96.031 11.6 95.871 10.9227 95.871 10.176C95.871 9.41867 96.031 8.74133 96.351 8.144C96.6817 7.536 97.1243 7.056 97.679 6.704C98.2443 6.34133 98.8737 6.16 99.567 6.16C100.154 6.16 100.671 6.288 101.119 6.544C101.578 6.78933 101.94 7.13067 102.207 7.568C102.474 8.00533 102.607 8.50133 102.607 9.056V11.264C102.607 11.8187 102.474 12.3147 102.207 12.752C101.951 13.1893 101.594 13.536 101.135 13.792C100.676 14.0373 100.154 14.16 99.567 14.16ZM99.855 12.496C100.506 12.496 101.028 12.2773 101.423 11.84C101.828 11.4027 102.031 10.8427 102.031 10.16C102.031 9.70133 101.94 9.296 101.759 8.944C101.578 8.592 101.322 8.32 100.991 8.128C100.671 7.92533 100.292 7.824 99.855 7.824C99.4283 7.824 99.0497 7.92533 98.719 8.128C98.399 8.32 98.143 8.592 97.951 8.944C97.7697 9.296 97.679 9.70133 97.679 10.16C97.679 10.6187 97.7697 11.024 97.951 11.376C98.143 11.728 98.399 12.0053 98.719 12.208C99.0497 12.4 99.4283 12.496 99.855 12.496ZM101.919 14V11.936L102.223 10.064L101.919 8.208V6.32H103.679V14H101.919ZM110.896 14V9.568C110.896 9.056 110.731 8.63467 110.4 8.304C110.08 7.97333 109.664 7.808 109.152 7.808C108.811 7.808 108.507 7.88267 108.24 8.032C107.974 8.18133 107.766 8.38933 107.616 8.656C107.467 8.92267 107.392 9.22667 107.392 9.568L106.704 9.184C106.704 8.59733 106.832 8.08 107.088 7.632C107.344 7.17333 107.696 6.816 108.144 6.56C108.603 6.29333 109.115 6.16 109.68 6.16C110.256 6.16 110.768 6.30933 111.216 6.608C111.664 6.896 112.016 7.27467 112.272 7.744C112.528 8.20267 112.656 8.68267 112.656 9.184V14H110.896ZM105.632 14V6.32H107.392V14H105.632ZM119.325 14L116.077 10.08L119.309 6.32H121.405L117.693 10.544L117.773 9.536L121.565 14H119.325ZM114.445 14V2.48H116.205V14H114.445ZM122.351 14V6.32H124.111V14H122.351ZM123.231 4.912C122.933 4.912 122.682 4.81067 122.479 4.608C122.287 4.40533 122.191 4.15467 122.191 3.856C122.191 3.55733 122.287 3.30667 122.479 3.104C122.682 2.90133 122.933 2.8 123.231 2.8C123.541 2.8 123.791 2.90133 123.983 3.104C124.175 3.30667 124.271 3.55733 124.271 3.856C124.271 4.15467 124.175 4.40533 123.983 4.608C123.791 4.81067 123.541 4.912 123.231 4.912ZM131.349 14V9.568C131.349 9.056 131.184 8.63467 130.853 8.304C130.533 7.97333 130.117 7.808 129.605 7.808C129.264 7.808 128.96 7.88267 128.693 8.032C128.427 8.18133 128.219 8.38933 128.069 8.656C127.92 8.92267 127.845 9.22667 127.845 9.568L127.157 9.184C127.157 8.59733 127.285 8.08 127.541 7.632C127.797 7.17333 128.149 6.816 128.597 6.56C129.056 6.29333 129.568 6.16 130.133 6.16C130.709 6.16 131.221 6.30933 131.669 6.608C132.117 6.896 132.469 7.27467 132.725 7.744C132.981 8.20267 133.109 8.68267 133.109 9.184V14H131.349ZM126.085 14V6.32H127.845V14H126.085ZM138.098 17.36C137.287 17.36 136.578 17.2107 135.97 16.912C135.362 16.624 134.871 16.2133 134.498 15.68L135.65 14.528C135.959 14.912 136.311 15.2 136.706 15.392C137.101 15.584 137.575 15.68 138.13 15.68C138.823 15.68 139.373 15.4987 139.778 15.136C140.183 14.784 140.386 14.2987 140.386 13.68V11.792L140.69 10.096L140.386 8.384V6.32H142.146V13.68C142.146 14.416 141.975 15.056 141.634 15.6C141.293 16.1547 140.818 16.5867 140.21 16.896C139.602 17.2053 138.898 17.36 138.098 17.36ZM138.018 13.84C137.335 13.84 136.717 13.6747 136.162 13.344C135.618 13.0027 135.186 12.5387 134.866 11.952C134.557 11.3653 134.402 10.7093 134.402 9.984C134.402 9.25867 134.557 8.608 134.866 8.032C135.186 7.456 135.618 7.00267 136.162 6.672C136.717 6.33067 137.335 6.16 138.018 6.16C138.626 6.16 139.159 6.28267 139.618 6.528C140.077 6.77333 140.434 7.11467 140.69 7.552C140.946 7.97867 141.074 8.48 141.074 9.056V10.944C141.074 11.5093 140.941 12.0107 140.674 12.448C140.418 12.8853 140.061 13.2267 139.602 13.472C139.143 13.7173 138.615 13.84 138.018 13.84ZM138.37 12.176C138.797 12.176 139.17 12.0853 139.49 11.904C139.81 11.7227 140.055 11.472 140.226 11.152C140.407 10.8213 140.498 10.4373 140.498 10C140.498 9.56267 140.407 9.184 140.226 8.864C140.055 8.53333 139.81 8.27733 139.49 8.096C139.17 7.91467 138.797 7.824 138.37 7.824C137.943 7.824 137.565 7.91467 137.234 8.096C136.914 8.27733 136.663 8.53333 136.482 8.864C136.301 9.184 136.21 9.56267 136.21 10C136.21 10.4267 136.301 10.8053 136.482 11.136C136.663 11.4667 136.914 11.7227 137.234 11.904C137.565 12.0853 137.943 12.176 138.37 12.176ZM146.613 14.16C146.186 14.16 145.776 14.1067 145.381 14C144.986 13.8827 144.624 13.7227 144.293 13.52C143.962 13.3067 143.674 13.0507 143.429 12.752L144.549 11.632C144.816 11.9413 145.12 12.176 145.461 12.336C145.813 12.4853 146.208 12.56 146.645 12.56C147.04 12.56 147.338 12.5013 147.541 12.384C147.744 12.2667 147.845 12.096 147.845 11.872C147.845 11.6373 147.749 11.456 147.557 11.328C147.365 11.2 147.114 11.0933 146.805 11.008C146.506 10.912 146.186 10.816 145.845 10.72C145.514 10.624 145.194 10.496 144.885 10.336C144.586 10.1653 144.341 9.936 144.149 9.648C143.957 9.36 143.861 8.98667 143.861 8.528C143.861 8.03733 143.973 7.616 144.197 7.264C144.432 6.912 144.757 6.64 145.173 6.448C145.6 6.256 146.106 6.16 146.693 6.16C147.312 6.16 147.856 6.272 148.325 6.496C148.805 6.70933 149.205 7.03467 149.525 7.472L148.405 8.592C148.181 8.31467 147.925 8.10667 147.637 7.968C147.349 7.82933 147.018 7.76 146.645 7.76C146.293 7.76 146.021 7.81333 145.829 7.92C145.637 8.02667 145.541 8.18133 145.541 8.384C145.541 8.59733 145.637 8.76267 145.829 8.88C146.021 8.99733 146.266 9.09867 146.565 9.184C146.874 9.26933 147.194 9.36533 147.525 9.472C147.866 9.568 148.186 9.70667 148.485 9.888C148.794 10.0587 149.045 10.2933 149.237 10.592C149.429 10.88 149.525 11.2587 149.525 11.728C149.525 12.4747 149.264 13.0667 148.741 13.504C148.218 13.9413 147.509 14.16 146.613 14.16Z" fill="black"/>
<defs>
<clipPath id="clip0_3_2">
<rect width="17" height="17" fill="white"/>
</clipPath>
</defs>
</svg>
