<?xml version="1.0" encoding="utf-8"?>
<!-- Svg Vector Icons : http://www.onlinewebfonts.com/icon -->
<!DOCTYPE svg PUBLIC "-//W3C//DTD SVG 1.1//EN" "http://www.w3.org/Graphics/SVG/1.1/DTD/svg11.dtd">
<svg version="1.1" xmlns="http://www.w3.org/2000/svg" xmlns:xlink="http://www.w3.org/1999/xlink" x="0px" y="0px" viewBox="0 0 256 256" enable-background="new 0 0 256 256" xml:space="preserve">
<metadata> Svg Vector Icons : http://www.onlinewebfonts.com/icon </metadata>
<g><g><path fill="#000000" d="M50.3,143.7H33.8c-12.3,0-23.8-5.9-23.8-19.6c0-9.9-0.4-43.4,15.2-43.4c2.6,0,15.4,10.5,32,10.5c5.7,0,11.1-1,16.4-2.8c-0.4,2.7-0.6,5.4-0.6,8.1c0,11.2,3.6,22.3,9.9,31.5C70.1,128.4,58.6,133.9,50.3,143.7z M57.2,80.8c-17.3,0-31.5-14.1-31.5-31.5c0-17.3,14.1-31.5,31.5-31.5c17.3,0,31.5,14.1,31.5,31.5C88.7,66.7,74.5,80.8,57.2,80.8z M181.7,238.1H74.3c-19.7,0-32.8-11.9-32.8-31.8c0-27.8,6.5-70.4,42.5-70.4c4.2,0,19.4,17.1,44,17.1c24.6,0,39.8-17.1,44-17.1c36,0,42.5,42.7,42.5,70.4C214.5,226.2,201.4,238.1,181.7,238.1z M128,143.7c-26.1,0-47.2-21.1-47.2-47.2c0-26.1,21.1-47.2,47.2-47.2c26.1,0,47.2,21.1,47.2,47.2C175.2,122.6,154.1,143.7,128,143.7z M198.8,80.8c-17.3,0-31.5-14.1-31.5-31.5c0-17.3,14.1-31.5,31.5-31.5c17.3,0,31.5,14.1,31.5,31.5C230.3,66.7,216.2,80.8,198.8,80.8z M222.2,143.7h-16.5c-8.2-9.8-19.8-15.4-32.6-15.7c6.4-9.2,9.9-20.3,9.9-31.5c0-2.7-0.2-5.4-0.6-8.1c5.3,1.9,10.7,2.8,16.4,2.8c16.6,0,29.4-10.5,32-10.5c15.6,0,15.2,33.4,15.2,43.4C246,137.8,234.5,143.7,222.2,143.7z"/></g></g>
</svg>